<svg width="200" height="200" viewBox="0 0 200 200" fill="none" xmlns="http://www.w3.org/2000/svg">
<rect width="200" height="200" fill="white"/>
<path fill-rule="evenodd" clip-rule="evenodd" d="M176.594 109.509C181.219 73.1205 106.816 20.7492 53.2698 27.2122C-0.276688 33.6751 50.7991 75.7529 29.1276 121.875C14.0933 153.872 26.2955 181.605 98.808 179.928C151.124 178.718 172.917 144.442 176.594 109.509Z" fill="#E5F7F9"/>
<path fill-rule="evenodd" clip-rule="evenodd" d="M58.912 33.8929C58.5267 34.0266 58.6571 45.3016 58.689 47.2852C58.7609 51.7536 58.5216 133.466 58.5302 137.946C58.5328 139.261 58.6201 139.551 58.912 139.447C59.8963 139.098 136.504 139.195 138.415 138.842C138.508 138.825 138.938 126.481 138.94 126.136C138.958 122.342 139.218 41.3178 139.218 37.5218C139.219 35.9132 138.997 35.005 138.65 34.766C138.242 34.4854 137.826 34.3577 137.413 34.303C136.004 34.1162 60.545 33.3265 58.912 33.8929Z" fill="white"/>
<path fill-rule="evenodd" clip-rule="evenodd" d="M49.333 25.82C50.2297 25.7884 51.1261 25.7472 52.0228 25.7141C53.9947 25.6412 74.6333 25.5729 76.6051 25.498C77.359 25.4694 78.1121 25.4192 78.8661 25.3939C80.1378 25.3512 81.4099 25.324 82.6817 25.2835C83.6142 25.2539 84.5463 25.2106 85.4787 25.1782C86.5897 25.1396 87.7009 25.1091 88.8118 25.0693C89.6728 25.0385 90.5333 24.9912 91.3945 24.9648C92.7734 24.9226 94.1527 24.8946 95.5317 24.8549C96.6071 24.8239 97.6823 24.7827 98.7577 24.749C99.958 24.7114 101.158 24.6771 102.359 24.6414C103.559 24.6056 104.76 24.5691 105.96 24.5344C107.232 24.4976 108.504 24.4632 109.776 24.4268C111 24.3917 112.224 24.3537 113.449 24.3202C114.828 24.2824 116.207 24.2484 117.586 24.2124C118.947 24.1769 120.309 24.1403 121.67 24.1054C123.103 24.0688 124.535 24.0341 125.968 23.9979C127.365 23.9626 128.762 23.9391 130.159 23.8867C131.225 23.8468 132.289 23.7659 133.354 23.7141C133.512 23.7064 133.673 23.7823 133.832 23.78C136.033 23.7495 138.235 23.7155 140.436 23.6752C142.083 23.6451 143.73 23.6035 145.377 23.5695C147.185 23.5321 148.993 23.4853 150.801 23.467C151.739 23.4574 152.356 23.8807 152.577 24.7659C152.687 25.2069 152.63 25.692 152.633 26.1572C152.641 27.3531 152.655 28.5492 152.64 29.7449C152.63 30.4897 152.571 31.2338 152.536 31.9783C152.529 32.1199 152.528 32.262 152.528 32.4038C152.527 33.9647 152.539 35.5257 152.525 37.0864C152.499 39.8238 152.458 42.561 152.419 45.2982C152.387 47.5709 152.348 49.8435 152.313 52.1162C152.277 54.4245 152.242 56.7329 152.206 59.0413C152.17 61.3139 152.139 63.5867 152.096 65.8592C152.071 67.2027 152.018 68.5458 151.994 69.8893C151.978 70.8245 152.001 71.7602 151.989 72.6955C151.959 75.0039 151.925 77.3123 151.882 79.6206C151.857 80.9463 151.803 82.2714 151.78 83.5972C151.763 84.5501 151.79 85.5039 151.773 86.4569C151.751 87.7647 151.695 89.072 151.673 90.3799C151.656 91.3864 151.683 92.3938 151.666 93.4004C151.645 94.601 151.587 95.8011 151.566 97.0017C151.549 97.9726 151.572 98.9441 151.56 99.9151C151.531 102.277 151.493 104.639 151.454 107.001C151.422 109.024 151.387 111.046 151.347 113.068C151.317 114.537 151.266 116.005 151.244 117.474C151.227 118.606 151.255 119.738 151.237 120.87C151.218 122.035 151.156 123.199 151.137 124.364C151.119 125.478 151.147 126.592 151.129 127.706C151.112 128.764 151.047 129.821 151.03 130.878C151.012 132.01 151.037 133.142 151.024 134.274C150.996 136.618 150.956 138.963 150.918 141.307C150.885 143.365 150.886 145.425 150.801 147.481C150.719 149.458 151.174 151.292 152.158 152.98C153.159 154.7 154.233 156.378 155.297 158.06C156.349 159.723 157.273 161.455 157.762 163.363C158.111 164.726 158.163 166.141 157.77 167.52C157.636 167.992 156.82 171.246 157.515 172.091C158.407 173.176 159.535 173.663 160.924 173.695C162.278 173.726 163.563 173.397 164.861 173.096C166.439 172.731 168.023 172.467 169.612 173.044C170.402 173.33 171.115 173.736 171.582 174.467C171.653 174.579 171.826 174.766 171.449 174.768C170.534 174.773 169.62 174.829 168.705 174.865C166.877 174.937 165.048 175.01 163.219 175.079C162.161 175.119 161.104 175.153 160.046 175.186C158.864 175.224 157.681 175.261 156.499 175.293C155.12 175.332 153.741 175.369 152.361 175.4C150.643 175.44 148.924 175.476 147.205 175.508C145.094 175.547 142.982 175.584 140.87 175.615C138.061 175.655 135.253 175.683 132.444 175.724C130.529 175.753 128.613 175.795 126.698 175.829C126.37 175.835 126.043 175.828 125.715 175.831C121.762 175.866 117.81 175.902 113.857 175.937C113.512 175.94 113.166 175.935 112.82 175.938C108.779 175.973 104.737 176.009 100.695 176.044C100.331 176.047 99.9677 176.042 99.6042 176.045C95.5981 176.08 91.592 176.116 87.5859 176.151C87.2403 176.154 86.8946 176.149 86.5489 176.152C82.5071 176.187 78.4653 176.224 74.4234 176.259C74.0957 176.262 42.3012 176.257 41.9734 176.259C41.4548 176.265 39.2411 172.28 42.2613 163.363C43.2673 160.393 49.333 152.497 49.333 152.497C49.333 152.497 48.5071 25.8492 49.333 25.82Z" fill="white"/>
<path fill-rule="evenodd" clip-rule="evenodd" d="M57.1578 138.381C57.1587 138.883 57.1491 139.421 56.8634 139.833C56.5778 140.246 55.9046 140.423 55.5753 140.044C55.5351 111.471 55.495 82.8971 55.4548 54.3234C55.4479 49.4361 55.4412 44.5438 55.7801 39.6682C56.9741 41.9852 57.0047 44.7053 57.0089 47.3118C57.0586 77.6683 57.1082 108.025 57.1578 138.381Z" fill="#00160A"/>
<path fill-rule="evenodd" clip-rule="evenodd" d="M130.384 99.6147C130.57 100.031 129.931 100.303 129.475 100.313C123.267 100.451 117.057 100.481 110.848 100.402C110.797 89.6356 111.068 78.8673 111.662 68.1168C120.04 68.0536 128.418 67.9905 136.796 67.9273C137.007 68.15 136.59 68.4232 136.284 68.4474C128.365 69.0757 120.407 69.2195 112.47 68.8778C111.895 79.0708 111.602 89.2798 111.591 99.489C117.855 99.351 124.123 99.393 130.384 99.6147Z" fill="#00160A"/>
<path fill-rule="evenodd" clip-rule="evenodd" d="M79.2179 46.9476C79.2952 47.0435 79.302 47.1764 79.3054 47.2996C79.4801 53.6335 79.6549 59.9674 79.8297 66.3014C89.7877 65.8943 99.7492 65.5709 109.713 65.3312C109.579 59.6684 109.446 54.0056 109.312 48.3428C109.311 48.2738 109.309 48.203 109.332 48.1379C109.42 47.8882 109.814 47.8966 109.988 48.0963C110.162 48.2961 110.176 48.5846 110.182 48.8494C110.302 54.6471 110.423 60.4448 110.543 66.2426C100.073 66.5741 89.6024 66.9056 79.132 67.2371C78.9195 60.7338 78.7071 54.2306 78.4947 47.7273C78.4869 47.4911 78.484 47.2373 78.6158 47.0411C78.7475 46.8449 79.0696 46.7635 79.2179 46.9476L79.2179 46.9476Z" fill="#00160A"/>
<path fill-rule="evenodd" clip-rule="evenodd" d="M67.8858 70.3637C66.5792 70.4201 65.0663 70.3742 64.2543 69.349C68.7307 69.428 73.2127 69.1844 77.6541 68.6205C77.8117 68.6005 77.8747 68.817 77.8767 68.9759C78.0058 79.1813 78.135 89.3867 78.2641 99.592C78.2669 99.8143 78.2488 100.077 78.06 100.195C77.9592 100.257 77.8335 100.26 77.7147 100.261C73.7527 100.288 69.79 100.221 65.8312 100.06C65.3778 100.041 64.7442 99.6975 65.0074 99.3279C69.1273 99.2564 73.2483 99.2437 77.3685 99.2899C77.4329 89.4465 77.2952 79.6018 76.9555 69.7641C73.9374 70.0332 70.9131 70.2331 67.8858 70.3637Z" fill="#00160A"/>
<path fill-rule="evenodd" clip-rule="evenodd" d="M64.616 101.417C69.22 101.249 73.8327 101.319 78.4294 101.628C78.1356 110.275 78.3781 118.929 78.6206 127.577C78.694 130.194 78.7674 132.811 78.8408 135.428C78.7046 135.634 78.3607 135.58 78.2055 135.387C78.0503 135.195 78.0309 134.93 78.0183 134.683C77.4711 123.94 77.3419 113.176 77.6313 102.423C73.5456 102.334 69.46 102.245 65.3744 102.156C65.1453 102.151 64.9009 102.141 64.7141 102.008C64.5273 101.875 64.4463 101.571 64.616 101.417L64.616 101.417Z" fill="#00160A"/>
<path fill-rule="evenodd" clip-rule="evenodd" d="M79.6501 98.318C80.1807 88.9898 80.5693 79.6526 80.8157 70.3108C80.8289 69.8084 80.8418 69.3061 80.8546 68.8037C80.8568 68.7186 80.8631 68.6238 80.9253 68.566C80.9854 68.51 81.0769 68.5084 81.1594 68.5101C90.8719 68.7079 100.58 69.1971 110.267 69.9767C110.022 80.1662 109.19 90.3379 107.777 100.425C98.4226 99.4271 89.0514 98.4285 79.6501 98.318M80.4913 97.4167C89.3908 97.5091 98.26 98.4863 107.112 99.4625C108.504 89.979 109.292 80.4035 109.47 70.8129C100.198 70.1086 90.9092 69.6602 81.6163 69.4686C81.3063 78.7875 80.9312 88.1038 80.4913 97.4167L80.4913 97.4167Z" fill="#00160A"/>
<path fill-rule="evenodd" clip-rule="evenodd" d="M62.945 67.0064C67.6495 66.7912 72.3541 66.5761 77.0587 66.361C76.7381 60.1786 76.4174 53.9962 76.0967 47.8138C76.089 47.6651 76.0865 47.5002 76.1835 47.3872C76.3354 47.2103 76.647 47.2843 76.7871 47.4706C76.9272 47.6569 76.9439 47.9052 76.9553 48.1381C77.2672 54.5109 77.5791 60.8837 77.8911 67.2565C74.6388 67.4715 71.3866 67.6864 68.1343 67.9014C66.3426 68.0198 64.3772 68.0894 62.945 67.0064V67.0064Z" fill="#00160A"/>
<path fill-rule="evenodd" clip-rule="evenodd" d="M108.668 134.904C108.362 135.027 108.178 134.563 108.175 134.233C108.091 123.559 108.212 112.884 108.54 102.215C99.1749 102.274 89.81 102.333 80.445 102.392C80.6069 113.359 80.7687 124.325 80.9306 135.292C80.9327 135.435 80.9275 135.596 80.823 135.693C80.5363 135.96 80.2027 135.41 80.1926 135.019C79.9074 123.948 79.7398 112.874 79.6899 101.799C89.5321 101.725 99.3744 101.651 109.217 101.577C109.107 112.513 108.997 123.449 108.887 134.385C108.885 134.585 108.854 134.83 108.668 134.904V134.904Z" fill="#00160A"/>
<path fill-rule="evenodd" clip-rule="evenodd" d="M134.898 65.7846C127.15 65.9358 119.402 66.0869 111.654 66.238C111.882 60.0724 111.837 53.8967 111.52 47.735C111.512 47.5735 111.511 47.3905 111.627 47.2773C111.939 46.971 112.328 47.5741 112.35 48.0109C112.645 53.7746 112.71 59.5502 112.543 65.3192C120.518 64.9593 128.505 64.8642 136.486 65.0341C136.32 65.6423 135.529 65.7723 134.898 65.7846V65.7846Z" fill="#00160A"/>
<path fill-rule="evenodd" clip-rule="evenodd" d="M130.429 101.23C130.926 101.222 131.636 101.516 131.419 101.962C124.779 101.915 118.137 102.025 111.502 102.293C110.815 112.518 110.643 122.778 110.988 133.021C111.012 133.72 111.03 134.455 110.71 135.078C110.519 135.313 110.225 134.896 110.215 134.594C109.842 123.638 110.042 112.663 110.813 101.729C117.35 101.505 123.889 101.339 130.429 101.23Z" fill="#00160A"/>
<path fill-rule="evenodd" clip-rule="evenodd" d="M127.164 53.4916C127.313 53.73 127.265 54.0509 127.119 54.2913C126.973 54.5317 126.746 54.7091 126.523 54.8809C124.518 56.4291 122.513 57.9773 120.508 59.5255C120.329 59.6635 120.124 59.8092 119.9 59.7808C119.676 59.7524 119.508 59.4338 119.686 59.2944C121.811 57.6282 123.935 55.9619 126.06 54.2957C126.418 54.0146 126.778 53.7328 127.164 53.4916Z" fill="#E7EAEE"/>
<path fill-rule="evenodd" clip-rule="evenodd" d="M123.397 113.065C123.462 113.249 123.316 113.435 123.18 113.577C121.781 115.038 120.381 116.5 118.981 117.961C118.81 118.139 118.613 118.329 118.367 118.335C118.12 118.34 117.889 118.022 118.06 117.844C119.543 116.297 121.026 114.749 122.509 113.202C122.634 113.071 122.767 112.936 122.941 112.883C123.114 112.83 123.337 112.894 123.397 113.065V113.065Z" fill="#E7EAEE"/>
<path fill-rule="evenodd" clip-rule="evenodd" d="M120.823 109.782C119.633 110.826 118.444 111.869 117.254 112.913C117.541 112.836 117.705 113.316 117.492 113.523C117.278 113.73 116.93 113.695 116.649 113.597C116.567 113.568 116.485 113.533 116.423 113.472C116.186 113.235 116.418 112.84 116.651 112.598C117.818 111.385 119.074 110.258 120.405 109.228C120.596 109.081 120.885 108.94 121.05 109.115C121.231 109.307 121.021 109.608 120.823 109.782Z" fill="#E7EAEE"/>
<path fill-rule="evenodd" clip-rule="evenodd" d="M66.7272 118.432C66.5704 118.186 66.8497 117.898 67.0917 117.735C68.461 116.809 69.6978 115.688 70.7529 114.415C70.8972 114.241 71.052 114.055 71.2692 113.993C71.4864 113.931 71.7726 114.07 71.7664 114.296C71.7631 114.417 71.6804 114.52 71.6012 114.612C70.3936 116.014 69.022 117.275 67.5232 118.36C67.28 118.537 66.8884 118.685 66.7272 118.432V118.432Z" fill="#E7EAEE"/>
<path fill-rule="evenodd" clip-rule="evenodd" d="M65.528 129.075C65.3157 129.096 65.174 128.824 65.235 128.62C65.2959 128.415 65.4785 128.275 65.6496 128.148C68.1608 126.278 70.4302 124.085 72.3835 121.639C72.5384 121.445 72.8871 121.634 72.9132 121.88C72.9392 122.127 72.7727 122.349 72.6137 122.539C70.6025 124.95 68.2945 127.113 65.7583 128.964C65.6885 129.014 65.614 129.067 65.528 129.075V129.075Z" fill="#E7EAEE"/>
<path fill-rule="evenodd" clip-rule="evenodd" d="M115.099 54.8701C114.88 54.5908 115.175 54.2068 115.448 53.9799C116.148 53.3984 116.848 52.8169 117.547 52.2353C117.795 52.0299 118.239 51.861 118.37 52.1545C118.461 52.3587 118.273 52.5724 118.104 52.7178C117.41 53.3119 116.715 53.906 116.021 54.5001C115.758 54.7252 115.431 54.9659 115.099 54.8701L115.099 54.8701Z" fill="#E7EAEE"/>
<path fill-rule="evenodd" clip-rule="evenodd" d="M67.6725 113.377C68.2152 112.727 68.794 112.107 69.4053 111.521C69.5594 111.374 69.764 111.217 69.9649 111.289C70.0447 111.317 70.1106 111.382 70.1405 111.461C70.2168 111.664 70.058 111.873 69.9106 112.031C69.4198 112.559 68.9291 113.087 68.4384 113.615C68.3028 113.76 68.155 113.913 67.9608 113.958C67.7666 114.002 67.5225 113.877 67.5227 113.678C67.5228 113.563 67.5992 113.465 67.6725 113.377Z" fill="#E7EAEE"/>
<path fill-rule="evenodd" clip-rule="evenodd" d="M119.168 125.172C119.087 125.216 118.992 125.258 118.905 125.228C118.689 125.155 118.8 124.828 118.945 124.653C120.392 122.915 121.843 121.171 123.497 119.628C124.276 118.901 125.098 118.221 125.919 117.542C126.81 116.805 127.701 116.068 128.592 115.331C128.714 115.229 128.864 115.121 129.018 115.161C129.366 115.252 129.158 115.784 128.891 116.024C126.522 118.149 123.791 119.909 121.81 122.4C121.009 123.407 120.3 124.56 119.168 125.172Z" fill="#E7EAEE"/>
<path fill-rule="evenodd" clip-rule="evenodd" d="M67.7157 40.689C63.8002 42.732 58.373 40.9956 56.3706 37.0593C59.4214 37.9166 62.015 40.9845 65.105 40.2812C67.4698 39.743 68.865 37.1608 71.1541 36.3593C73.6178 35.4966 76.2185 36.9134 78.627 37.9202C81.0354 38.9269 84.3237 39.3102 85.8042 37.1603C87.0977 35.282 89.9926 36.0582 92.0712 36.9966C94.1497 37.935 97.1133 38.5923 98.2785 36.6318C99.3274 34.8668 101.937 34.9279 103.846 35.6827C105.756 36.4375 107.604 37.6771 109.652 37.5336C113.126 37.2902 116.153 33.1421 119.324 34.5794C120.301 35.0222 121.001 35.9374 121.974 36.39C125.258 37.9185 129.737 33.6307 132.387 36.1005C133.83 37.4448 136.144 36.6609 137.939 35.844C139.733 35.027 142.119 34.3485 143.451 35.8017C142.326 38.4202 142.211 41.3451 142.112 44.1935C141.033 75.3315 139.954 106.469 138.875 137.607C138.148 137.491 137.988 136.528 138.005 135.791C138.435 116.664 138.866 97.5369 139.296 78.4097C139.601 64.8566 139.906 51.3036 140.237 37.7512C138.861 36.7488 137.232 38.7763 135.547 39.0229C134 39.2495 132.695 37.9213 131.204 37.4494C127.865 36.393 123.883 39.6805 120.968 37.7393C120.184 37.2171 119.626 36.372 118.768 35.9834C117.369 35.35 115.741 36.1518 114.558 37.1296C113.374 38.1073 112.277 39.3248 110.786 39.6917C107.459 40.5101 104.435 36.7095 101.038 37.1476C99.1287 37.3938 97.6765 38.9103 96.0216 39.8932C94.3668 40.8761 91.8038 41.1052 90.8875 39.4125C89.8656 37.5247 86.6591 37.4885 85.5948 39.3528C84.4571 41.3457 81.4702 41.1052 79.4017 40.1116C77.3331 39.118 75.2786 37.602 73.0037 37.9035C71.0123 38.1675 69.4966 39.7598 67.7157 40.689V40.689Z" fill="#00160A"/>
<path fill-rule="evenodd" clip-rule="evenodd" d="M117.356 56.3742C117.379 56.3224 117.421 56.2819 117.462 56.2429C118.915 54.8612 120.368 53.4794 121.82 52.0976C121.898 52.0237 121.988 51.9448 122.095 51.9482C122.247 51.9531 122.344 52.1301 122.323 52.28C122.301 52.4299 122.199 52.5539 122.1 52.6686C120.903 54.0559 119.584 55.3378 118.163 56.4948C118.016 56.6142 117.853 56.7381 117.664 56.7395C117.475 56.7409 117.28 56.5473 117.356 56.3742V56.3742Z" fill="#E7EAEE"/>
<path fill-rule="evenodd" clip-rule="evenodd" d="M94.5881 74.7347C92.6945 76.68 90.785 78.6229 89.1539 80.7931C87.7073 82.7179 86.465 84.8369 84.6473 86.416C84.5649 86.4876 84.4609 86.5628 84.3562 86.5317C84.1553 86.4719 84.2379 86.1687 84.3598 85.9981C87.3451 81.8182 90.5959 77.8277 94.0858 74.0588C94.3454 73.7785 94.6626 73.4762 95.0434 73.5072C95.2664 73.9198 94.9153 74.3986 94.5881 74.7347Z" fill="#E7EAEE"/>
<path fill-rule="evenodd" clip-rule="evenodd" d="M82.3498 77.2581C82.1749 77.0983 82.3198 76.8122 82.4688 76.6279C83.6064 75.2199 84.7439 73.812 85.8815 72.4041C86.0011 72.2561 86.1306 72.1011 86.3109 72.0407C86.4913 71.9803 86.733 72.0636 86.7689 72.2504C86.7955 72.3893 86.7043 72.5207 86.6178 72.6326C85.4526 74.1408 84.239 75.6118 82.9798 77.0425C82.8154 77.2292 82.5334 77.4259 82.3498 77.2581H82.3498Z" fill="#E7EAEE"/>
<path fill-rule="evenodd" clip-rule="evenodd" d="M95.8846 79.6342C96.0355 79.8724 95.7799 80.1545 95.5565 80.3267C92.5717 82.6285 90.7616 86.1685 87.8725 88.5894C87.7484 88.6934 87.5888 88.8016 87.4371 88.7449C87.1368 88.6326 87.3422 88.1799 87.5756 87.9601C90.2799 85.4144 92.2063 82.0998 95.0733 79.7387C95.3128 79.5414 95.7184 79.3721 95.8846 79.6342V79.6342Z" fill="#E7EAEE"/>
<path fill-rule="evenodd" clip-rule="evenodd" d="M48.1117 27.5543C52.513 65.1384 47.5674 103.267 50.758 140.974C82.464 139.893 114.201 139.722 145.917 140.463C147.19 140.493 147.623 138.792 147.644 137.519C148.258 100.039 148.872 62.5584 149.485 25.0783C122.023 25.7797 94.5616 26.4811 67.0998 27.1826C61.4123 27.3278 55.6792 27.4699 50.0763 26.4815C82.9315 25.0818 115.804 24.0777 148.683 23.4695C149.386 23.4565 150.163 23.4697 150.686 23.9402C151.281 24.4754 151.312 25.3812 151.299 26.1812C150.653 66.7136 150.007 107.246 149.361 147.778C149.299 151.666 150.43 152.181 154.002 158.278C157.574 164.374 155.703 173.02 155.703 173.02C155.703 173.02 157.574 173.511 158.634 173.682C160.714 174.019 162.779 173.167 164.86 172.837C166.941 172.507 169.504 172.977 170.345 174.909C152.903 175.749 135.436 175.891 117.975 176.034C88.5166 176.274 59.0584 176.514 29.6001 176.755C33.3552 175.352 37.3643 174.634 41.3727 174.644C39.1983 169.821 39.9761 163.802 43.3053 159.691C45.3721 157.138 48.4991 154.855 48.4309 151.572C47.5722 110.239 47.4658 68.8908 48.1117 27.5543ZM117.645 163.876C107.654 163.649 97.7156 166.118 87.7386 165.537C83.6498 165.299 79.6011 164.549 75.5091 164.374C72.0773 164.227 68.6426 164.485 65.2173 164.743C57.8112 165.3 50.405 165.857 42.9989 166.415C42.6467 166.441 42.245 166.495 42.0482 166.788C41.8964 167.015 41.9195 167.311 41.9485 167.582C42.1568 169.529 42.3651 171.475 42.5734 173.422C42.619 173.848 42.6933 174.326 43.0408 174.577C43.3035 174.766 43.652 174.77 43.9758 174.767C46.7588 174.741 49.5418 174.715 52.3248 174.689C85.9641 174.371 119.603 174.053 153.243 173.736C153.584 173.733 153.961 173.716 154.211 173.484C154.461 173.253 154.506 172.881 154.536 172.542C154.747 170.17 154.959 167.797 155.17 165.425C146.874 165.92 138.539 165.764 130.267 164.958C126.063 164.549 121.868 163.972 117.645 163.876ZM80.8086 162.918C92.333 164.817 104.08 162.131 115.76 162.087C128.36 162.04 140.985 165.071 153.469 163.375C153.846 163.324 154.274 163.234 154.457 162.901C154.663 162.526 154.44 162.069 154.221 161.701C152.988 159.63 151.755 157.559 150.522 155.488C149.792 154.261 148.781 152.873 147.354 152.937C115.564 154.37 83.6579 152.526 51.9272 154.937C51.5703 154.983 51.2262 154.61 51.3024 154.258C48.509 157.729 45.4867 161.015 42.2615 164.089C55.0919 165.331 68.0897 160.822 80.8086 162.918ZM112.953 141.725C109.654 141.789 106.364 142.088 103.071 142.314C91.9073 143.08 80.7031 143.012 69.5146 142.804C63.0766 142.684 56.6396 142.518 50.2027 142.352C49.8209 144.424 49.4413 146.578 49.9831 148.614C50.5248 150.651 52.2723 152.53 54.3792 152.497C85.3587 152.004 116.338 151.51 147.318 151.017C147.401 148.93 147.484 146.842 147.566 144.754C147.584 144.305 147.577 143.792 147.243 143.491C146.983 143.257 146.604 143.227 146.255 143.209C138.449 142.807 130.643 142.404 122.837 142.001C119.545 141.831 116.249 141.661 112.953 141.725Z" fill="#00160A"/>
</svg>
