<svg width="200" height="200" viewBox="0 0 200 200" fill="none" xmlns="http://www.w3.org/2000/svg">
<rect width="200" height="200" fill="white"/>
<path fill-rule="evenodd" clip-rule="evenodd" d="M19.1493 88.8125C24.0454 58.0554 115.161 19.3426 163.085 43.6586C211.009 67.9746 148.86 89.9814 153.432 140.586C156.604 175.693 102.9 178.048 60.2453 159.35C34.3969 148.019 15.5742 111.271 19.1493 88.8125Z" fill="#E5F7F9"/>
<g clip-path="url(#clip0_497_6386)">
<path fill-rule="evenodd" clip-rule="evenodd" d="M152.621 37.9993C153.579 37.9919 154.209 38.3631 154.435 39.1394C154.547 39.5261 154.488 39.9515 154.492 40.3595C154.5 41.4083 154.514 42.4572 154.499 43.5058C154.489 44.1589 154.429 44.8115 154.393 45.4644C154.386 45.5886 154.384 45.7131 154.384 45.8375C154.384 47.2064 154.396 48.5753 154.381 49.944C154.355 52.3446 154.313 54.745 154.274 57.1455C154.241 59.1385 154.201 61.1315 154.165 63.1246C154.128 65.1489 154.092 67.1733 154.055 69.1976C154.019 71.1907 153.988 73.1838 153.944 75.1767C153.918 76.3549 153.864 77.5327 153.84 78.711C153.823 79.531 153.847 80.3517 153.834 81.1719C153.804 83.1963 153.769 85.2207 153.725 87.2449C153.7 88.4075 153.644 89.5696 153.621 90.7322C153.604 91.568 153.631 92.4044 153.614 93.2401C153.591 94.387 153.534 95.5335 153.511 96.6804C153.494 97.5632 153.522 98.4466 153.504 99.3293C153.483 100.382 153.424 101.435 153.402 102.488C153.384 103.339 153.409 104.191 153.396 105.042C153.366 107.114 153.327 109.185 153.288 111.257C153.255 113.03 153.22 114.804 153.178 116.577C153.148 117.865 153.096 119.153 153.073 120.441C153.056 121.433 153.084 122.426 153.066 123.419C153.047 124.44 152.983 125.461 152.964 126.483C152.946 127.46 152.974 128.437 152.956 129.414C152.939 130.342 152.872 131.269 152.855 132.196C152.837 133.189 152.862 134.182 152.848 135.174C152.82 137.23 152.779 139.286 152.741 141.341C152.707 143.146 152.708 144.953 152.62 146.756C152.537 148.49 153.002 150.098 154.006 151.579C155.029 153.087 156.126 154.559 157.213 156.034C158.288 157.492 159.231 159.01 159.73 160.684C160.087 161.879 160.139 163.12 159.739 164.33C159.602 164.743 158.768 167.597 159.478 168.338C160.389 169.29 161.541 169.717 162.96 169.745C164.343 169.772 165.656 169.483 166.981 169.22C168.592 168.899 170.21 168.668 171.833 169.173C172.64 169.425 173.368 169.78 173.846 170.422C173.918 170.52 174.095 170.684 173.709 170.686C172.775 170.69 171.841 170.74 170.907 170.771C169.039 170.834 167.172 170.898 165.303 170.958C164.224 170.993 163.144 171.023 162.063 171.053C160.856 171.086 159.648 171.118 158.44 171.147C157.032 171.18 155.623 171.213 154.215 171.24C152.459 171.275 150.704 171.307 148.949 171.334C146.792 171.369 144.635 171.402 142.478 171.428C139.609 171.463 136.741 171.488 133.872 171.524C131.916 171.549 129.96 171.587 128.004 171.616C127.669 171.622 127.334 171.615 126.999 171.618C122.962 171.648 118.926 171.68 114.889 171.711C114.536 171.714 114.183 171.709 113.83 171.712C109.701 171.742 105.573 171.774 101.445 171.805C101.074 171.808 100.703 171.803 100.331 171.806C96.2398 171.836 92.1483 171.868 88.0567 171.899C87.7037 171.902 87.3506 171.897 86.9975 171.9C82.8694 171.93 78.7414 171.962 74.6133 171.993C74.2785 171.995 41.8054 171.991 41.4707 171.995C40.941 171.998 38.68 168.504 41.7647 160.684C42.4497 158.948 44.8573 155.771 48.9873 151.155C48.425 77.1112 48.425 40.0809 48.9873 40.0638C49.9032 40.0361 50.8187 40 51.7346 39.9709C53.7485 39.907 74.8276 39.8471 76.8415 39.7814C77.6115 39.7563 78.3807 39.7123 79.1508 39.6901C80.4495 39.6526 81.7489 39.6288 83.0477 39.5933C84.0002 39.5673 84.9521 39.5294 85.9045 39.5009C87.0391 39.4671 88.1741 39.4403 89.3087 39.4054C90.1881 39.3784 91.067 39.3369 91.9465 39.3138C93.3548 39.2768 94.7636 39.2522 96.172 39.2174C97.2704 39.1903 98.3685 39.1541 99.4668 39.1246C100.693 39.0916 101.919 39.0615 103.145 39.0302C104.371 38.9988 105.597 38.9668 106.823 38.9363C108.122 38.9041 109.421 38.8739 110.72 38.842C111.97 38.8112 113.221 38.7779 114.472 38.7485C115.88 38.7154 117.289 38.6855 118.697 38.654C120.087 38.6229 121.478 38.5907 122.868 38.5602C124.331 38.5281 125.795 38.4976 127.258 38.4659C128.685 38.4349 130.112 38.4143 131.538 38.3684C132.627 38.3333 133.714 38.2624 134.802 38.217C134.963 38.2102 135.127 38.2768 135.29 38.2748C137.538 38.248 139.786 38.2182 142.034 38.1829C143.717 38.1565 145.399 38.12 147.081 38.0902C148.928 38.0574 150.774 38.0164 152.621 37.9993ZM57.2116 121.636C56.0272 125.263 58.0267 135.725 56.5625 140.304C56.5625 140.719 64.3552 140.587 79.9408 139.909C81.5656 136.663 82.1387 133.861 81.6599 131.502C81.4809 130.62 78.4242 131.204 78.2747 130.509C77.8243 128.414 80.3043 125.63 79.2572 123.761C77.9914 123.761 76.358 121.529 72.8888 121.195C69.4196 120.861 60.1224 121.636 57.2116 121.636ZM122.807 120.12C121.636 121.221 117.59 123.293 116.324 123.293C115.277 125.162 117.757 127.946 117.306 130.041C117.157 130.736 114.1 130.153 113.921 131.035C113.442 133.393 113.993 136.327 115.573 139.836C131.203 140.251 139.018 140.251 139.018 139.836C137.832 135.514 139.35 123.54 138.165 119.912L137.958 119.912C134.849 119.907 126.198 119.793 122.807 120.12Z" fill="white"/>
</g>
<path fill-rule="evenodd" clip-rule="evenodd" d="M55.1221 39.6877C56.2177 44.9357 56.2224 50.342 56.2226 55.7031C56.2236 83.4163 56.2247 111.13 56.2257 138.843C56.2257 139.288 56.2153 139.768 55.952 140.127C55.6888 140.487 55.0704 140.609 54.8138 140.245C54.6897 140.069 54.6846 139.838 54.6842 139.622C54.6254 110.69 54.5667 81.7586 54.5079 52.8268C54.499 48.4382 54.4914 44.0308 55.1221 39.6877H55.1221Z" fill="#00160A"/>
<path fill-rule="evenodd" clip-rule="evenodd" d="M55.6953 37.2825C58.6352 37.9608 61.0952 40.8614 64.0599 40.3015C66.5167 39.8376 67.9823 37.1587 70.3493 36.3534C74.8331 34.8281 80.0029 40.5872 83.9657 37.9935C84.6846 37.5229 85.2384 36.8186 85.9963 36.414C89.2364 34.6846 93.4282 39.337 96.5576 37.4143C97.2832 36.9685 97.7868 36.2287 98.497 35.7586C101.548 33.7393 105.312 37.73 108.961 37.4703C112.295 37.2331 115.094 33.4452 118.274 34.4742C119.592 34.9006 120.551 36.0959 121.866 36.5299C124.73 37.4746 127.829 34.4895 130.674 35.4902C131.616 35.8216 132.388 36.5631 133.359 36.7962C134.565 37.0857 135.801 36.5367 136.896 35.9549C137.991 35.3732 139.141 34.7243 140.379 34.8018C141.617 34.8793 142.861 36.0706 142.474 37.2487C141.577 39.9793 141.471 42.897 141.372 45.7694C140.315 76.4213 139.258 107.073 138.202 137.725C137.48 137.684 137.288 136.717 137.305 135.995C138.056 103.24 138.807 70.4852 139.558 37.7304C138.125 36.9219 136.594 38.7172 134.968 38.9681C133.266 39.2306 131.813 37.7652 130.147 37.3329C126.991 36.5144 123.432 39.4566 120.593 37.854C119.631 37.3107 118.951 36.3102 117.916 35.9241C115.023 34.8457 112.864 39.0542 109.843 39.6919C106.567 40.3834 103.655 36.6617 100.336 37.1015C97.2638 37.5086 94.9594 41.3752 91.9735 40.5441C89.9682 39.986 88.5073 37.3737 86.5103 37.9606C85.3558 38.2999 84.7815 39.5856 83.8069 40.2914C82.2769 41.3992 80.1199 40.8677 78.4352 40.0135C76.7504 39.1593 75.1084 37.9983 73.2204 37.938C70.4381 37.8492 68.2025 40.137 65.58 41.0709C61.961 42.3596 57.526 40.6599 55.6953 37.2825Z" fill="#00160A"/>
<path fill-rule="evenodd" clip-rule="evenodd" d="M95.3623 42.2503C95.3895 42.9256 94.8679 43.4827 94.3829 43.9534C92.4853 45.7953 90.5846 47.6422 88.8895 49.672C86.8314 52.1364 85.0615 54.8843 82.5925 56.9369C82.332 56.6303 82.5793 56.1694 82.8265 55.852C86.4166 51.2426 90.2829 46.8483 94.3977 42.7006C94.6606 42.4356 95.0031 42.1489 95.3623 42.2503V42.2503Z" fill="#E7EAEE"/>
<path fill-rule="evenodd" clip-rule="evenodd" d="M121.757 102.273C121.473 102.473 121.118 102.662 120.793 102.537C120.916 102.167 121.159 101.851 121.404 101.547C124.401 97.8357 128.223 94.8925 132.006 91.9862C132.347 91.7246 132.795 91.4509 133.175 91.6512C133.14 91.9713 132.894 92.2226 132.657 92.4404C130.433 94.4843 127.775 96.0344 125.685 98.2152C124.38 99.5777 123.298 101.184 121.757 102.273Z" fill="#E7EAEE"/>
<path fill-rule="evenodd" clip-rule="evenodd" d="M60.0459 72.5342C60.2254 72.1603 60.727 72.108 61.1417 72.1072C65.5353 72.0989 69.9289 72.0906 74.3225 72.0823C74.3524 62.6955 74.2163 53.3082 73.9141 43.9263C73.9036 43.5982 73.8992 43.2462 74.0803 42.9724C74.2615 42.6987 74.7047 42.5792 74.9172 42.8294C75.0734 52.6241 75.2295 62.4189 75.3856 72.2136C75.39 72.4886 75.3887 72.7837 75.2326 73.0102C74.9833 73.372 74.4685 73.3988 74.0293 73.3891C69.9639 73.3002 65.8986 73.2113 61.8332 73.1224C61.1833 73.1082 60.4416 73.0499 60.0459 72.5342Z" fill="#00160A"/>
<path fill-rule="evenodd" clip-rule="evenodd" d="M46.8914 28.8424C52.1369 65.8413 46.2859 103.615 49.9581 140.803C81.4542 140.62 112.95 140.436 144.446 140.253C145.195 140.249 146.041 140.202 146.534 139.639C146.943 139.171 146.974 138.492 146.984 137.87C147.599 100.262 148.214 62.6546 148.829 25.0467C124.786 25.6944 100.743 26.3421 76.6992 26.9898C67.6893 27.2325 58.6461 27.474 49.6864 26.4932C82.2314 24.9198 114.804 23.9114 147.384 23.4687C148.32 23.456 149.364 23.4848 150.031 24.1424C150.712 24.8143 150.74 25.886 150.724 26.8427C150.096 63.991 149.468 101.139 148.84 138.288C148.742 144.096 148.701 150.167 151.31 155.357C153.357 159.43 157.072 163.491 155.758 167.856C155.438 168.921 154.815 169.944 154.897 171.053C155.111 173.933 159.204 174.304 162.015 173.645C164.827 172.985 168.759 172.752 169.604 175.513C123.123 176.554 76.626 176.937 30.1333 176.661C33.4456 175.582 36.9039 174.952 40.384 174.794C38.4507 170.468 38.956 165.145 41.6689 161.26C43.1961 159.073 45.3745 157.295 46.3604 154.817C47.08 153.008 47.0869 151.006 47.0837 149.059C47.0196 108.987 46.9555 68.9146 46.8914 28.8424ZM112.163 164.4C104.353 164.67 96.591 166.151 88.7805 165.895C85.2663 165.78 81.7735 165.313 78.2658 165.07C69.6619 164.472 61.0275 165.216 52.4349 165.959C49.0165 166.254 45.5981 166.55 42.1797 166.846C41.8583 166.874 41.5087 166.914 41.2797 167.141C40.9851 167.434 41.0084 167.908 41.0521 168.321C41.2419 170.112 41.4318 171.903 41.6216 173.694C41.6652 174.106 41.7305 174.56 42.0474 174.827C42.3409 175.074 42.7607 175.083 43.1445 175.08C79.5696 174.75 115.995 174.421 152.42 174.092C152.824 174.088 153.268 174.069 153.564 173.794C153.858 173.52 153.909 173.081 153.943 172.681C154.14 170.343 154.337 168.005 154.534 165.667C140.489 167.394 126.306 163.911 112.163 164.4ZM86.3096 163.724C96.2972 164.184 106.26 162.327 116.258 162.402C128.552 162.496 140.893 165.505 153.04 163.607C153.326 163.562 153.642 163.496 153.808 163.259C154.047 162.917 153.834 162.453 153.62 162.094C152.291 159.865 150.962 157.635 149.632 155.406C149.304 154.857 148.955 154.285 148.405 153.957C147.811 153.603 147.081 153.593 146.389 153.592C114.357 153.573 82.3258 153.996 50.306 154.86C47.5194 158.171 44.5607 161.336 41.4457 164.34C51.6655 165.56 61.9302 162.556 72.2214 162.708C76.9302 162.777 81.6053 163.507 86.3096 163.724ZM48.8751 147.936C49.1208 149.804 50.1657 151.682 51.9107 152.392C52.9105 152.799 54.024 152.787 55.1031 152.77C85.6064 152.273 116.11 151.777 146.613 151.281C146.73 149.255 146.847 147.229 146.964 145.203C146.983 144.878 146.995 144.527 146.814 144.256C146.575 143.896 146.091 143.81 145.661 143.758C113.797 139.871 81.419 145.307 49.4554 142.346C49.0436 144.184 48.6293 146.069 48.8751 147.936Z" fill="#00160A"/>
<path fill-rule="evenodd" clip-rule="evenodd" d="M94.8278 49.6719C95.0139 49.502 95.2079 49.3288 95.4459 49.2461C95.684 49.1633 95.9796 49.1932 96.1441 49.3842C96.0463 49.8054 95.6776 50.0989 95.3407 50.37C92.1311 52.9528 89.8284 56.5078 86.6973 59.1852C86.4677 59.3815 86.0606 59.5463 85.9191 59.2794C85.8217 59.0956 85.9695 58.8819 86.1084 58.7271C88.9079 55.6068 91.7324 52.4989 94.8278 49.6719Z" fill="#E7EAEE"/>
<path fill-rule="evenodd" clip-rule="evenodd" d="M59.0703 104.99C59.0659 104.443 59.5528 104.037 59.9899 103.708C62.6781 101.688 65.1707 99.4076 67.4216 96.9093C67.6215 96.6873 68.0253 96.9514 68.0267 97.2501C68.028 97.5488 67.7992 97.7921 67.5855 98.0009C65.3173 100.218 63.0409 102.442 60.5043 104.346C60.0775 104.666 59.604 104.991 59.0703 104.99Z" fill="#E7EAEE"/>
<path fill-rule="evenodd" clip-rule="evenodd" d="M76.428 42.7344C76.718 42.5862 77.0536 42.529 77.3763 42.5727C77.6681 52.3166 77.907 62.0622 78.093 71.8088C88.8847 71.4758 99.6907 71.6093 110.471 72.2088C111.428 62.1853 111.405 52.0963 111.314 42.0277C111.312 41.7653 111.314 41.4879 111.448 41.2625C111.582 41.037 111.9 40.8993 112.116 41.0484C112.302 41.1774 112.325 41.4394 112.33 41.6663C112.543 51.9533 112.267 62.2504 111.502 72.5112C111.487 72.7182 111.467 72.9384 111.34 73.1028C111.128 73.3778 110.722 73.3823 110.375 73.3621C99.2849 72.7158 88.1623 72.6253 77.063 73.0911C77.0419 62.9694 76.8302 52.8481 76.428 42.7344Z" fill="#00160A"/>
<path fill-rule="evenodd" clip-rule="evenodd" d="M112.993 140.129C111.326 136.599 110.684 132.592 111.167 128.718C111.183 128.586 111.204 128.447 111.291 128.347C111.332 132.043 112.001 135.732 113.261 139.207C113.326 139.387 113.394 139.575 113.367 139.765C113.341 139.954 113.184 140.141 112.993 140.129H112.993Z" fill="#00160A"/>
<path fill-rule="evenodd" clip-rule="evenodd" d="M120.315 94.0339C122.186 92.2286 124.057 90.4232 125.929 88.6179C126.123 88.4299 126.474 88.6819 126.47 88.9526C126.466 89.2233 126.258 89.4419 126.064 89.6308C124.497 91.1557 122.93 92.6806 121.363 94.2055C121.161 94.402 120.927 94.6118 120.645 94.6077C120.363 94.6035 120.113 94.2296 120.315 94.0339H120.315Z" fill="#E7EAEE"/>
<path fill-rule="evenodd" clip-rule="evenodd" d="M80.5616 128.716C85.3259 128.733 90.086 128.458 94.8425 128.184C100.353 127.866 105.863 127.548 111.373 127.23C112.602 127.159 113.881 127.074 114.953 126.468C113.707 125.012 112.874 123.206 112.575 121.314C112.546 121.132 112.524 120.935 112.609 120.772C112.694 120.609 112.929 120.513 113.069 120.632C113.318 122.686 114.128 124.668 115.388 126.308C115.644 126.641 115.202 127.066 114.813 127.22C113.468 127.755 111.994 127.841 110.549 127.921C106.3 128.156 102.05 128.391 97.8012 128.626C92.4099 128.925 87.0183 129.223 81.6227 129.429C80.5678 129.469 79.3267 129.418 78.7248 128.551C78.2242 127.829 78.3991 126.855 78.6059 126.001C78.937 124.634 79.2979 123.275 79.688 121.923C79.7996 121.537 80.0234 121.068 80.4249 121.09C79.6086 122.973 79.1766 125.022 79.1629 127.074C79.1591 127.633 79.2411 128.288 79.7251 128.566C79.9736 128.709 80.2749 128.714 80.5616 128.716Z" fill="#00160A"/>
<path fill-rule="evenodd" clip-rule="evenodd" d="M80.3165 51.8255C80.0157 51.6906 80.1866 51.2355 80.3955 50.9804C82.7845 48.0622 85.1736 45.144 87.5627 42.2257C87.6627 42.1035 87.769 41.9766 87.9154 41.9172C88.0617 41.8578 88.2595 41.8933 88.3294 42.0349C88.4098 42.1978 88.2876 42.3837 88.172 42.5238C85.78 45.4225 83.388 48.3212 80.996 51.2199C80.8011 51.4562 80.596 51.7003 80.3165 51.8255H80.3165Z" fill="#E7EAEE"/>
<path fill-rule="evenodd" clip-rule="evenodd" d="M47.1284 28.6958C47.0856 28.3663 47.074 28.0328 47.0939 27.7011C47.097 27.6477 47.1084 27.5837 47.1582 27.5639C47.2402 27.5313 47.2953 27.6496 47.3046 27.7374C47.34 28.0714 47.3604 28.4528 47.1284 28.6958H47.1284Z" fill="#00160A"/>
<path fill-rule="evenodd" clip-rule="evenodd" d="M131.959 73.2232C125.847 73.2824 119.735 73.3417 113.624 73.401C113.453 73.4027 113.266 73.3986 113.137 73.2872C112.987 73.1584 112.971 72.9366 112.967 72.7393C112.724 62.5244 113.09 52.3059 113.456 42.0947C113.467 41.7777 113.487 41.4372 113.683 41.1878C113.878 40.9384 114.32 40.8648 114.496 41.129C114.045 51.2704 113.819 61.4217 113.818 71.5731C113.818 71.8799 113.921 72.2937 114.227 72.282C121.174 72.0166 128.13 72.0147 135.076 72.2763C135.218 72.2817 135.384 72.3013 135.454 72.4247C135.574 72.6362 135.29 72.8456 135.056 72.9129C134.056 73.2009 133 73.2131 131.959 73.2232Z" fill="#00160A"/>
<path fill-rule="evenodd" clip-rule="evenodd" d="M34.8919 130.002C34.7826 129.893 34.6734 129.785 34.5641 129.676C34.5056 129.618 34.444 129.527 34.4951 129.462C34.5545 129.387 34.6727 129.454 34.7402 129.522C34.8409 129.623 34.9415 129.724 35.0422 129.825C35.1096 129.893 35.1753 130.012 35.0989 130.07C35.0352 130.117 34.9483 130.058 34.8919 130.002L34.8919 130.002Z" fill="#00160A"/>
<path fill-rule="evenodd" clip-rule="evenodd" d="M65.213 84.9968C65.2778 85.1199 65.2309 85.2715 65.1673 85.3953C65.0206 85.6811 64.7941 85.9167 64.568 86.145C64.1248 86.5926 63.6706 87.0293 63.2059 87.4546C63.0484 87.5987 62.8766 87.748 62.6655 87.7791C62.4543 87.8103 62.204 87.6632 62.2111 87.4498C62.2152 87.327 62.2988 87.2231 62.3793 87.1302C63.0154 86.3954 63.7091 85.7106 64.452 85.084C64.5648 84.9889 64.6839 84.8925 64.8271 84.8571C64.9702 84.8218 65.1442 84.8663 65.213 84.9968Z" fill="#E7EAEE"/>
<path fill-rule="evenodd" clip-rule="evenodd" d="M61.4966 68.4354C61.4498 68.4335 61.4483 68.3462 61.495 68.3427C61.5419 68.346 61.5405 68.4338 61.4935 68.4356L61.4966 68.4354Z" fill="#00160A"/>
<path fill-rule="evenodd" clip-rule="evenodd" d="M61.0795 92.8069C61.0271 92.6221 61.1776 92.4458 61.3223 92.3195C61.6436 92.039 61.9973 91.7985 62.3435 91.5495C63.6437 90.6144 64.8501 89.549 65.9389 88.3746C66.0649 88.2388 66.1942 88.0978 66.3631 88.0218C66.532 87.9459 66.7531 87.9525 66.8788 88.0885C66.9985 88.2181 66.9955 88.4261 66.919 88.5851C66.8426 88.7441 66.7071 88.8654 66.575 88.9823C65.649 89.802 64.7229 90.6217 63.7969 91.4414C63.1905 91.9782 62.5767 92.5202 61.8617 92.9006C61.728 92.9718 61.5852 93.0384 61.4337 93.0383C61.2823 93.0382 61.1208 92.9526 61.0795 92.8069H61.0795Z" fill="#E7EAEE"/>
<path fill-rule="evenodd" clip-rule="evenodd" d="M119.451 88.568C119.32 88.7083 119.187 88.8558 119.011 88.9312C118.835 89.0067 118.601 88.9869 118.487 88.8325C118.304 88.5841 118.545 88.2504 118.771 88.0408C120.121 86.7906 121.535 85.6093 123.006 84.5032C123.283 84.2948 123.632 84.0785 123.953 84.2091C123.988 84.2233 124.025 84.2448 124.037 84.2807C124.046 84.3093 124.038 84.3406 124.029 84.3692C123.886 84.8066 123.511 85.1206 123.15 85.4058C121.876 86.413 120.557 87.379 119.451 88.568Z" fill="#E7EAEE"/>
<path fill-rule="evenodd" clip-rule="evenodd" d="M81.8716 130.352C82.1042 131.411 82.467 133.178 82.34 134.255C82.1111 136.195 81.5812 137.589 81.1505 139.495C81.0817 139.8 80.6776 140.005 80.3887 140.124C80.2102 139.877 80.2857 139.535 80.3658 139.241C81.1562 136.337 81.6613 133.355 81.8716 130.352Z" fill="#00160A"/>
<path fill-rule="evenodd" clip-rule="evenodd" d="M98.9228 139.791C98.7699 139.959 98.497 139.803 98.3343 139.645C97.3968 138.732 96.5493 137.727 95.8079 136.649C95.7721 136.597 95.6952 136.659 95.6663 136.715C95.1252 137.766 94.584 138.817 94.0429 139.868C94.0198 139.913 93.9882 139.964 93.9377 139.968C93.8356 139.976 93.8347 139.816 93.8756 139.722C94.4067 138.503 94.9377 137.284 95.4688 136.065C95.493 136.01 95.5185 135.953 95.5639 135.913C95.7379 135.759 95.9915 135.967 96.128 136.155C96.9209 137.244 97.7989 138.27 98.7516 139.223C98.9071 139.378 99.0709 139.629 98.9228 139.791Z" fill="#00160A"/>
<path fill-rule="evenodd" clip-rule="evenodd" d="M58.8524 112.141C58.6457 112.437 58.659 112.829 58.6803 113.189L58.909 117.042C58.9356 117.489 58.9875 117.989 59.3312 118.276C59.652 118.543 60.1144 118.529 60.5311 118.502L68.7349 117.956C71.1042 117.798 73.6887 117.698 75.6175 119.083C79.1948 121.651 84.7467 120.85 87.451 117.374C87.7681 116.966 88.3574 116.923 88.8737 116.915L104.451 116.659L104.492 116.659C105.195 116.647 106.113 116.632 106.452 117.163C109.336 121.692 116.866 120.841 120.606 117.191C121.326 116.489 122.419 116.378 123.421 116.305L133.31 115.591C134.461 115.507 135.328 114.408 135.54 113.275C135.752 112.141 135.46 110.98 135.171 109.864C135.082 109.519 134.968 109.14 134.662 108.957C134.437 108.822 134.158 108.826 133.896 108.835L113.222 109.511C112.821 98.1673 113.022 86.8021 113.824 75.4793C121.414 75.1128 129.015 74.987 136.613 75.1023C136.841 74.4822 135.898 74.1427 135.238 74.1594L114.05 74.697C113.684 74.7063 113.28 74.7305 113.018 74.9859C112.756 75.2411 112.72 75.6432 112.701 76.0086C112.115 87.2076 111.938 98.4281 112.17 109.64C111.741 109.711 111.292 109.655 110.893 109.481L111.055 75.6681C111.056 75.3644 111.039 75.0187 110.807 74.8231C110.621 74.6668 110.356 74.6593 110.113 74.6596C99.0624 74.6715 88.0116 74.8203 76.9643 75.1061L77.5767 110.799L76.1432 110.97C75.5928 99.1882 75.402 87.3896 75.5711 75.5962C75.5804 74.9466 74.726 74.7114 74.0769 74.683C69.1815 74.4683 64.277 74.4635 59.3813 74.6685C60.1233 75.462 61.334 75.54 62.4201 75.5651L74.587 75.8457C74.3909 87.4891 74.5638 99.1387 75.1055 110.771L60.174 111.647C59.6872 111.676 59.1316 111.741 58.8524 112.141ZM78.0082 75.678C88.6307 75.6224 99.253 75.5219 109.875 75.3766C110.094 75.3736 110.163 75.6692 110.161 75.8885L109.844 109.654L78.5797 110.858C78.2906 99.1331 78.1001 87.4059 78.0082 75.678ZM82.3924 113.763C81.7829 113.787 81.2879 114.254 80.9081 114.732C80.8475 114.808 80.7877 114.885 80.7277 114.963C80.4114 115.374 80.0904 115.79 79.6327 116.021C79.2051 116.237 78.71 116.263 78.2315 116.284L59.9135 117.108L59.5795 112.757C84.2915 111.371 109.024 110.348 133.766 109.69C133.936 109.685 134.122 109.686 134.253 109.794C134.409 109.924 134.425 110.153 134.429 110.356L134.507 114.5C128.718 115.349 122.856 115.536 117.008 115.722C116.188 115.748 115.312 115.76 114.62 115.32C114.148 115.021 113.826 114.551 113.507 114.086C113.432 113.976 113.357 113.867 113.28 113.761C112.878 113.2 112.337 112.652 111.649 112.596C110.961 112.539 110.233 113.271 110.54 113.89C109.908 113.057 108.287 113.558 108.237 114.602C108.039 113.809 107.027 113.343 106.296 113.707C105.564 114.071 105.327 115.16 105.841 115.796L88.0213 116.107C88.0446 115.463 87.5382 114.841 86.9025 114.734C86.2667 114.626 85.5838 115.046 85.3936 115.662C85.4093 114.688 83.8816 114.169 83.3008 114.952C83.614 114.428 83.002 113.739 82.3924 113.763ZM110.646 119.235C109.742 119.037 108.806 118.755 108.162 118.09C107.835 117.752 107.605 117.334 107.378 116.921L106.511 115.347C106.408 115.159 106.301 114.955 106.329 114.743C106.356 114.53 107.032 113.884 107.634 114.602C108.237 115.32 108.458 115.605 108.922 116.505C108.961 116.58 108.999 116.657 109.038 116.735C109.348 117.357 109.694 118.051 110.36 118.088C110.488 117.602 110.267 117.1 110.05 116.647L109.447 115.381C109.255 114.979 109.071 114.475 109.336 114.117C110.719 114.584 111.491 116.024 112.086 117.357C112.161 117.525 112.24 117.699 112.384 117.813C112.528 117.927 112.758 117.956 112.887 117.825C113.057 117.653 112.948 117.366 112.834 117.153C112.268 116.093 111.767 114.998 111.338 113.875C111.288 113.744 111.243 113.582 111.333 113.474C111.442 113.343 111.652 113.398 111.805 113.473C112.751 113.936 113.514 114.764 113.897 115.746C113.926 115.821 113.954 115.898 113.981 115.975C114.071 116.225 114.161 116.476 114.32 116.687C114.81 117.337 115.747 117.391 116.561 117.387C116.781 117.386 117.01 117.383 117.21 117.29C117.41 117.197 117.574 116.987 117.54 116.769C117.507 116.564 117.794 116.481 118.002 116.483L120.569 116.506C119.282 118.042 117.215 118.628 115.277 119.136C114.728 119.28 114.177 119.424 113.613 119.486C112.622 119.596 111.62 119.449 110.646 119.235ZM74.3221 117.732C75.1561 117.557 76.0017 117.438 76.8516 117.375C76.7829 117.667 76.9796 117.967 77.2349 118.125C77.8303 118.492 78.6379 118.234 79.1571 117.765C79.507 117.449 79.7692 117.055 80.0318 116.661C80.1588 116.47 80.2859 116.279 80.423 116.097C80.9665 115.375 82.4237 113.731 82.7122 114.5C82.8818 114.952 82.462 115.789 81.9946 116.72C81.6664 117.374 81.3148 118.075 81.1271 118.722C81.7139 118.276 81.9599 117.867 82.2203 117.357C82.5207 116.769 83.1436 115.943 83.6288 115.347C83.8473 115.078 84.1728 114.918 84.4812 115.056C84.7896 115.193 84.8815 115.567 84.8 115.746C84.609 116.167 84.4879 116.476 84.3669 116.786C84.2459 117.095 84.1248 117.405 83.9338 117.825C83.9217 117.852 83.9028 117.89 83.88 117.936C83.7652 118.168 83.5531 118.597 83.6288 118.724C83.7066 118.855 83.919 118.629 84.1355 118.398C84.1866 118.343 84.2379 118.289 84.2878 118.238C84.3639 118.162 84.493 117.934 84.662 117.637C85.0727 116.914 85.7185 115.778 86.4098 115.381C86.9768 115.056 87.227 115.889 87.1081 116.14C86.889 116.603 86.6561 117.06 86.4098 117.509C86.0831 118.105 85.4553 118.701 84.9282 119.13C84.2586 119.675 83.3842 119.899 82.5281 120.011C79.5522 120.4 76.7013 119.561 74.3221 117.732ZM78.0082 117.956C77.5709 117.998 77.2349 117.375 77.2349 117.375L79.0343 117.244C79.0343 117.244 78.4454 117.914 78.0082 117.956Z" fill="#00160A"/>
<defs>
<clipPath id="clip0_497_6386">
<rect width="134" height="134" fill="white" transform="translate(40 38)"/>
</clipPath>
</defs>
</svg>
