<svg width="200" height="200" viewBox="0 0 200 200" fill="none" xmlns="http://www.w3.org/2000/svg">
<rect width="200" height="200" fill="white"/>
<path fill-rule="evenodd" clip-rule="evenodd" d="M170.024 160.598C166.019 125.633 188.639 54.9443 153.864 36.0359C99.9191 6.70468 21.269 47.6721 26.6633 113.824C30.4774 160.598 174.553 200.139 170.024 160.598Z" fill="#E5F7F9"/>
<path d="M117.593 52.3806C117.459 51.9881 117.305 51.6288 117.254 51.2555C117.15 50.4872 117.066 49.7127 117.037 48.9385C116.977 47.3317 116.958 45.4568 116.923 43.8491C116.918 43.604 116.87 43.3534 117.264 43.3395C117.66 43.3256 119.547 42.1217 119.547 43.0357C119.547 44.9329 119.811 47.8368 119.977 49.7011C120.031 50.3034 120.281 50.7943 120.294 51.4937C120.316 52.6726 118.234 52.3667 117.593 52.3806Z" fill="white"/>
<path fill-rule="evenodd" clip-rule="evenodd" d="M91.2859 35.2475C90.8719 35.2832 90.4583 35.3453 90.0439 35.3506C87.4743 35.3832 84.9043 35.4004 82.3347 35.4327C82.1807 35.4346 81.4935 35.4366 81.3395 35.4387C80.6654 35.4477 79.9913 35.4578 79.3173 35.4697C79.002 35.4752 79.2202 35.4848 78.9051 35.4971C77.7844 35.5409 76.6644 35.6197 75.544 35.677C74.9154 35.7091 74.286 35.7345 73.6589 35.7862C72.0201 35.9215 63.9827 36.3402 62.344 36.4762C61.9572 36.5083 61.7352 36.6045 61.7672 37.0806C61.8393 38.1533 61.8668 57.8966 61.8755 58.9719C61.8781 59.2876 61.9657 59.3572 62.2586 59.3324C63.2464 59.2485 70.6358 58.917 71.6247 58.8468C72.6492 58.7741 73.6733 58.6938 74.6985 58.6345C76.0978 58.5535 77.4981 58.4922 78.8975 58.4142C79.0985 58.403 79.2958 58.3376 79.4967 58.3119C80.3631 58.2012 81.2288 58.0832 82.0973 57.9924C82.9415 57.9041 83.7878 57.8313 84.6348 57.7773C86.4658 57.6604 88.2969 57.5363 90.1299 57.4596C91.7753 57.3907 93.4233 57.382 95.0701 57.3451C96.6098 57.3106 98.1494 57.2713 99.6891 57.2388C101.515 57.2003 103.34 57.1621 105.166 57.1321C107.616 57.0918 110.067 57.0652 112.518 57.0213C113.736 56.9995 114.954 56.9542 116.172 56.9159C117.212 56.8831 118.251 56.8319 119.29 56.8119C121.598 56.7676 123.906 56.7352 126.214 56.7027C128.951 56.6641 131.688 56.6477 134.424 56.5889C136.343 56.5478 141.194 56.4551 143.111 56.3705C143.205 56.3663 143.369 56.2199 143.371 56.137C143.389 55.2262 143.382 35.6482 143.383 34.7369C143.383 34.3508 143.16 34.1328 142.812 34.0754C142.403 34.0081 141.986 33.9774 141.571 33.9643C140.157 33.9194 135.808 33.8543 134.394 33.8598C129.263 33.8797 124.132 33.9194 119.001 33.9631C118.43 33.968 117.858 33.9727 117.287 33.9779C115.247 33.9963 113.206 34.0207 111.166 34.0802C109.904 34.1169 108.647 34.2912 107.386 34.3874C105.859 34.5041 104.331 34.605 102.803 34.7109C102.246 34.7495 101.689 34.782 101.132 34.8188C99.5145 34.9255 97.8985 35.0612 96.2797 35.1324C94.6523 35.204 93.0221 35.2117 91.2859 35.2475Z" fill="white"/>
<path fill-rule="evenodd" clip-rule="evenodd" d="M59.0651 27.0458C58.3553 26.977 57.6521 26.8387 56.9462 26.7297C56.8982 26.7223 56.853 26.6968 56.8064 26.6797C56.8508 26.661 56.8938 26.6373 56.9399 26.6254C56.9734 26.6168 57.0109 26.6244 57.0467 26.6236C58.5687 26.588 60.0912 26.5632 61.6128 26.5137C63.4421 26.4541 65.2708 26.3758 67.0996 26.3009C67.7999 26.2722 68.4994 26.2231 69.1998 26.1965C70.3106 26.1544 71.4219 26.126 72.5328 26.0868C73.4296 26.0551 74.326 26.014 75.2227 25.9808C77.1945 25.9079 79.1666 25.8397 81.1383 25.7648C81.8922 25.7361 82.6453 25.6859 83.3993 25.6606C84.671 25.6179 85.9431 25.5908 87.2149 25.5503C88.1474 25.5206 89.0795 25.4773 90.0119 25.4449C91.1229 25.4063 92.2341 25.3758 93.345 25.336C94.2061 25.3052 95.0665 25.2579 95.9277 25.2315C97.3066 25.1893 98.6859 25.1613 100.065 25.1216C101.14 25.0906 102.215 25.0495 103.291 25.0158C104.491 24.9781 105.692 24.9438 106.892 24.9081C108.092 24.8724 109.293 24.8358 110.493 24.8011C111.765 24.7644 113.037 24.7299 114.309 24.6935C115.533 24.6584 116.758 24.6204 117.982 24.5869C119.361 24.5491 120.74 24.5151 122.119 24.4791C123.481 24.4436 124.842 24.407 126.203 24.3722C127.636 24.3355 129.069 24.3008 130.501 24.2646C131.898 24.2294 133.296 24.2058 134.692 24.1535C135.758 24.1135 136.822 24.0326 137.888 23.9808C138.045 23.9731 138.206 24.049 138.365 24.0468C140.567 24.0162 142.768 23.9822 144.969 23.942C146.616 23.9118 148.263 23.8702 149.91 23.8362C151.718 23.7989 153.526 23.7521 155.334 23.7325C156.272 23.7241 156.889 24.1475 157.11 25.0326C157.221 25.4737 157.163 25.9587 157.166 26.424C157.175 27.6198 157.188 28.8159 157.173 30.0116C157.164 30.7564 157.104 31.5005 157.069 32.245C157.062 32.3867 157.061 32.5287 157.061 32.6705C157.06 34.2314 157.073 35.7924 157.058 37.3531C157.032 40.0905 156.991 42.8277 156.953 45.565C156.92 47.8376 156.882 50.1102 156.846 52.3829C156.81 54.6913 156.775 56.9996 156.739 59.308C156.703 61.5806 156.672 63.8534 156.63 66.1259C156.604 67.4694 156.551 68.8125 156.528 70.1561C156.511 71.0912 156.534 72.0269 156.522 72.9622C156.493 75.2706 156.458 77.5791 156.415 79.8873C156.39 81.213 156.336 82.5382 156.313 83.8639C156.297 84.8169 156.323 85.7706 156.307 86.7236C156.284 88.0314 156.228 89.3387 156.206 90.6466C156.189 91.6532 156.216 92.6605 156.199 93.6671C156.179 94.8678 156.12 96.0678 156.099 97.2684C156.082 98.2393 156.106 99.2108 156.093 100.182C156.064 102.544 156.026 104.906 155.988 107.268C155.955 109.29 155.92 111.313 155.88 113.335C155.85 114.804 155.799 116.272 155.777 117.741C155.76 118.872 155.788 120.005 155.77 121.136C155.752 122.301 155.689 123.466 155.67 124.63C155.653 125.744 155.681 126.859 155.663 127.973C155.646 129.03 155.58 130.087 155.563 131.145C155.545 132.277 155.571 133.409 155.557 134.541C155.529 136.885 155.49 139.229 155.452 141.573C155.418 143.632 155.419 145.691 155.334 147.747C155.252 149.725 155.708 151.559 156.691 153.247C157.692 154.966 158.766 156.645 159.83 158.327C160.883 159.99 161.806 161.721 162.295 163.63C162.645 164.993 162.696 166.407 162.304 167.787C162.17 168.259 161.353 171.512 162.048 172.358C162.94 173.443 164.068 173.93 165.457 173.962C166.811 173.993 168.097 173.663 169.394 173.363C170.972 172.998 172.556 172.734 174.145 173.31C174.935 173.597 175.648 174.002 176.116 174.734C176.187 174.845 176.36 175.033 175.982 175.035C175.067 175.04 174.153 175.096 173.239 175.132C171.41 175.203 169.581 175.277 167.752 175.346C166.695 175.385 165.637 175.419 164.58 175.453C163.397 175.491 162.215 175.527 161.032 175.56C159.653 175.598 158.274 175.636 156.895 175.667C155.176 175.706 153.457 175.743 151.739 175.774C149.627 175.814 147.515 175.851 145.403 175.881C142.595 175.922 139.786 175.95 136.977 175.991C135.062 176.019 133.147 176.062 131.231 176.096C130.904 176.102 130.576 176.094 130.248 176.097C126.296 176.132 122.343 176.169 118.391 176.204C118.045 176.207 117.699 176.202 117.354 176.205C113.312 176.24 109.27 176.276 105.228 176.311C104.865 176.314 104.501 176.309 104.137 176.312C100.131 176.347 96.1253 176.383 92.1192 176.418C91.7735 176.421 91.4278 176.416 91.0822 176.419C87.0403 176.454 82.9985 176.49 78.9567 176.525C78.6289 176.528 78.301 176.523 77.9733 176.526C73.9314 176.561 69.8896 176.598 65.8478 176.633C65.5021 176.636 65.1564 176.63 64.8108 176.633C60.7689 176.669 56.7271 176.705 52.6853 176.74C52.3754 176.743 52.0654 176.738 51.7555 176.741C47.6422 176.776 43.5288 176.811 39.4156 176.85C39.3499 176.85 39.2845 176.883 39.219 176.928C39.219 176.955 39.1654 176.955 39.1386 176.955C38.9941 176.919 38.8767 176.854 38.7587 176.852C37.9546 176.843 37.1503 176.849 36.3461 176.845C36.2693 176.844 36.1927 176.807 36.116 176.787C36.1809 176.772 36.2463 176.757 36.3108 176.74C38.0307 176.276 39.7384 175.758 41.4747 175.367C42.459 175.145 43.4884 175.111 44.5005 175.031C45.3589 174.964 46.2215 174.942 47.0828 174.923C47.4091 174.916 47.382 174.843 47.2962 174.56C46.9351 173.365 46.5198 172.172 46.3285 170.946C46.1696 169.928 46.2561 168.864 46.3094 167.824C46.3476 167.079 46.4563 166.327 46.6318 165.601C46.8339 164.766 47.1004 163.94 47.4159 163.14C48.2484 161.03 49.729 159.382 51.2594 157.755C52.1741 156.782 53.004 155.714 53.7532 154.608C54.2062 153.939 54.4499 153.124 54.4465 152.274C54.4412 150.933 54.4582 149.593 54.4421 148.253C54.4182 146.266 54.3763 144.279 54.337 142.292C54.3055 140.699 54.2564 139.105 54.2328 137.512C54.1895 134.578 54.1756 131.643 54.1168 128.71C54.0855 127.149 53.9506 125.591 53.9279 124.03C53.9086 122.705 54.0257 121.377 54.006 120.051C53.9781 118.166 53.8763 116.283 53.8174 114.398C53.8107 114.184 53.9062 113.966 53.9046 113.75C53.8748 109.637 53.8209 105.524 53.806 101.41C53.7881 96.4359 53.8155 91.4616 53.7975 86.4874C53.7828 82.4275 53.7012 78.3678 53.7024 74.308C53.7037 69.8551 53.7729 65.4022 53.7991 60.9492C53.8139 58.4233 53.7882 55.8972 53.8061 53.3714C53.82 51.4202 53.8758 49.4694 53.9075 47.5183C53.9172 46.9226 53.9028 46.3265 53.9101 45.7308C53.9434 42.9755 53.9862 40.2204 54.0138 37.4651C54.0277 36.0831 54.0023 34.7006 54.0203 33.3186C54.0371 32.0286 54.088 30.739 54.123 29.4492C54.1272 29.2938 54.1254 29.1382 54.1264 28.9827C54.1612 29.155 54.2074 29.3259 54.2288 29.4998C54.3753 30.6911 54.5207 31.8826 54.6574 33.0751C54.7067 33.5055 54.736 33.9384 54.7658 34.3708C54.8403 35.449 54.9089 36.5276 54.9815 37.6059C55.0879 39.1878 61.5506 40.6395 61.5648 40.4667C61.6221 40.6324 61.6831 40.7968 61.7359 40.9639C62.2146 42.4777 62.5145 44.0241 62.716 45.6017C63.002 47.8408 63.0253 50.0839 63.0251 52.3328C63.0223 81.5697 63.0248 110.807 63.0096 140.044C63.0094 140.516 63.1546 140.704 63.5816 140.827C64.9831 141.232 66.4244 141.379 67.8538 141.228C70.5572 140.942 75.4043 139.991 77.5327 138.223C79.233 136.811 80.4434 135.083 81.1628 133.027C81.4441 132.224 81.5083 131.335 81.6035 130.477C81.6905 129.694 81.7683 128.893 81.7032 128.112C81.5926 126.786 81.38 125.468 81.1847 124.15C81.0257 123.078 80.7986 122.015 80.6566 120.941C80.4496 119.374 80.248 117.805 80.1267 116.23C80.0251 114.91 79.9284 113.572 80.0297 112.257C80.2368 109.57 80.6562 106.909 81.3976 104.307C82.1901 101.526 83.2946 98.8719 84.6685 96.3338C85.6905 94.4457 86.8615 92.6454 88.2693 91.0186C89.3604 89.7577 90.4945 88.5324 91.6448 87.3249C92.1347 86.8106 92.7248 86.3931 93.2519 85.9125C95.2557 84.0852 96.723 81.8327 98.2372 79.6158C99.419 77.8856 98.1438 76.1076 99.4416 74.4677C101.151 72.3082 103.248 70.5964 105.973 69.8434C106.975 69.5664 108.006 69.389 109.029 69.196C111.202 68.7861 113.405 68.8111 115.596 68.8884C117.874 68.9688 120.038 69.5428 121.982 70.7996C123.585 71.8353 124.748 73.2877 125.739 74.871C126.897 76.7216 127.992 78.6136 129.068 80.5136C130.452 82.9565 131.796 85.4225 133.147 87.884C133.874 89.2077 134.59 90.5376 135.293 91.8737C136.753 94.6458 142.323 105.564 143.658 108.245C143.708 108.346 143.769 108.44 143.825 108.537C143.876 108.416 143.966 108.296 143.973 108.172C144.054 106.79 144.123 105.408 144.193 104.026C144.266 102.59 144.338 101.154 144.407 99.7181C144.481 98.2109 144.553 96.7036 144.622 95.1962C144.696 93.5639 144.768 91.9316 144.836 90.299C144.911 88.5059 144.98 86.7126 145.051 84.9194C145.088 83.9692 145.124 83.019 145.158 82.0687C145.196 81.0113 145.23 79.9538 145.266 78.8963C145.301 77.8567 145.34 76.8172 145.372 75.7776C145.411 74.5415 145.445 73.3053 145.48 72.0691C145.516 70.7972 145.554 69.5253 145.587 68.2533C145.625 66.7492 145.661 65.245 145.694 63.7407C145.732 62.022 145.77 60.3034 145.801 58.5846C145.841 56.3299 145.868 54.0749 145.911 51.8202C145.937 50.4588 146 49.0979 146.012 47.7364C146.029 45.7289 146.003 43.721 146.021 41.7134C146.032 40.4234 146.09 39.1339 146.12 37.844C146.123 37.7144 146.077 37.5837 146.054 37.4536C145.944 37.5332 145.817 37.5976 145.726 37.6949C145.029 38.4406 144.148 38.7068 143.156 38.745C141.63 38.8038 140.19 38.3538 138.726 38.0422C137.324 37.7438 135.915 37.4098 134.479 37.5814C133.625 37.6834 132.778 37.9389 131.959 38.2157C130.637 38.6622 129.379 38.5268 128.128 37.991C126.913 37.4712 125.71 36.9196 124.473 36.4613C123.359 36.0488 122.177 36.0529 121.097 36.5239C120.57 36.7539 120.041 37.2471 119.776 37.7578C119.157 38.9523 118.223 39.508 116.94 39.719C115.248 39.9974 113.756 39.4284 112.251 38.8107C111.029 38.3091 109.819 37.7442 108.553 37.3908C106.863 36.9191 105.31 37.4309 103.909 38.4389C103.028 39.0727 102.198 39.8018 101.25 40.3105C99.9787 40.9928 98.1253 41.091 97.1219 39.965C96.9463 39.768 96.7678 39.5318 96.7039 39.2845C96.4508 38.3051 95.8166 38.0942 94.936 37.9925C93.668 37.8461 92.7365 38.5281 91.8167 39.2643C90.9653 39.9458 90.1715 40.7039 89.0143 40.9171C88.0956 41.0862 87.2321 40.9659 86.4176 40.6158C85.0364 40.0222 83.6813 39.3641 82.3371 38.6894C81.1348 38.086 79.8501 37.7856 78.5598 38.0319C77.7286 38.1906 76.946 38.7076 76.1945 39.1533C75.283 39.6938 74.4685 40.4051 73.5382 40.9053C71.9377 41.7659 70.5035 41.7853 68.4536 41.4494C66.4037 41.1134 61.4583 37.9095 61.2108 37.5814C61.1763 37.5357 60.4124 27.1765 59.0651 27.0458Z" fill="white"/>
<path fill-rule="evenodd" clip-rule="evenodd" d="M90.1198 135.928C89.6785 132.699 89.5572 129.737 89.7558 127.04C89.9544 124.343 90.5664 120.375 91.5919 115.136C89.6308 120.304 88.4653 124.272 88.0953 127.04C87.7253 129.808 87.9399 133.101 88.7391 136.919L90.1198 135.928Z" fill="#00B3C9"/>
<path fill-rule="evenodd" clip-rule="evenodd" d="M118.962 97.0459C120.906 96.8602 122.135 97.2476 122.504 98.3481C123.13 100.208 118.575 102.695 116.969 102.546C116.405 102.029 121.999 100.633 121.493 98.6879C121.365 98.1929 120.569 97.9639 119.063 98.1077C118.77 98.1357 118.51 97.9207 118.482 97.6275C118.454 97.3343 118.669 97.0739 118.962 97.0459Z" fill="#00160A"/>
<path fill-rule="evenodd" clip-rule="evenodd" d="M128.549 146.776C128.406 146.436 128.609 144.331 129.726 142.314C131.576 138.973 139.622 137.866 142.635 134.826C146.457 130.97 144.84 126.444 144.633 126.021C144.583 125.92 144.564 125.804 144.531 125.695C144.619 125.752 144.723 125.795 144.794 125.87C146.04 127.177 146.865 128.726 147.246 130.478C147.654 132.355 147.786 134.254 146.863 136.037C146.661 136.428 146.248 136.743 145.871 137.005C144.734 137.794 139.158 139.98 137.598 140.293C136.094 140.595 134.789 141.29 133.404 141.837C132.554 142.172 132.091 142.953 131.424 143.495C130.721 144.067 130.519 144.767 130.581 145.612C130.6 145.861 130.574 146.113 130.586 146.362C130.66 147.968 128.988 147.819 128.549 146.776Z" fill="#00B3C9"/>
<path fill-rule="evenodd" clip-rule="evenodd" d="M96.4476 102.133C97.2137 102.133 97.499 101.536 97.0928 100.8C96.6953 100.064 95.9172 99.4667 95.3469 99.4667C94.7766 99.4667 94.4714 100.064 94.6731 100.8C94.8836 101.536 95.6816 102.133 96.4476 102.133Z" fill="#FFB61D"/>
<path fill-rule="evenodd" clip-rule="evenodd" d="M111.381 105.6C112.147 105.6 112.432 105.003 112.026 104.267C111.628 103.53 110.85 102.933 110.28 102.933C109.71 102.933 109.404 103.53 109.606 104.267C109.817 105.003 110.615 105.6 111.381 105.6Z" fill="#FFB61D"/>
<path fill-rule="evenodd" clip-rule="evenodd" d="M156.401 23.4658C157.339 23.4575 157.956 23.8808 158.177 24.766C158.287 25.207 158.23 25.6921 158.233 26.1573C158.241 27.3532 158.255 28.5493 158.24 29.7449C158.23 30.4897 158.171 31.2339 158.136 31.9784C158.129 32.12 158.128 32.262 158.128 32.4039C158.127 33.9647 158.139 35.5257 158.125 37.0865C158.098 39.8238 158.058 42.5611 158.019 45.2983C157.987 47.571 157.948 49.8436 157.913 52.1162C157.877 54.4246 157.842 56.733 157.806 59.0413C157.77 61.314 157.739 63.5867 157.696 65.8592C157.671 67.2028 157.618 68.5458 157.594 69.8894C157.578 70.8245 157.601 71.7603 157.589 72.6955C157.559 75.004 157.525 77.3124 157.482 79.6206C157.457 80.9464 157.403 82.2715 157.38 83.5972C157.363 84.5502 157.39 85.504 157.373 86.4569C157.351 87.7648 157.295 89.0721 157.273 90.3799C157.256 91.3865 157.283 92.3939 157.266 93.4005C157.245 94.6011 157.187 95.8011 157.166 97.0018C157.149 97.9726 157.172 98.9441 157.16 99.9151C157.131 102.277 157.093 104.639 157.054 107.001C157.022 109.024 156.987 111.046 156.947 113.068C156.917 114.537 156.866 116.005 156.844 117.474C156.827 118.606 156.855 119.738 156.837 120.87C156.818 122.035 156.756 123.199 156.737 124.364C156.719 125.478 156.747 126.592 156.729 127.706C156.712 128.764 156.647 129.821 156.63 130.878C156.612 132.01 156.637 133.142 156.624 134.274C156.596 136.618 156.556 138.963 156.518 141.307C156.485 143.365 156.486 145.425 156.401 147.481C156.319 149.458 156.774 151.292 157.758 152.98C158.759 154.7 159.833 156.378 160.897 158.061C161.949 159.724 162.873 161.455 163.362 163.363C163.711 164.726 163.762 166.141 163.37 167.52C163.236 167.992 162.42 171.246 163.115 172.091C164.007 173.176 165.135 173.664 166.524 173.695C167.878 173.726 169.163 173.397 170.461 173.096C172.039 172.731 173.623 172.467 175.212 173.044C176.002 173.33 176.715 173.736 177.182 174.467C177.253 174.579 177.426 174.766 177.049 174.768C176.134 174.773 175.22 174.829 174.305 174.865C172.477 174.937 170.648 175.01 168.819 175.079C167.761 175.119 166.704 175.153 165.646 175.186C164.464 175.224 163.281 175.261 162.099 175.294C160.72 175.332 159.341 175.369 157.961 175.4C156.243 175.44 154.524 175.476 152.805 175.508C150.694 175.547 148.582 175.584 146.47 175.615C143.661 175.655 140.853 175.683 138.044 175.724C136.129 175.753 134.213 175.795 132.298 175.829C131.97 175.835 131.643 175.828 131.315 175.831C127.362 175.866 123.41 175.902 119.457 175.937C119.112 175.94 118.766 175.935 118.42 175.938C114.378 175.973 110.337 176.009 106.295 176.044L105.204 176.045C101.198 176.08 97.192 176.116 93.1859 176.152C92.8403 176.155 92.4946 176.149 92.1489 176.152C88.1071 176.187 84.0652 176.224 80.0234 176.259C79.6956 176.262 79.3678 176.257 79.04 176.26C74.9982 176.295 70.9564 176.331 66.9145 176.366C66.5689 176.369 66.2232 176.364 65.8775 176.367C61.8357 176.402 57.7938 176.438 53.752 176.473C53.4421 176.476 53.1321 176.471 52.8222 176.474C48.7089 176.509 44.5956 176.545 40.4823 176.583C40.4166 176.584 40.3513 176.617 40.2858 176.661C40.2858 176.688 40.2322 176.688 40.2054 176.688C40.0609 176.652 39.9435 176.587 39.8254 176.586C39.0213 176.576 38.2171 176.582 37.4129 176.578C37.3361 176.578 37.2594 176.541 37.1827 176.521C37.2477 176.505 37.3131 176.491 37.3776 176.473C39.0974 176.009 40.8052 175.491 42.5415 175.1C43.5257 174.879 44.5551 174.844 45.5673 174.764C46.4257 174.697 47.2883 174.675 48.1495 174.657C48.4758 174.65 48.4488 174.577 48.3629 174.293C48.0018 173.099 47.5866 171.905 47.3952 170.68C47.2363 169.662 47.3228 168.597 47.3761 167.557C47.4143 166.812 47.5231 166.06 47.6986 165.335C47.9006 164.499 48.1671 163.673 48.4826 162.874C49.3151 160.764 50.7957 159.116 52.3262 157.488C53.2409 156.516 54.0708 155.447 54.82 154.341C55.273 153.673 55.5167 152.857 55.5133 152.007C55.508 150.667 55.5249 149.326 55.5088 147.986C55.4849 145.999 55.4431 144.012 55.4038 142.026C55.3723 140.432 55.3232 138.839 55.2996 137.245C55.2563 134.311 55.2424 131.377 55.1836 128.443C55.1523 126.883 55.0174 125.324 54.9947 123.764C54.9754 122.438 55.0925 121.11 55.0728 119.784C55.0448 117.9 54.943 116.016 54.8841 114.132C54.8774 113.917 54.973 113.7 54.9714 113.484C54.9416 109.37 54.8877 105.257 54.8728 101.143C54.8548 96.1693 54.8822 91.1949 54.8642 86.2207C54.8496 82.1608 54.7679 78.1011 54.7691 74.0414C54.7705 69.5884 54.8397 65.1355 54.8658 60.6825C54.8807 58.1567 54.855 55.6306 54.8729 53.1047C54.8867 51.1536 54.9425 49.2027 54.9743 47.2517C54.9839 46.656 54.9696 46.0599 54.9768 45.4641C55.0102 42.7089 55.053 39.9537 55.0806 37.1985C55.0944 35.8164 55.0691 34.4339 55.087 33.0519C55.1038 31.7619 55.1548 30.4723 55.1898 29.1825C55.194 29.0271 55.1922 28.8715 55.1932 28.716C55.2279 28.8883 55.2742 29.0592 55.2956 29.2332C55.4421 30.4245 55.5875 31.616 55.7242 32.8084C55.7735 33.2388 55.8027 33.6718 55.8326 34.1042C55.907 35.1823 55.9757 36.2609 56.0482 37.3392C56.1547 38.9211 56.2696 40.5025 56.3675 42.0849C56.4497 43.4129 56.523 44.7415 56.5816 46.0707C56.6631 47.9171 56.731 49.7641 56.7972 51.6111C56.8403 52.8113 56.8935 54.0118 56.9019 55.2124C56.946 61.506 56.9788 67.7996 57.0119 74.0933C57.0195 75.5291 57.0255 76.9651 57.0102 78.4007C56.9848 80.7986 56.9423 83.1963 56.9056 85.5941C56.8708 87.8668 56.8401 90.1395 56.7961 92.4121C56.7746 93.5234 56.7227 94.6341 56.6934 95.7454C56.681 96.2158 56.6941 96.6869 56.691 97.1576C56.6559 102.415 56.6036 107.672 56.5913 112.929C56.5854 115.416 56.6498 117.903 56.6939 120.39C56.7149 121.573 56.7602 122.756 56.7994 123.938C56.831 124.888 56.8643 125.839 56.9072 126.789C56.9736 128.261 57.0429 129.732 57.1222 131.203C57.1842 132.354 57.2565 133.504 57.3364 134.653C57.4366 136.092 57.5409 137.532 57.6607 138.969C57.706 139.514 57.7755 140.059 57.8841 140.594C57.9209 140.775 58.0774 140.98 58.2379 141.08C59.2514 141.711 60.3025 141.372 61.1429 140.744C62.1169 140.017 62.5383 138.948 62.5805 137.759C62.6474 135.875 62.6905 133.988 62.6913 132.103C62.6991 113.654 62.7089 95.2045 62.6914 76.7556C62.6801 64.7432 62.6244 52.7308 62.5906 40.7185C62.5902 40.5457 62.6173 40.3729 62.6316 40.2001C62.6888 40.3657 62.7498 40.5302 62.8027 40.6972C63.2813 42.2111 63.5812 43.7575 63.7827 45.3351C64.0687 47.5741 64.0921 49.8172 64.0919 52.0661L64.0887 95.9215C64.0871 110.54 64.0839 125.158 64.0764 139.777C64.0761 140.249 64.2214 140.437 64.6484 140.56C66.0499 140.966 67.4911 141.112 68.9205 140.961C71.624 140.675 74.0711 139.724 76.1995 137.957C77.8997 136.544 79.1102 134.817 79.8296 132.761C80.1109 131.957 80.1751 131.068 80.2702 130.211C80.3572 129.427 80.435 128.626 80.3699 127.845C80.2594 126.519 80.0468 125.201 79.8514 123.883C79.6925 122.811 79.4653 121.748 79.3233 120.674C79.1164 119.108 78.9147 117.538 78.7935 115.964C78.6918 114.643 78.5951 113.305 78.6965 111.99C78.9035 109.304 79.323 106.642 80.0644 104.04C80.8568 101.259 81.9613 98.6053 83.3352 96.0672C84.3573 94.179 85.5282 92.3787 86.936 90.7519C88.0272 89.491 89.1612 88.2658 90.3115 87.0583C90.8015 86.5439 91.3916 86.1265 91.9187 85.6458C93.9224 83.8186 95.3898 81.566 96.904 79.3491C98.0857 77.6189 99.2105 75.8409 100.508 74.201C102.218 72.0415 104.315 70.3297 107.04 69.5767C108.042 69.2998 109.073 69.1224 110.096 68.9293C112.269 68.5195 114.471 68.5444 116.663 68.6218C118.94 68.7021 121.105 69.2761 123.049 70.533C124.652 71.5686 125.815 73.021 126.806 74.6043C127.964 76.455 129.058 78.347 130.135 80.247C131.519 82.6899 132.863 85.1559 134.214 87.6173C134.941 88.9411 135.656 90.2709 136.36 91.607C137.239 93.2762 137.744 93.9278 138.453 95.7454C138.922 96.9463 139.752 99.1959 140.319 100.306C141.45 102.52 141.646 103.98 142.472 106.035C142.641 106.456 143.532 106.971 143.736 107.439C144.116 108.312 144.889 109.577 144.945 109.674C144.996 109.552 145.033 108.029 145.04 107.905C145.121 106.523 145.19 105.141 145.26 103.759C145.333 102.323 145.404 100.887 145.474 99.4514C145.547 97.9442 145.62 96.437 145.688 94.9296C145.763 93.2973 145.835 91.6649 145.903 90.0324C145.977 88.2393 146.047 86.446 146.118 84.6527C146.155 83.7025 146.191 82.7523 146.225 81.802C146.262 80.7446 146.296 79.6871 146.332 78.6297C146.368 77.5901 146.407 76.5506 146.439 75.5109C146.478 74.2748 146.512 73.0386 146.547 71.8024C146.583 70.5305 146.621 69.2587 146.653 67.9867C146.692 66.4825 146.728 64.9783 146.761 63.474C146.799 61.7554 146.837 60.0367 146.867 58.318C146.907 56.0632 146.935 53.8083 146.978 51.5536C147.003 50.1921 147.067 48.8312 147.078 47.4697C147.096 45.4622 147.07 43.4543 147.088 41.4468C147.099 40.1568 147.157 38.8672 147.187 37.5773C147.19 37.4477 147.144 37.3171 147.12 37.1869C147.01 37.2665 146.884 37.3309 146.793 37.4282C146.096 38.174 145.215 38.4401 144.222 38.4783C142.697 38.5372 141.257 38.0871 139.793 37.7755C138.391 37.4771 136.982 37.1431 135.545 37.3147C134.691 37.4167 133.845 37.6722 133.025 37.949C131.704 38.3955 130.446 38.2601 129.194 37.7243C127.98 37.2046 126.777 36.653 125.54 36.1947C124.426 35.7821 123.244 35.7862 122.164 36.2573C121.637 36.4872 121.107 36.9804 120.843 37.4911C120.224 38.6856 119.29 39.2413 118.007 39.4523C116.314 39.7308 114.822 39.1618 113.317 38.544C112.095 38.0424 110.886 37.4775 109.62 37.1241C107.93 36.6524 106.377 37.1642 104.976 38.1723C104.095 38.806 103.265 39.5351 102.317 40.0439C101.045 40.7262 99.192 40.8243 98.1886 39.6984C98.0131 39.5013 97.8345 39.2652 97.7706 39.0178C97.5176 38.0385 96.8834 37.8276 96.0027 37.7259C94.7347 37.5794 93.8032 38.2615 92.8835 38.9977C92.0321 39.6791 91.2383 40.4373 90.081 40.6504C89.1623 40.8196 88.2989 40.6993 87.4843 40.3491C86.1032 39.7555 84.748 39.0974 83.4039 38.4228C82.2016 37.8193 80.9168 37.519 79.6266 37.7653C78.7954 37.9239 78.0127 38.4409 77.2613 38.8866C76.3498 39.4272 75.5353 40.1384 74.605 40.6387C73.0045 41.4993 71.2858 41.5353 69.5204 41.1827C67.6889 40.8169 66.1806 39.9232 64.9116 38.5899C64.6296 38.2936 64.3994 37.9474 64.1519 37.6192C64.1175 37.5735 64.1208 37.4993 64.1066 37.4383C64.1572 37.4642 64.2156 37.4811 64.2571 37.5173C65.5938 38.6846 67.122 39.407 68.8938 39.6626C71.4539 40.0318 73.8256 39.6035 75.9588 38.115C76.5552 37.6989 77.0438 37.131 77.6264 36.6919C78.5447 35.9997 79.6305 36.0325 80.6923 36.1609C82.6845 36.402 84.4139 37.4386 86.2778 38.0694C87.8904 38.6151 89.546 39.0326 91.2519 38.3692C91.8519 38.1359 92.3543 37.8082 92.7257 37.2589C93.3775 36.2951 94.7893 35.9485 95.862 36.0642C97.5917 36.2507 99.0897 37.1106 100.731 37.5298C101.885 37.8242 103.041 38.0232 104.219 37.6203C104.856 37.4027 105.3 36.9673 105.642 36.426C106.196 35.5497 107.036 35.2377 108.003 35.1509C109.372 35.0281 110.603 35.4604 111.811 36.0544C112.969 36.6248 114.144 37.2088 115.436 37.3844C116.483 37.5265 117.518 37.3185 118.489 36.8806C120.009 36.1942 121.51 35.4618 123.045 34.8068C124.518 34.1775 125.952 34.3014 127.331 35.1671C128.089 35.643 128.874 36.0942 129.693 36.449C130.675 36.8737 131.721 36.7385 132.719 36.4719C134.064 36.1123 135.371 35.5889 136.729 35.2992C137.672 35.0979 138.651 35.1748 139.42 35.9937C140.137 36.7579 141.084 36.9472 142.064 36.6681C143.594 36.2328 145.1 35.7155 146.618 35.2412C147.367 35.0074 148.116 34.7811 148.914 35.04C149.99 35.3887 150.11 35.5649 149.979 36.6824C149.904 37.3137 149.816 37.9441 149.769 38.5775C149.712 39.3475 149.7 40.1207 149.655 40.8916C149.553 42.6346 149.444 44.3772 149.334 46.1197C149.266 47.1984 149.184 48.2761 149.122 49.3551C149.043 50.7368 148.98 52.1195 148.905 53.5015C148.838 54.741 148.755 55.9796 148.693 57.2193C148.614 58.7977 148.549 60.3768 148.477 61.9556C148.443 62.6736 148.401 63.3912 148.371 64.1093C148.296 65.8488 148.227 67.5885 148.155 69.3281C148.12 70.1712 148.08 71.014 148.049 71.8572C147.975 73.829 147.905 75.801 147.834 77.773C147.797 78.7768 147.76 79.7806 147.727 80.7845C147.689 81.9134 147.654 83.0424 147.619 84.1713C147.583 85.336 147.547 86.5006 147.512 87.6654C147.475 88.9194 147.44 90.1734 147.405 91.4275C147.368 92.753 147.332 94.0785 147.298 95.404C147.261 96.801 147.225 98.198 147.191 99.595C147.153 101.117 147.119 102.639 147.083 104.161C147.047 105.701 147.011 107.241 146.976 108.781C146.939 110.393 146.904 112.004 146.869 113.616L146.799 116.946C146.787 117.501 146.774 118.056 146.759 118.611C146.736 119.508 146.69 120.404 146.653 121.301C146.651 121.35 146.631 121.398 146.62 121.447C146.595 121.399 146.561 121.353 146.548 121.301C146.153 119.624 145.716 117.955 145.383 116.265C145.158 115.125 145.065 113.958 144.945 112.799C144.874 112.115 144.868 111.423 144.83 110.735C144.826 110.669 144.802 110.604 144.787 110.539C144.766 110.595 144.73 110.651 144.726 110.708C144.6 112.863 144.221 114.966 143.463 116.995C143.243 117.583 143.057 118.185 142.852 118.779C142.826 118.857 142.778 118.927 142.74 119C142.73 118.903 142.689 118.797 142.715 118.711C142.838 118.299 142.955 117.882 143.12 117.486C143.88 115.668 143.838 113.752 143.736 111.855C143.659 110.434 143.304 109.042 142.72 107.727C142.684 107.647 142.495 107.277 142.493 107.178C142.493 107.162 142.423 107.147 142.385 107.132C142.414 107.263 142.443 107.395 142.472 107.527C142.544 108.892 142.665 110.789 142.674 112.154C142.684 113.747 142.417 114.783 141.985 116.316C141.756 117.128 141.461 117.921 141.194 118.722C141.176 118.777 141.145 118.828 141.12 118.881C141.106 118.815 141.061 118.736 141.083 118.685C141.789 117.05 141.712 115.296 141.816 113.579C141.913 111.971 141.999 110.351 141.912 108.747C141.791 106.506 141.37 104.306 140.433 102.237C140.413 102.192 140.356 102.163 140.335 102.117C140.267 101.964 140.207 101.808 140.144 101.653C140.103 101.846 140.007 102.047 140.03 102.232C140.106 102.854 140.269 103.467 140.319 104.09C140.421 105.363 140.502 106.639 140.534 107.915C140.57 109.349 140.612 110.79 140.522 112.22C140.435 113.618 140.187 115.005 140.005 116.396C139.903 117.174 139.793 117.951 139.682 118.728C139.675 118.779 139.636 118.825 139.611 118.874C139.6 118.825 139.575 118.775 139.579 118.727C139.611 118.366 139.649 118.006 139.684 117.645C139.721 117.267 139.777 116.889 139.788 116.51C139.833 114.971 139.89 113.43 139.891 111.891C139.892 110.422 139.844 108.953 139.786 107.485C139.74 106.299 139.667 105.113 139.573 103.929C139.448 102.36 139.293 100.794 139.147 99.2275C139.12 98.9377 139.08 98.6489 139.038 98.3608C139.03 98.304 138.985 98.2525 138.957 98.1986C138.914 98.2549 138.837 98.3086 138.832 98.368C138.787 98.9244 138.747 99.4814 138.721 100.039C138.679 100.935 138.659 101.833 138.61 102.728C138.51 104.561 138.403 106.393 138.288 108.224C138.229 109.178 138.137 110.13 138.078 111.085C137.963 112.952 137.866 114.82 137.752 116.688C137.692 117.677 137.603 118.665 137.542 119.655C137.428 121.486 137.334 123.319 137.213 125.15C137.172 125.784 137.331 127.85 137.308 128.135C137.171 129.815 136.696 131.423 136.122 133C136.01 133.306 135.782 133.622 135.519 133.812C134.778 134.346 134.288 134.261 133.898 133.33C133.802 133.102 133.752 132.855 133.679 132.617C133.67 132.585 133.654 132.556 133.641 132.526C133.618 132.578 133.588 132.628 133.574 132.683C133.429 133.231 133.344 133.803 133.128 134.321C132.911 134.839 132.615 135.343 132.263 135.781C131.837 136.311 131.062 136.338 130.568 135.868C130.287 135.6 130.29 135.942 130.268 135.993C130.046 136.509 129.896 137.059 129.639 137.554C129.239 138.326 128.548 138.673 127.687 138.614C127.302 138.587 127.229 138.706 127.235 139.072C127.253 140.027 126.873 140.805 126.019 141.28C125.81 141.396 125.518 141.42 125.272 141.399C124.922 141.368 124.853 141.496 124.881 141.81C124.909 142.129 124.892 142.452 124.886 142.774C124.874 143.536 124.35 144.069 123.598 144.091C123.027 144.108 122.919 144.267 123.146 144.762C123.373 145.26 123.016 145.739 122.345 145.804C121.662 145.87 121.093 145.716 120.552 145.198C118.329 143.069 116.626 140.581 115.356 137.799C114.532 135.995 113.889 134.116 113.635 132.135C113.456 130.733 113.3 129.326 113.211 127.916C113.11 126.315 113.362 124.738 113.688 123.17C114.306 120.199 115.462 117.408 116.491 114.573C116.729 113.918 116.898 113.235 117.054 112.555C117.324 111.376 117.582 110.194 117.798 109.005C117.874 108.59 117.825 108.148 117.796 107.721C117.791 107.65 117.585 107.523 117.491 107.538C116.675 107.671 115.86 107.812 115.051 107.986C113.668 108.283 112.344 108.744 111.064 109.363C110.59 109.592 109.996 109.567 109.46 109.674C108.603 109.845 107.75 110.035 106.893 110.203C106.715 110.238 106.524 110.204 106.339 110.209C106.023 110.218 105.501 110.126 105.429 110.265C105.236 110.637 105.177 111.108 105.167 111.542C105.111 113.886 105.057 116.23 105.062 118.574C105.065 119.796 105.189 121.017 105.266 122.238C105.332 123.281 105.38 124.326 105.487 125.365C105.595 126.418 105.774 127.463 105.905 128.513C105.993 129.214 106.038 129.92 106.126 130.621C106.257 131.672 106.414 132.719 106.55 133.768C106.665 134.652 106.765 135.538 106.873 136.423C106.944 137.001 107.014 137.579 107.091 138.156C107.098 138.208 107.146 138.284 107.19 138.297C107.994 138.532 108.173 139.238 108.367 139.903C108.67 140.943 109.003 141.983 109.178 143.047C109.312 143.863 109.31 144.726 109.208 145.548C109.104 146.384 108.82 147.201 108.585 148.017C108.23 149.249 107.527 150.288 106.724 151.267C106.671 151.331 106.646 151.418 106.609 151.493C106.687 151.492 106.765 151.49 106.843 151.49C106.986 151.49 107.129 151.49 107.272 151.49H113.759C115.409 151.49 117.059 151.502 118.709 151.487C121.411 151.462 124.112 151.418 126.814 151.383C127.088 151.38 127.362 151.386 127.637 151.382C129.981 151.347 132.325 151.311 134.669 151.276C134.907 151.272 135.146 151.282 135.384 151.275C137.361 151.216 139.337 151.152 141.314 151.098C141.508 151.093 141.704 151.167 141.899 151.165C144.261 151.134 146.623 151.101 148.985 151.06C150.596 151.031 152.208 150.987 153.819 150.956C154.267 150.947 154.506 150.85 154.5 150.289C154.483 148.749 154.556 147.209 154.587 145.669C154.597 145.181 154.61 144.691 154.584 144.203C154.533 143.242 153.814 142.861 152.987 142.819C151.342 142.735 149.693 142.712 148.046 142.702C145.181 142.685 142.315 142.692 139.45 142.702C138.928 142.704 138.407 142.77 137.886 142.803C137.818 142.807 137.748 142.791 137.68 142.784C137.721 142.721 137.759 142.655 137.804 142.595C138.249 141.995 138.918 141.816 139.593 141.746C140.466 141.655 141.353 141.701 142.227 141.614C143.191 141.519 144.146 141.338 145.106 141.198C145.211 141.183 145.32 141.199 145.427 141.196C148.239 141.125 151.051 141.056 153.863 140.972C153.99 140.968 154.185 140.85 154.226 140.739C154.56 139.845 154.747 138.952 154.659 137.958C154.564 136.898 154.744 135.814 154.803 134.74C154.808 134.633 154.803 134.526 154.803 134.419C154.803 133.489 154.795 132.56 154.805 131.631C154.836 128.679 154.871 125.727 154.912 122.776C154.94 120.753 154.982 118.731 155.018 116.708C155.054 114.614 155.089 112.52 155.125 110.427C155.16 108.38 155.197 106.334 155.232 104.287L155.339 98.1127C155.375 96.0483 155.411 93.984 155.447 91.9197C155.482 89.8375 155.518 87.7553 155.554 85.6731C155.589 83.6507 155.626 81.6282 155.661 79.6058C155.697 77.5236 155.733 75.4414 155.768 73.3592C155.804 71.2831 155.839 69.2071 155.876 67.131C155.911 65.1086 155.947 63.0862 155.983 61.0637C156.019 58.9698 156.054 56.8758 156.09 54.7819L156.197 48.6609C156.233 46.5849 156.268 44.5088 156.305 42.4328C156.34 40.4282 156.377 38.4236 156.411 36.419C156.448 34.2715 156.479 32.1239 156.52 29.9764C156.549 28.4481 156.583 26.9198 156.632 25.392C156.642 25.071 156.59 24.9436 156.219 24.9533C154.09 25.0092 151.96 25.0299 149.83 25.072C148.481 25.0987 147.131 25.143 145.782 25.1772C144.313 25.2144 142.845 25.2479 141.376 25.2851C140.033 25.3192 138.69 25.3574 137.346 25.3917C135.896 25.4288 134.445 25.4626 132.995 25.4995C131.633 25.5341 130.272 25.5718 128.911 25.6062C127.442 25.6432 125.974 25.6748 124.505 25.7147C123.376 25.7454 122.248 25.7916 121.119 25.8194C119.436 25.8609 117.753 25.8897 116.07 25.929C114.727 25.9604 113.383 26.0011 112.04 26.035C110.554 26.0725 109.067 26.1054 107.581 26.143C106.255 26.1767 104.93 26.2156 103.604 26.2494C102.136 26.2869 100.667 26.318 99.1991 26.3581C98.0879 26.3885 96.9771 26.4354 95.8659 26.4627C94.1653 26.5045 92.4643 26.5332 90.7636 26.5723C89.3844 26.6041 88.0054 26.6437 86.6263 26.6785C85.1757 26.7152 83.7251 26.7492 82.2745 26.7863C80.9311 26.8206 79.5878 26.8589 78.2444 26.8928C76.7581 26.9303 75.2719 26.9773 73.7854 26.9978C70.5836 27.042 67.3814 27.1072 64.1798 27.0909C62.8298 27.0841 61.4791 26.9098 60.1319 26.7792C59.422 26.7103 58.7188 26.5721 58.013 26.463C57.9649 26.4556 57.9197 26.4301 57.8732 26.413C57.9175 26.3943 57.9606 26.3706 58.0066 26.3587C58.0401 26.3501 58.0777 26.3578 58.1134 26.3569C59.6355 26.3213 61.1579 26.2965 62.6795 26.247C64.5089 26.1875 66.3376 26.1091 68.1664 26.0342C68.8667 26.0055 69.5662 25.9564 70.2666 25.9299C71.3774 25.8877 72.4887 25.8593 73.5996 25.8201C74.4963 25.7884 75.3927 25.7473 76.2894 25.7141C78.2613 25.6412 80.2333 25.573 82.2051 25.4981C82.959 25.4694 83.7121 25.4192 84.4661 25.3939C85.7377 25.3512 87.0099 25.3241 88.2816 25.2836C89.2142 25.2539 90.1462 25.2107 91.0787 25.1782C92.1896 25.1396 93.3009 25.1091 94.4118 25.0694C95.2728 25.0385 96.1333 24.9912 96.9944 24.9649C98.3733 24.9226 99.7527 24.8946 101.132 24.8549C102.207 24.824 103.282 24.7828 104.358 24.7491C105.558 24.7115 106.758 24.6772 107.959 24.6414C109.159 24.6057 110.36 24.5691 111.56 24.5344C112.832 24.4977 114.104 24.4632 115.376 24.4268C116.6 24.3918 117.824 24.3537 119.049 24.3202C120.428 24.2825 121.807 24.2485 123.186 24.2125C124.547 24.177 125.909 24.1403 127.27 24.1055C128.703 24.0689 130.135 24.0342 131.568 23.998C132.965 23.9627 134.362 23.9391 135.759 23.8868C136.825 23.8468 137.889 23.7659 138.954 23.7141C139.112 23.7065 139.273 23.7823 139.432 23.7801C141.633 23.7496 143.835 23.7155 146.036 23.6753C147.683 23.6452 149.33 23.6036 150.977 23.5695C152.785 23.5322 154.593 23.4854 156.401 23.4658ZM121.703 163.83C120.588 163.858 119.475 163.962 118.362 164.036C117.319 164.105 116.276 164.171 115.234 164.252C113.938 164.351 112.643 164.464 111.347 164.572C110.069 164.678 108.792 164.794 107.514 164.891C105.987 165.007 104.46 165.154 102.93 165.204C100.605 165.281 98.2785 165.288 95.9527 165.321C95.4346 165.328 94.9134 165.358 94.3988 165.315C92.9198 165.192 91.4436 165.034 89.966 164.894C89.1741 164.819 88.3805 164.76 87.5895 164.677C86.3078 164.542 85.0306 164.338 83.7458 164.265C82.493 164.194 81.2328 164.236 79.9762 164.254C78.9902 164.268 78.0036 164.303 77.0191 164.361C75.4546 164.453 73.8914 164.569 72.328 164.679C70.8534 164.783 69.3792 164.892 67.905 165.001C66.9518 165.071 65.9988 165.144 65.0457 165.215C63.6071 165.322 62.1685 165.429 60.7299 165.537C59.7768 165.608 58.8239 165.681 57.8706 165.751C56.3785 165.859 54.8866 165.971 53.394 166.071C52.2092 166.151 51.023 166.21 49.8381 166.289C49.1682 166.334 48.9591 166.563 48.9758 167.248C48.9851 167.627 49.0447 168.005 49.0779 168.383C49.2218 170.021 49.3531 171.66 49.5143 173.297C49.5605 173.767 49.61 174.293 50.1042 174.532C50.398 174.673 50.754 174.748 51.0815 174.747C52.0853 174.742 53.0887 174.664 54.0925 174.656C56.0639 174.639 58.0356 174.663 60.0071 174.648C63.548 174.622 67.0887 174.579 70.6295 174.544C70.9572 174.541 71.2851 174.549 71.6127 174.543C73.4383 174.509 75.2637 174.459 77.0894 174.439C81.0232 174.395 84.9571 174.359 88.8911 174.331C90.8268 174.318 92.7627 174.341 94.6984 174.326C98.1679 174.3 101.637 174.257 105.106 174.222C105.452 174.219 105.798 174.227 106.143 174.221C107.969 174.187 109.794 174.138 111.62 174.117C115.554 174.073 119.488 174.038 123.422 174.01C125.339 173.996 127.258 174.019 129.175 174.005C132.663 173.978 136.15 173.936 139.637 173.901C139.983 173.897 140.328 173.905 140.674 173.899C142.857 173.865 145.04 173.82 147.223 173.796C148.723 173.78 150.224 173.805 151.725 173.79C154.641 173.763 157.556 173.723 160.471 173.685C161.111 173.676 161.596 173.219 161.663 172.542C161.814 171.012 161.952 169.48 162.095 167.842C162.13 167.285 162.188 166.729 162.198 166.171C162.211 165.324 161.785 164.999 160.945 165.102C159.324 165.3 157.702 165.575 156.075 165.618C153.663 165.682 151.245 165.589 148.831 165.529C147.698 165.501 146.566 165.405 145.435 165.319C144.192 165.225 142.951 165.112 141.709 164.999C140.609 164.899 139.511 164.784 138.412 164.679L136.142 164.461C135.386 164.388 134.629 164.318 133.872 164.253C132.47 164.132 131.068 164.012 129.664 163.935C128.412 163.866 127.157 163.841 125.902 163.825C124.503 163.807 123.102 163.794 121.703 163.83ZM85.1063 153.581C84.0383 153.634 82.9706 153.693 81.9023 153.74C80.9345 153.783 79.9662 153.813 78.9982 153.849C78.048 153.884 77.0979 153.922 76.1477 153.956C74.1401 154.028 72.1325 154.098 70.125 154.171C69.2104 154.204 68.2963 154.248 67.3816 154.276C66.0563 154.318 64.7306 154.343 63.4054 154.388C62.8299 154.407 62.2519 154.428 61.6816 154.5C61.1316 154.57 60.5941 154.755 60.0437 154.802C59.3549 154.86 58.6459 154.876 58.1829 154.183C58.1494 154.133 57.8877 154.157 57.8838 154.177C57.6363 155.432 56.8157 156.325 55.968 157.189C55.2747 157.896 54.5283 158.55 53.8209 159.244C52.9297 160.117 52.0261 160.98 51.1809 161.897C50.5529 162.578 50.0077 163.336 49.4303 164.063C49.373 164.135 49.3488 164.234 49.3092 164.32C49.4113 164.332 49.5138 164.358 49.6154 164.355C50.6908 164.323 51.7661 164.289 52.8412 164.249C53.6665 164.218 54.4913 164.173 55.3166 164.144C56.481 164.103 57.6466 164.088 58.8101 164.03C59.6932 163.986 60.5733 163.884 61.4558 163.823C63.0729 163.709 64.6909 163.61 66.308 163.498C67.2083 163.435 68.1095 163.376 69.0065 163.28C70.1468 163.157 71.282 162.989 72.4217 162.859C73.212 162.77 74.007 162.722 74.7983 162.639C76.098 162.504 77.3937 162.319 78.6961 162.225C79.6089 162.16 80.5305 162.199 81.4476 162.217C82.3446 162.234 83.2446 162.245 84.1364 162.33C85.1715 162.429 86.1982 162.613 87.2302 162.747C88.1316 162.864 89.0375 162.948 89.9375 163.074C91.0987 163.237 92.2553 163.433 93.4156 163.603C93.7131 163.647 94.0168 163.649 94.3176 163.67C94.0717 163.417 93.8504 163.133 93.5755 162.917C92.2009 161.837 91.0795 160.509 90.0606 159.118C89.135 157.855 88.3892 156.459 87.5743 155.115C87.0188 154.199 86.3651 153.448 85.1063 153.581ZM153.953 152.875C153.097 152.957 152.233 152.962 151.371 152.989C150.046 153.031 148.721 153.066 147.395 153.098C145.784 153.136 144.173 153.18 142.561 153.203C139.628 153.247 136.694 153.278 133.76 153.312C133.361 153.317 132.962 153.307 132.563 153.314C130.665 153.347 128.768 153.384 126.764 153.42H115.791C112.449 153.42 109.108 153.406 105.766 153.434C105.233 153.439 104.698 153.638 104.437 154.197C103.975 155.185 103.564 156.198 103.063 157.165C101.879 159.448 100.204 161.354 98.3174 163.071C97.9204 163.432 98.1909 163.549 98.4123 163.587C98.8178 163.656 99.2451 163.632 99.66 163.602C100.939 163.508 102.216 163.394 103.494 163.284C104.719 163.179 105.943 163.067 107.167 162.964C108.481 162.853 109.795 162.752 111.108 162.641C112.333 162.537 113.556 162.41 114.781 162.324C116.523 162.201 118.265 162.089 120.009 162.005C120.853 161.964 121.702 161.972 122.546 162.004C123.786 162.052 125.025 162.134 126.264 162.214C127.793 162.314 129.32 162.427 130.848 162.534C131.873 162.606 132.898 162.676 133.922 162.749C135.433 162.855 136.943 162.963 138.453 163.071C139.442 163.141 140.431 163.215 141.42 163.284C142.462 163.358 143.505 163.426 144.548 163.5C145.537 163.569 146.525 163.65 147.515 163.712C148.807 163.792 150.1 163.919 151.393 163.913C153.061 163.905 154.732 163.829 156.396 163.701C157.899 163.584 159.394 163.362 160.892 163.175C161.669 163.079 161.959 162.504 161.556 161.847C160.06 159.41 158.541 156.987 157.06 154.541C156.342 153.355 155.376 152.739 153.953 152.875ZM94.5981 94.1262C94.5223 94.3435 94.4702 94.5729 94.3664 94.7758C94.0112 95.4696 93.6331 96.1516 93.2725 96.8427C92.4462 98.4263 91.6266 99.9883 90.122 101.099C89.1417 101.823 87.9931 102.365 87.2933 103.447C87.0869 103.766 86.724 103.982 86.5098 104.298C86.1265 104.863 85.8205 105.479 85.4491 106.053C84.0093 108.277 82.6934 110.558 81.9251 113.118C81.33 115.1 80.9069 117.11 80.9288 119.189C80.9401 120.265 80.9652 121.342 81.0413 122.414C81.1042 123.301 81.2451 124.183 81.3623 125.066C81.533 126.352 81.744 127.633 81.8747 128.923C81.9284 129.453 81.76 130.003 81.7952 130.538C81.8559 131.461 81.9449 132.389 82.1151 133.298C82.4396 135.031 82.8091 136.757 83.198 138.477C83.5959 140.237 84.0504 141.984 84.4604 143.742C85.0879 146.432 86.0048 149.02 87.2141 151.5C88.4337 154.001 89.8879 156.367 91.5403 158.604C92.3293 159.671 93.1508 160.735 94.0894 161.667C95.1337 162.705 96.4961 162.908 97.5929 161.671C98.2673 160.91 98.9073 160.117 99.5274 159.311C100.88 157.553 102.211 155.778 103.548 154.008C103.595 153.945 103.616 153.862 103.65 153.789C103.567 153.773 103.484 153.755 103.401 153.742C102.763 153.643 102.108 153.605 101.489 153.437C99.4517 152.885 97.8144 151.611 96.1668 150.374C94.6086 149.203 93.0767 147.998 91.5258 146.818C91.2784 146.63 91.0469 146.625 90.8605 146.96C90.3504 147.877 89.8175 148.781 89.2847 149.685C89.1961 149.835 89.063 149.96 88.9504 150.096C88.8128 149.928 88.6474 149.776 88.5425 149.589C88.1481 148.888 88.5469 148.24 88.7412 147.601C89.1514 146.253 89.4554 144.899 89.3982 143.478C89.3485 142.242 89.2835 141.005 89.3022 139.77C89.3149 138.931 89.6225 138.106 90.3466 137.668C90.8979 137.334 90.8175 136.945 90.7642 136.514C90.5733 134.973 90.2575 133.44 90.1701 131.893C90.0574 129.899 90.1078 127.896 90.4676 125.809C90.5033 125.574 90.5263 125.337 90.577 125.105C90.8138 124.025 91.0036 122.93 91.3134 121.871C91.7404 120.411 92.2345 118.968 92.7501 117.536C93.0459 116.714 94.4244 113.927 94.3256 114.763C94.2842 115.223 93.7073 117.458 93.3702 118.529C92.8471 120.191 92.3272 121.857 91.8903 123.544C91.3623 125.582 90.9667 127.65 91.0063 129.772C91.0277 130.919 91.0593 132.066 91.1158 133.212C91.1637 134.184 91.2526 135.154 91.3261 136.125C91.3511 136.454 91.5897 136.698 91.7714 136.584C92.1127 136.37 92.4501 136.15 92.7864 135.928C94.4826 134.809 95.9812 133.459 97.3679 131.982C97.6333 131.7 97.9634 131.399 98.0582 131.05C98.3357 130.03 98.5348 128.987 98.7161 127.944C98.8625 127.102 98.9382 126.247 99.0457 125.398C99.2243 123.989 99.4727 122.584 99.5544 121.169C99.5998 120.383 99.3477 119.582 99.2657 118.784C99.1851 117.999 99.1913 117.204 99.0851 116.424C98.9277 115.267 98.7545 114.107 98.4926 112.97C98.3081 112.169 98.0901 111.328 97.6665 110.64C96.8068 109.245 95.7407 107.978 94.8683 106.59C94.1903 105.512 93.602 104.333 93.4936 103.044C93.3856 101.76 93.4255 100.458 93.5003 99.1696C93.5197 98.8348 93.8476 98.3655 94.1502 98.2413C94.47 98.11 94.7377 98.5107 94.8679 98.8743C95.0625 99.4182 95.2838 99.9526 95.4946 100.491C95.5166 100.547 95.5447 100.601 95.57 100.656C95.5848 100.59 95.6156 100.524 95.6104 100.46C95.6039 100.379 95.5647 100.301 95.5458 100.22C95.2707 99.0442 94.9465 97.8816 94.9577 96.6519C94.9633 96.0389 94.8351 95.4238 94.7531 94.8115C94.7221 94.5803 94.6509 94.3545 94.5981 94.1262ZM81.8677 141.833C81.2952 141.891 80.7192 141.916 80.1442 141.946C79.3555 141.986 78.5664 142.022 77.7772 142.053C75.9491 142.127 74.1209 142.197 72.1855 142.268C70.6789 142.34 69.1728 142.429 67.6654 142.478C65.9482 142.534 64.2298 142.576 62.5118 142.579C61.8794 142.58 61.2459 142.46 60.6144 142.383C59.766 142.28 58.922 142.115 58.071 142.067C57.0902 142.012 56.8107 142.332 56.7978 143.314C56.773 145.207 56.7429 147.101 57.3375 148.933C57.5773 149.671 57.7448 150.46 58.1283 151.119C58.7025 152.107 59.7301 152.541 60.8256 152.541C62.8502 152.543 64.8749 152.42 66.8995 152.347C67.8315 152.314 68.7634 152.275 69.6954 152.241C71.6307 152.169 73.566 152.099 75.5013 152.026C76.3619 151.993 77.222 151.943 78.0828 151.921C79.7827 151.877 81.4829 151.849 83.1829 151.811L83.3069 151.808C84.1751 151.786 85.035 151.765 85.5461 152.711C85.5914 152.794 85.8507 152.762 86.0106 152.784C86.0215 152.647 86.0832 152.488 86.0354 152.377C85.6199 151.406 85.1882 150.441 84.7549 149.477C83.6977 147.127 82.9288 144.68 82.3185 142.18C82.2608 141.944 82.158 141.804 81.8677 141.833ZM96.7375 135.53C95.4693 136.183 94.2008 136.844 92.9833 137.584C92.4409 137.915 91.9534 138.394 91.5671 138.902C91.2687 139.294 91.1632 139.835 90.9781 140.311C90.4931 141.56 90.8834 142.702 91.5639 143.712C92.6257 145.289 93.8218 146.773 95.294 148C96.2002 148.756 102.8 153.314 105.239 151.245C105.578 150.957 105.721 150.518 105.918 150.133C106.725 148.557 108.028 147.224 108.299 145.389C108.408 144.655 108.504 143.899 108.442 143.166C108.371 142.319 108.115 141.487 107.947 140.647C107.836 140.095 107.805 139.51 107.254 139.166C107.184 139.122 107.108 139.09 107.034 139.052C107.016 139.134 106.971 139.22 106.985 139.297C107.15 140.254 107.248 141.207 107.58 142.154C107.979 143.294 107.773 144.522 107.305 145.668C107.098 146.178 106.379 146.421 105.888 146.362C104.52 146.197 103.383 145.526 102.392 144.594C100.993 143.279 100.121 141.636 99.421 139.802C99.2601 139.333 99.1057 138.861 98.937 138.395C98.6564 137.618 98.4026 136.829 98.0692 136.076C97.8064 135.482 97.26 135.261 96.7375 135.53ZM120.734 84.4954C120.778 84.6301 120.797 84.7806 120.87 84.8968C121.309 85.5925 121.834 85.7109 122.192 86.4447C123.017 88.1362 123.632 89.3705 124.357 91.1075C124.637 91.7795 124.666 92.6561 124.899 93.7662C124.908 93.8075 125.03 93.9237 125.119 93.9757C125.578 94.2449 126.076 94.4599 126.5 94.7758C127.711 95.6799 128.099 96.6774 127.731 97.9645C127.082 100.235 126.311 99.1 126.774 97.7451C126.962 97.1943 126.821 96.6317 126.387 96.2306C126.242 96.0968 125.593 95.77 124.792 95.3976C124.715 95.3621 124.771 95.6089 124.448 96.2619C124.351 96.457 123.976 97.0209 123.869 96.7346C123.687 96.2457 124.025 95.0474 123.869 94.978L123.703 94.904C122.427 94.3382 121.149 93.8107 120.993 93.7913C120.515 93.732 120.073 93.9655 120.068 94.8175C120.058 96.9036 119.231 98.589 117.645 99.9175C116.235 101.099 114.663 101.716 112.778 101.426C111.397 101.214 110.219 100.636 109.197 99.7138C108.296 98.9009 107.613 97.9396 107.305 96.7467C107.232 96.4602 107.152 96.479 106.955 96.6616C105.971 97.5725 105.321 98.6813 104.952 99.9619C104.908 100.114 104.899 100.277 104.874 100.434C105.042 100.42 105.217 100.429 105.377 100.386C105.841 100.26 106.299 100.112 106.76 99.974C106.82 99.9561 106.882 99.9449 106.943 99.9306C106.92 99.9822 106.891 100.032 106.874 100.085C106.659 100.746 106.183 101.161 105.556 101.382C104.856 101.628 103.793 100.947 103.992 100.244C104.135 99.7404 104.385 99.263 104.624 98.7926C105.037 97.9793 105.479 97.1805 105.962 96.3757C106.008 96.2428 106.053 96.1098 106.099 95.9769C106 96.0741 105.9 96.1713 105.747 96.2685C105.671 96.3801 105.616 96.5159 105.517 96.5996C104.139 97.7607 102.602 98.3935 100.746 98.2172C99.6871 98.1167 98.7654 97.7453 97.8931 97.1991C97.1563 96.7376 96.3637 97.0162 96.2795 97.874C96.2207 98.4723 96.2823 99.112 96.434 99.6958C96.9253 101.587 97.4514 103.46 98.2585 105.264C98.8524 106.592 99.6805 107.511 101.031 107.948C102.043 108.275 103.065 108.6 104.107 108.795C105.358 109.031 106.628 109.022 107.888 108.72C108.804 108.501 109.743 108.375 110.662 108.164C111.554 107.959 112.485 107.813 113.308 107.439C115.308 106.532 118.869 103.553 120.476 102.072C120.552 102.002 120.628 101.931 120.704 101.861C120.719 101.962 120.753 102.064 120.746 102.164C120.684 103.095 118.34 105.318 117.502 105.723C117.341 105.8 117.297 106.119 117.199 106.326C117.378 106.405 117.555 106.541 117.736 106.547C117.942 106.554 118.15 106.436 118.361 106.394C118.42 106.383 118.546 106.443 118.553 106.485C118.603 106.807 118.658 107.133 118.663 107.458C118.677 108.375 118.686 109.293 118.658 110.21C118.649 110.521 118.559 110.842 118.448 111.138C117.708 113.118 116.908 115.077 116.215 117.073C115.585 118.889 114.995 120.725 114.522 122.587C114.181 123.93 113.933 125.325 113.874 126.706C113.792 128.626 113.759 130.553 114.144 132.473C114.57 134.596 115.379 136.543 116.531 138.348C117.781 140.305 119.081 142.23 120.401 144.141C120.727 144.613 121.068 145.12 121.644 145.363C121.791 145.426 122.176 145.352 122.386 145.226C122.618 145.086 122.694 144.845 122.539 144.523C122.01 143.421 121.525 142.299 121.028 141.183C120.302 139.554 119.574 137.926 118.859 136.292C117.626 133.471 117.15 130.483 117.086 127.441C117.049 125.666 117.259 123.884 117.387 122.108C117.462 121.077 117.557 120.046 117.712 119.025C117.965 117.352 118.301 115.691 118.554 114.018C118.828 112.205 119.287 110.454 120.196 108.854C120.878 107.654 121.768 106.612 123.059 106.035C124.619 105.338 126.088 104.563 127.177 103.168C128.191 101.869 128.807 100.422 128.945 98.809C129.127 96.6943 128.631 94.7271 127.349 92.9917C126.272 91.5332 125.25 90.0443 124.448 88.4054C123.636 86.7473 122.71 85.6866 121.068 84.6745C120.961 84.6083 120.846 84.5548 120.734 84.4954ZM94.0717 99.1757C94.0141 99.3403 93.9145 99.5027 93.9054 99.67C93.8215 101.212 94.0476 102.728 94.563 104.167C95.0047 105.401 95.5357 106.629 96.4257 107.626C97.1292 108.414 97.595 109.404 98.4845 110.034C98.5635 110.09 98.5828 110.239 98.6154 110.35C98.9016 111.318 99.214 112.281 99.4599 113.26L99.5253 113.522C99.7304 114.355 99.9055 115.198 99.7984 116.071C99.7832 116.194 99.7841 116.322 99.7981 116.446C99.974 117.998 100.149 119.551 100.334 121.102C100.485 122.366 100.032 123.555 99.8992 124.784C99.8151 125.564 99.6997 126.342 99.5789 127.117C99.4487 127.953 99.308 128.789 99.1496 129.62C98.986 130.478 98.8708 131.357 98.5869 132.176C98.4311 132.625 98.4832 132.951 98.6367 133.341C98.9634 134.17 99.2522 135.015 99.585 135.843C100.361 137.773 101.102 139.72 101.958 141.614C102.608 143.055 103.744 144.039 105.292 144.494C106.042 144.714 106.717 144.452 106.844 143.837C106.905 143.541 106.87 143.207 106.802 142.909C106.733 142.611 106.489 142.343 106.459 142.048C106.38 141.245 106.372 140.435 106.337 139.628C106.331 139.486 106.34 139.343 106.326 139.203C106.225 138.227 106.113 137.252 106.017 136.276C105.931 135.391 105.882 134.503 105.778 133.62C105.666 132.673 105.495 131.734 105.378 130.787C105.311 130.252 105.327 129.706 105.259 129.171C105.137 128.209 104.941 127.255 104.845 126.291C104.703 124.874 104.609 123.451 104.518 122.029C104.43 120.666 104.335 119.301 104.309 117.936C104.273 116.06 104.269 114.183 104.317 112.308C104.333 111.677 104.526 111.046 104.684 110.427C104.75 110.165 104.729 110.126 104.456 110.09C103.582 109.976 102.703 109.864 101.847 109.661C100.421 109.323 99.2597 108.558 98.5142 107.266C97.725 105.899 96.9726 104.51 96.1506 103.077C95.9735 102.829 95.7831 102.589 95.6224 102.33C95.3246 101.851 95.0021 101.38 94.7704 100.869C94.594 100.481 94.564 100.028 94.4244 99.6185C94.367 99.4504 94.1928 99.3221 94.0717 99.1757ZM119.054 82.5413C119.004 82.5468 118.955 82.5612 118.905 82.5715C118.941 82.622 118.965 82.6883 119.013 82.7207C119.611 83.1282 120.218 83.5235 120.813 83.9362C122.125 84.8466 123.252 85.4153 124.132 86.7494C125.222 88.4019 126.291 90.0686 127.351 91.7408C128.362 93.3376 129.315 94.9399 129.526 96.9045C129.665 98.2025 129.596 99.4522 129.211 100.667C128.345 103.401 126.511 105.324 123.89 106.4C122.045 107.157 120.967 108.53 120.296 110.279C119.898 111.315 119.654 112.415 119.407 113.501C119.09 114.895 118.812 116.3 118.57 117.71C118.382 118.804 118.254 119.91 118.137 121.015C117.974 122.544 117.747 124.075 117.731 125.607C117.714 127.188 117.859 128.777 118.044 130.349C118.185 131.549 118.426 132.748 118.748 133.913C119.636 137.132 121.29 140.013 122.853 142.93C123.11 143.411 123.639 143.524 123.948 143.118C124.131 142.876 124.238 142.439 124.156 142.155C123.736 140.709 123.204 139.296 122.785 137.849C122.132 135.596 121.539 133.326 120.92 130.956C120.884 130.917 120.823 130.883 120.816 130.839C120.668 129.899 120.512 128.959 120.387 128.016C120.229 126.826 119.994 125.634 119.979 124.441C119.957 122.65 120.014 120.848 120.196 119.066C120.336 117.701 120.65 116.342 121.011 115.015C121.654 112.657 122.685 110.462 124.144 108.491C124.719 107.714 125.357 106.981 126.003 106.26C126.791 105.382 127.732 104.618 128.401 103.662C129.678 101.837 130.228 99.7133 130.333 97.5094C130.389 96.348 130.338 95.1505 130.111 94.0142C129.805 92.4877 129.356 90.979 128.838 89.5085C128.018 87.1796 126.767 85.1219 124.732 83.6144C123.035 82.3571 121.163 82.3123 119.054 82.5413ZM119.666 79.5641C118.785 79.5385 117.897 80.2862 117.014 80.4064C116.978 80.4112 116.919 80.5855 116.946 80.6477C117.2 81.2274 117.718 81.5365 118.275 81.6653C119.313 81.9053 120.374 81.5121 121.426 81.6847C123.915 82.0927 125.777 83.553 127.327 85.3969C128.62 86.9363 129.484 88.7639 129.985 90.7171C130.361 92.182 130.735 93.6723 130.854 95.1716C130.983 96.7981 130.961 98.444 130.592 100.079C130.148 102.05 129.32 103.784 127.953 105.261C127.245 106.028 126.498 106.759 125.799 107.535C124.798 108.645 123.988 109.892 123.278 111.206C122.488 112.667 121.859 114.19 121.392 115.786C120.868 117.575 120.544 119.404 120.517 121.256C120.495 122.746 120.669 124.244 120.824 125.731C120.945 126.896 121.121 128.06 121.359 129.207C121.786 131.256 122.241 133.301 122.755 135.329C123.157 136.917 123.647 138.49 124.452 139.929C124.644 140.272 125.032 140.68 125.374 140.724C125.922 140.796 126.751 139.438 126.599 138.887C126.387 138.118 126.174 137.348 125.959 136.579C125.255 134.056 124.933 131.462 124.815 128.864C124.716 126.704 124.875 124.526 125.012 122.362C125.096 121.037 125.292 119.71 125.546 118.405C125.833 116.931 126.25 115.482 126.596 114.019C127.015 112.242 127.984 110.698 128.685 109.041C129.457 107.216 130.293 105.417 131.019 103.575C131.621 102.045 131.971 100.443 132.199 98.8047C132.391 97.4302 132.489 96.0526 132.258 94.7051C131.999 93.1982 131.565 91.716 131.129 90.2464C130.541 88.2666 129.857 86.3133 129.927 84.0983C129.968 83.1722 129.405 82.5981 128.729 82.1196C127.617 81.3331 126.316 80.9585 125.052 80.5167C123.311 79.9082 121.499 79.6172 119.666 79.5641ZM80.6088 133.963C80.0421 134.974 79.4948 135.996 78.8872 137.068C78.8117 137.215 78.7357 137.362 78.6607 137.509C78.3044 138.209 77.711 138.844 78.2083 139.743C78.3147 139.935 78.3421 140.035 78.5727 140.021C79.3951 139.974 80.2244 139.991 81.0385 139.886C81.3401 139.847 81.7632 139.592 81.8512 139.338C81.9698 138.997 81.8393 138.558 81.7772 138.167C81.6902 137.62 81.5592 137.08 81.4641 136.534C81.4138 136.245 81.3823 135.951 81.3729 135.658C81.3544 135.078 81.4117 134.51 80.9936 133.992C80.7963 133.747 80.7138 133.775 80.6088 133.963ZM130.68 85.1559C130.746 85.877 130.728 86.6225 130.913 87.3128C131.347 88.9294 131.906 90.5121 132.365 92.1225C132.743 93.4481 133.059 94.794 133.032 96.1879C133.019 96.8704 132.963 97.5521 132.929 98.2344C132.853 99.7806 132.441 101.258 131.991 102.725C131.077 105.708 129.601 108.454 128.371 111.304C127.835 112.546 127.399 113.843 127.052 115.151C126.677 116.563 126.422 118.012 126.186 119.456C125.986 120.674 125.781 121.908 125.767 123.137C125.737 125.716 125.617 128.302 125.956 130.875C126.082 131.829 126.174 132.788 126.281 133.851C126.46 135.028 126.604 136.212 126.841 137.378C126.902 137.68 127.213 138.107 127.475 138.16C128.333 138.335 129.029 137.927 129.383 137.114C129.923 135.875 130.321 134.644 129.957 133.22C129.604 131.843 129.463 130.407 129.293 128.99C129.109 127.457 128.945 125.919 128.869 124.378C128.784 122.666 128.8 120.942 129.187 119.26C129.475 118.014 129.802 116.769 130.221 115.562C130.973 113.392 131.89 111.278 132.587 109.093C133.51 106.197 133.975 103.195 134.201 100.168C134.293 98.9354 134.201 97.6903 134.219 96.4514C134.247 94.6549 134.104 92.8736 133.784 91.1075C133.586 90.014 133.421 88.9085 133.127 87.8397C132.793 86.6243 132.086 85.6454 130.954 84.9972C130.651 84.8235 130.659 84.9312 130.68 85.1559ZM133.826 87.4901C133.849 87.6284 133.872 87.7666 133.894 87.9585C134.144 89.3736 134.461 90.781 134.627 92.2059C134.812 93.7962 134.918 95.4013 134.948 97.0021C134.97 98.2571 134.862 99.519 134.742 100.771C134.609 102.149 134.472 103.534 134.197 104.888C133.819 106.752 133.388 108.614 132.836 110.433C132.338 112.072 131.662 113.66 131.036 115.259C129.914 118.124 129.374 121.084 129.495 124.163C129.515 124.68 129.457 125.203 129.506 125.716C129.623 126.928 129.768 128.138 129.933 129.344C130.04 130.131 130.231 130.906 130.334 131.693C130.444 132.533 130.633 133.399 130.522 134.217C130.447 134.773 130.7 135.105 130.862 135.515C130.906 135.626 131.143 135.706 131.298 135.719C131.721 135.754 132.389 135.14 132.61 134.585C133.166 133.185 133.307 131.708 133.335 130.231C133.352 129.349 133.124 128.464 133.041 127.577C132.922 126.304 132.722 125.024 132.763 123.754C132.813 122.213 133.016 120.669 133.269 119.146C133.502 117.745 133.772 116.33 134.234 114.993C135.345 111.785 136.008 108.506 136.14 105.12C136.208 103.385 136.229 101.648 136.247 99.9116C136.252 99.3373 136.176 98.7624 136.147 98.1873C136.106 97.3626 136.125 96.5315 136.028 95.7139C135.852 94.2437 135.719 92.7543 135.362 91.3243C135.059 90.1111 134.466 88.9704 134.001 87.744C133.943 87.6594 133.885 87.5748 133.826 87.4901ZM136.504 93.0688C136.456 93.1383 136.384 93.2021 136.366 93.2787C136.342 93.3802 136.352 93.4924 136.362 93.5987C136.467 94.7513 136.605 95.9019 136.674 97.0566C136.746 98.2722 136.749 99.4918 136.793 100.709C136.801 100.928 136.861 101.144 136.897 101.469C136.861 102.401 136.852 103.335 136.783 104.265C136.662 105.904 136.599 107.556 136.334 109.174C136.067 110.802 135.674 112.423 135.174 113.994C134.338 116.619 133.648 119.271 133.488 122.021C133.399 123.536 133.51 125.064 133.58 126.584C133.654 128.173 133.776 129.76 133.901 131.346C133.939 131.834 133.99 132.339 134.152 132.795C134.272 133.129 134.582 133.394 134.808 133.69C135.106 133.391 135.509 133.141 135.681 132.782C136 132.115 136.245 131.397 136.407 130.675C136.598 129.83 136.745 128.96 136.765 128.097C136.78 127.412 136.511 126.724 136.482 126.033C136.431 124.814 136.426 123.59 136.479 122.371C136.538 121.003 136.655 119.635 136.797 118.271C136.942 116.877 137.156 115.49 137.323 114.098L137.486 112.738C137.621 111.605 137.751 110.472 137.853 109.336C137.968 108.047 138.054 106.752 138.064 105.459C138.077 103.742 138.022 102.023 137.963 100.306C137.924 99.1911 137.851 98.076 137.748 96.9653C137.625 95.6564 137.242 94.4166 136.617 93.2557C136.583 93.1916 136.542 93.131 136.504 93.0688ZM162.067 124.169C163.032 124.392 164.001 124.6 164.973 124.785C165.527 124.89 166.092 124.934 166.705 125.005C168.072 125.112 169.384 125.278 170.699 125.314C173.175 125.383 175.588 124.979 177.921 124.134C177.952 124.123 177.972 124.064 177.998 124.063C178.225 124.057 178.452 124.059 178.679 124.058C178.527 124.195 178.394 124.362 178.221 124.464C176.936 125.227 175.566 125.724 174.08 125.991C172.428 126.288 170.771 126.243 169.13 126.151C167.323 126.049 165.522 125.79 163.743 125.354C162.234 124.985 160.782 124.493 159.349 123.919C159.259 123.883 159.18 123.819 159.095 123.769C159.178 123.752 159.26 123.737 159.342 123.718C160.314 123.487 161.167 123.961 162.067 124.169ZM162.905 110.536C163.494 110.751 164.079 110.979 164.657 111.22C165.007 111.366 165.344 111.545 165.714 111.736C167.375 112.481 169.055 113.018 170.823 113.341C172.511 113.649 174.199 113.691 175.889 113.617C176.949 113.57 178 113.302 179.056 113.14C179.185 113.12 179.321 113.142 179.453 113.144C179.373 113.269 179.322 113.442 179.208 113.509C178.086 114.165 176.898 114.609 175.584 114.717C172.436 114.977 169.486 114.19 166.649 112.961C165.315 112.383 164.085 111.565 162.812 110.846C162.704 110.786 162.634 110.658 162.546 110.561C162.667 110.55 162.802 110.499 162.905 110.536ZM79.7875 110.541C79.6998 110.736 79.6234 110.937 79.522 111.124C79.315 111.507 78.9777 111.854 79.1064 112.337C79.3025 113.071 79.5285 113.798 79.7509 114.525C79.762 114.561 79.9068 114.595 79.9094 114.59C79.9686 114.473 80.0166 114.35 80.0667 114.122C80.1671 113.95 80.2356 113.743 80.3756 113.614C80.567 113.438 80.5922 113.302 80.5064 113.05C80.2877 112.409 80.1227 111.749 79.9375 111.097C79.8851 110.912 79.8374 110.726 79.7875 110.541ZM80.9837 107.747C80.9282 107.809 80.854 107.863 80.8203 107.935C80.6191 108.367 80.3691 108.787 80.2441 109.241C79.9739 110.223 80.44 111.136 80.6028 112.077C80.6743 112.044 80.7822 112.03 80.8116 111.975C81.1213 111.393 81.4442 110.815 81.705 110.212C81.7973 109.998 81.7924 109.695 81.7199 109.468C81.6158 109.144 81.4091 108.852 81.2462 108.439C81.2104 108.293 81.1849 108.145 81.1353 108.004C81.1028 107.912 81.0355 107.833 80.9837 107.747ZM82.2299 102.702C82.1879 102.813 82.1074 102.925 82.1101 103.036C82.1297 103.831 81.9095 104.562 81.6235 105.298C81.4438 105.761 81.3421 106.248 81.4211 106.807C81.5053 107.404 81.8926 107.733 82.1634 108.168C82.2857 108.365 82.462 108.528 82.6138 108.707C82.7477 108.528 82.8815 108.349 83.069 108.117C83.2832 107.724 83.5073 107.336 83.7096 106.937C84.1589 106.051 84.1542 106.049 83.4434 105.273C83.3857 105.21 83.3336 105.142 83.2839 105.072C82.8399 104.451 82.5934 103.752 82.4527 103.006C82.4316 102.895 82.3067 102.803 82.2299 102.702ZM83.7539 99.1757C83.7035 99.2618 83.6485 99.3455 83.6036 99.4344C83.3879 99.8619 83.2173 100.319 82.9512 100.712C82.5396 101.32 82.8273 101.888 82.9646 102.466C83.2122 103.51 83.5465 104.518 84.2678 105.349C84.4345 105.541 84.4326 105.543 84.6238 105.168C84.9765 104.673 85.317 104.168 85.6873 103.685C85.8606 103.46 86.0158 103.318 85.728 103.034C85.4052 102.715 85.0953 102.343 84.9069 101.936C84.5273 101.115 84.2354 100.253 83.9027 99.4107C83.8693 99.326 83.8043 99.2537 83.7539 99.1757ZM99.169 102.614C99.5458 102.788 99.9121 103.018 100.225 103.291C101.094 104.049 102.085 104.393 103.233 104.317C103.394 104.306 106.81 104.134 106.554 104.573C106.38 104.872 103.801 105.369 103.505 105.373C102.317 105.388 100.891 104.821 100.294 104.573C100.053 104.473 98.2769 103.403 98.6105 102.776C98.7396 102.533 99.0361 102.553 99.169 102.614ZM85.436 96.5285C85.2546 96.8076 84.9951 97.0654 84.9118 97.3712C84.8095 97.7465 84.4454 98.0407 84.5689 98.484C84.8233 99.3974 85.0195 100.331 85.3393 101.221C85.5408 101.781 85.9219 102.277 86.2311 102.797C86.238 102.808 86.3783 102.777 86.4093 102.732C86.8294 102.131 87.3935 101.713 88.1086 101.362C88.2891 101.237 88.4591 101.092 88.6526 100.992C88.8795 100.874 88.8519 100.848 88.649 100.71C87.3618 99.8388 86.4693 98.6255 85.7526 97.2706C85.6273 97.0337 85.5406 96.7764 85.436 96.5285ZM26.1608 86.1068C26.1987 86.1639 26.2328 86.224 26.275 86.2777C27.323 87.6129 28.3721 88.9471 29.4199 90.2824C29.525 90.4162 29.6228 90.5558 29.7508 90.7195C30.801 91.8055 31.7771 92.9162 32.86 93.9106C34.173 95.1161 35.571 96.2297 36.9422 97.3709C37.9295 98.1926 38.9153 99.0383 40.1401 99.4822C40.9202 99.7649 41.7375 100.037 42.5553 100.104C44.3776 100.254 46.2125 100.243 48.0383 100.36C48.5922 100.396 49.1352 100.629 49.677 100.792C49.7573 100.816 49.9867 100.944 49.6349 100.996C48.6148 101.147 47.6063 101.382 46.5839 101.508C45.9619 101.585 45.3225 101.53 44.6911 101.521C43.0659 101.497 41.5312 101.081 40.0336 100.472C38.1258 99.697 36.4173 98.6087 34.8874 97.2422C33.8364 96.3035 32.7399 95.3975 31.8061 94.3499C30.1389 92.4795 28.5502 90.5362 26.9915 88.5734C26.4897 87.9415 26.1681 87.1587 26.1335 86.3092C26.1308 86.2422 26.1512 86.1743 26.1608 86.1068ZM87.0054 93.7892C86.5311 94.3872 85.9233 94.9496 86.0837 95.8088C86.1988 96.4252 86.4169 97.0241 86.6099 97.6241C87.0281 98.9241 88.1009 99.6559 89.1035 100.442C89.157 100.484 89.3414 100.441 89.4034 100.378C90.2428 99.5188 91.0713 98.6491 91.9026 97.7823C92.0619 97.6162 92.2865 97.4724 91.8089 97.4337C91.4875 97.4076 91.1786 97.2411 90.8613 97.1464C90.4635 97.0276 90.0628 96.9181 89.5562 96.8046C89.1817 96.4659 88.8394 96.0796 88.4255 95.799C87.7216 95.3216 87.2858 94.7012 87.1383 93.8681C87.1321 93.8333 87.0105 93.7827 87.0054 93.7892ZM112.941 90.1599L112.574 90.2823C111.638 90.5956 110.708 90.929 109.957 91.627C109.094 92.4281 108.652 93.458 108.382 94.5651C108.327 94.7889 108.289 95.0111 108.268 95.2307C108.288 95.1487 108.313 95.0688 108.339 94.9959C108.411 94.7983 108.593 94.636 108.741 94.4717L108.801 94.4061C109.093 94.0936 109.406 93.855 109.876 94.1614C110.395 94.4989 110.166 94.919 110.021 95.3299C109.972 95.4686 109.898 95.5984 109.809 95.7592C109.568 96.1584 109.238 96.3754 108.826 96.2498C108.602 96.1817 108.354 95.9559 108.269 95.7411C108.263 95.7242 108.257 95.7067 108.252 95.6887C108.27 96.4425 108.513 97.1565 109.031 97.7884C109.483 98.341 110.035 98.8234 110.591 99.2772C111.938 100.376 113.45 100.569 114.982 99.7714C116.933 98.7555 117.904 96.9147 118.775 94.9282C118.83 94.4824 118.954 94.032 118.924 93.5918C118.867 92.7279 118.311 92.1165 117.684 91.5949C116.311 90.4511 114.854 89.5177 112.941 90.1599ZM89.0178 89.8372C88.8934 89.9818 88.7605 90.1203 88.6484 90.2738C88.592 90.3509 88.5664 90.4535 88.5386 90.5481C88.2866 91.4069 87.9836 92.2556 87.8065 93.1298C87.6953 93.6782 87.8387 94.2477 88.2159 94.8209C88.6428 95.1247 89.069 95.4297 89.497 95.7321C90.3602 96.3419 91.3792 96.5375 92.3731 96.7914C92.4541 96.8121 92.6488 96.6654 92.6794 96.5632C92.957 95.6358 93.2107 94.7012 93.4636 93.7666C93.4686 93.748 93.3814 93.6814 93.3322 93.6748C92.4569 93.5589 91.591 93.5088 90.85 92.8727C90.0398 92.1773 89.5424 91.3217 89.1821 90.3531C89.1192 90.1842 89.0722 90.0093 89.0178 89.8372ZM99.1301 86.0769C98.0929 86.2499 97.4107 87.0087 96.8147 87.8293C96.0853 88.8335 95.6735 89.9691 95.6335 91.1924C95.6002 92.207 95.8893 93.1834 96.3602 94.0996L96.4349 94.2452C96.7208 94.8019 97.0112 95.333 97.6286 95.631C99.1583 96.3694 100.762 96.6156 102.429 96.3618C102.928 96.2858 103.512 96.1686 103.867 95.8553C105.228 94.6546 105.982 93.1082 106.176 91.2289C106.158 90.8222 106.164 90.4128 106.118 90.0094C105.98 88.8053 105.347 87.8891 104.413 87.1532C103.592 86.5062 102.631 86.1353 101.627 86.0022C100.81 85.8939 99.9467 85.9406 99.1301 86.0769ZM101.728 78.4163C101.172 80.0918 100.619 81.7683 100.076 83.4477C100.197 83.4233 100.325 83.3755 100.426 83.4096C101.03 83.6145 101.611 83.8601 102.084 84.3228C102.35 84.5831 102.675 84.7827 103 85.0365C103.069 85.0952 103.137 85.1504 103.204 85.2041C103.244 85.2144 103.284 85.2255 103.323 85.2368C104.54 85.5815 105.59 86.2249 106.338 87.289C107.337 88.7116 107.58 90.3721 107.838 92.0283C107.851 92.1126 107.861 92.1974 107.873 92.282C107.959 92.2442 108.059 92.2232 108.129 92.1651C108.265 92.0508 108.386 91.9173 108.51 91.7894C109.485 90.7896 110.579 89.9327 111.838 89.3389C113.177 88.7078 114.555 88.5516 116.004 89.128C117.092 89.5608 117.965 90.256 118.815 91.0079C119.186 91.3357 120.928 92.1662 124.042 93.4995C123.533 91.349 123.008 89.8039 122.468 88.8642C121.788 87.6806 121.021 86.7765 120.064 85.8921C118.394 84.3471 116.646 82.9275 114.707 81.7282C112.666 80.4664 110.461 79.6291 108.165 79.0133C106.551 78.5806 104.915 78.2292 103.291 77.8336C102.582 77.6607 101.9 77.8991 101.728 78.4163ZM91.1291 87.8047C90.2761 88.3828 89.5957 89.369 89.983 90.5832C90.4123 91.9293 91.9304 93.0925 93.3709 93.1442C93.5074 93.1491 93.717 92.9775 93.7791 92.8374C93.9526 92.446 94.0756 92.0308 94.1959 91.6184C94.2189 91.5398 94.1402 91.3488 94.1053 91.3481C93.1915 91.3279 92.6074 90.743 91.9688 90.103C91.5565 89.4282 91.2745 88.716 91.3166 87.9044C91.3183 87.8722 91.1584 87.7848 91.1291 87.8047ZM46.3915 89.2491C46.8653 89.4849 47.3372 89.728 47.7906 90.0005C48.7339 90.5673 49.6456 91.19 50.6092 91.7188C51.1229 92.0007 51.7198 92.1293 52.2744 92.3399C52.3967 92.3863 52.4985 92.4866 52.6097 92.5621C52.4951 92.6181 52.3604 92.6517 52.2689 92.7336C51.6025 93.3303 50.9756 92.7785 50.3533 92.6498C49.0679 92.3839 48.1696 91.5024 47.2823 90.5587C46.8922 90.2044 46.5231 89.8831 46.1701 89.545C46.0854 89.4638 46.0541 89.3269 45.9983 89.2157C46.1305 89.2246 46.282 89.1946 46.3915 89.2491ZM97.3792 90.2318C97.8307 90.4231 97.7912 90.786 97.7668 91.1375C97.7265 91.7201 96.9333 92.4815 96.4256 92.3876C96.2445 92.3542 95.9722 92.0792 95.9764 91.9207C95.9874 91.5095 96.1288 91.1018 96.245 90.6659C96.3223 90.5886 96.3734 90.5388 96.4231 90.4876C96.6904 90.2117 96.9647 90.0562 97.3792 90.2318ZM92.6657 86.1892C92.5049 86.4254 92.2839 86.6407 92.1934 86.9014C91.7501 88.1787 92.56 90.1709 94.2478 90.6559C94.3284 90.679 94.5082 90.6061 94.5322 90.5388C94.7982 89.7931 95.044 89.04 95.2894 88.2871C95.305 88.2393 95.2724 88.1264 95.2612 88.1263C94.0052 88.1089 93.3949 87.3361 93.03 86.2542C93.0075 86.1873 92.8266 86.1739 92.6657 86.1892ZM114.723 88.5069C114.83 88.5636 114.918 88.6549 115.015 88.7302C114.91 88.7053 114.806 88.6739 114.7 88.6564C113.601 88.4761 112.501 88.3023 111.404 88.1143C111.251 88.0881 111.109 87.9951 110.962 87.933C111.123 87.8879 111.283 87.8427 111.498 87.7976C112.667 87.7753 113.732 87.9806 114.723 88.5069ZM95.3399 82.8717C95.217 83.0526 95.0921 83.2323 94.9733 83.4159C94.9571 83.4411 94.984 83.4926 94.9692 83.5205C94.6285 84.1644 94.3009 84.816 93.9354 85.4457C93.731 85.7981 93.7194 86.4884 94.0245 86.6747C94.4599 86.9406 94.9334 87.1447 95.3946 87.3672C95.7007 87.515 95.8858 87.3277 96.0403 87.1017C96.3343 86.6717 96.6039 86.2237 96.9167 85.8082C97.1611 85.4834 96.9197 85.5509 96.6867 85.4923C95.5748 85.2143 95.447 84.2843 95.2988 83.3771C95.2723 83.2152 95.3242 83.0405 95.3399 82.8717ZM97.1593 80.3017C97.0018 80.4294 96.7855 80.5253 96.6965 80.6901C96.2033 81.6031 96.0194 82.6021 96.0539 83.6261C96.0808 84.4278 96.5734 84.9747 97.3493 85.1803C97.4566 85.2087 97.6091 85.1655 97.709 85.104C97.9674 84.9449 98.2082 84.7571 98.5096 84.5272C98.6168 84.3399 98.7534 84.163 98.8242 83.9629C98.9236 83.6815 98.9882 83.3853 99.0381 83.0905C99.0556 82.9872 99.0225 82.8195 98.9499 82.7657C98.2314 82.2326 97.697 81.5574 97.3312 80.7453C97.2662 80.6009 97.2162 80.4498 97.1593 80.3017ZM100.062 83.493L99.8411 84.1739C99.8167 84.2497 99.9215 84.445 99.9954 84.4627C100.65 84.6198 101.311 84.7533 101.968 84.9002C101.606 84.6338 101.245 84.3665 100.883 84.1015C100.694 83.9635 100.484 83.8548 100.293 83.7186C100.207 83.6566 100.136 83.5719 100.062 83.493ZM100.409 75.6655C100.035 75.9815 99.6777 76.318 99.2601 76.6997C98.5563 77.2408 98.2676 78.0162 98.0919 78.8388C97.8582 79.9335 97.9739 80.9492 98.8532 81.7663C99.1511 82.0432 99.3469 81.9257 99.4702 81.6228C99.8496 80.691 100.21 79.7516 100.576 78.8144C100.96 77.8304 101.177 76.8502 100.782 75.7944C100.66 75.4704 100.572 75.5277 100.409 75.6655ZM113.8 76.6648C113.333 76.7698 112.802 77.486 112.613 78.0413C112.53 78.2853 112.408 78.4739 112.881 78.6036C113.92 78.888 114.911 79.3414 115.827 80.0745C116.033 80.0829 116.246 80.1288 116.444 80.093C117.188 79.9583 117.924 79.1603 118.669 79.1376C119.672 79.1071 120.688 79.2004 121.685 79.3419C122.713 79.488 123.75 79.6737 124.736 79.9904C126.038 80.4085 127.293 80.9713 128.568 81.4702C128.653 81.5035 128.744 81.5219 128.832 81.5472C128.809 81.4736 128.774 81.4014 128.765 81.3261C128.705 80.8299 128.373 80.5193 127.983 80.299C126.871 79.6709 125.761 79.0324 124.611 78.4789C122.688 77.5526 120.701 76.8312 118.561 76.5156C116.947 76.2777 115.37 76.3121 113.8 76.6648ZM112.664 73.8594C111.081 73.9257 109.752 74.5247 108.758 75.7839C108.277 76.3933 108.385 77.2832 109.118 77.4973C110.027 77.7633 110.945 78.0015 111.966 78.2517C112.181 77.93 112.33 76.9864 112.623 76.7702C113.44 76.1667 114.411 75.9208 115.416 75.9057C116.294 75.8925 117.18 75.9083 118.049 76.0179C119.083 76.1485 120.124 76.3204 121.125 76.6027C123.332 77.2243 125.384 78.2277 127.389 79.3258C127.511 79.3924 127.64 79.4447 127.766 79.5037C127.764 79.3125 127.786 79.1168 127.751 78.9319C127.734 78.8449 127.62 78.7621 127.532 78.7052C126.744 78.1959 125.987 77.6233 125.154 77.2022C123.414 76.3231 121.639 75.5229 119.751 74.9824C117.431 74.3177 115.102 73.7574 112.664 73.8594ZM109.377 70.1997C107.618 70.393 106.083 70.9816 104.9 72.3451C104.215 73.1352 103.805 74.0362 103.764 75.1985C103.764 75.3596 103.731 76.0627 103.772 76.2127C103.823 76.4005 103.904 76.7006 104.024 76.7284C104.555 76.8511 105.103 76.9049 105.647 76.9524C105.726 76.9593 105.884 76.8059 105.897 76.7118C105.956 76.2826 105.912 75.2976 106.022 74.885C106.446 73.2879 107.592 72.3707 109.076 71.8255C110.322 71.3674 111.619 71.3586 112.936 71.3728C114.89 71.394 116.799 71.6763 118.678 72.1589C119.44 72.3543 120.157 72.7253 120.888 73.0315C120.982 73.071 121.039 73.2017 121.113 73.2901C121.003 73.2735 120.888 73.2734 120.785 73.2379C118.3 72.3799 115.729 71.9777 113.116 71.8272C111.834 71.7533 110.549 71.8857 109.333 72.2705C107.989 72.6958 106.86 73.4576 106.402 74.9172C106.154 75.705 106.51 76.9349 107.279 77.2189C107.727 77.3847 107.888 77.1764 108.063 76.8111C108.285 76.3464 108.52 75.3281 108.859 74.9505C109.928 73.76 111.373 73.3656 112.895 73.345C113.903 73.3314 114.927 73.472 115.922 73.6589C117.419 73.9399 118.921 74.2387 120.376 74.6802C122.552 75.3408 124.632 76.2544 126.552 77.4993C126.69 77.5884 126.869 77.613 127.029 77.6676C126.98 77.5098 126.95 77.3431 126.88 77.1956C126.007 75.363 124.941 73.6635 123.393 72.3157C122.485 71.5254 121.451 70.9375 120.279 70.6511C119.429 70.4435 118.572 70.3918 117.677 70.5039C116.833 70.6095 115.958 70.4685 115.098 70.4245C114.683 70.4033 114.266 70.3774 113.856 70.3158C112.367 70.0921 110.882 70.0344 109.377 70.1997ZM103.277 73.5365C103.216 73.5627 103.148 73.5781 103.097 73.6166C102.784 73.8523 102.503 74.153 102.157 74.3187C101.597 74.5871 101.698 75.0127 101.773 75.4586C101.784 75.523 101.827 75.5834 101.831 75.6473C101.853 75.9785 101.867 76.3103 101.883 76.6419C101.958 77.1066 102.529 77.1066 102.906 77.0186C102.977 76.7454 103.078 76.476 103.114 76.1982C103.198 75.5508 103.252 74.3661 103.314 73.7158C103.319 73.6578 103.29 73.5964 103.277 73.5365ZM82.6384 43.6048C82.7375 43.7249 82.6623 44.0004 82.6407 44.2047C82.6269 44.3347 82.5305 44.4628 82.5389 44.5872C82.6367 46.0265 82.7844 47.4634 82.8435 48.904C82.8961 50.1884 82.8524 51.4766 82.8572 52.7632C82.8578 52.9324 82.8769 53.2434 82.9171 53.2483C83.2332 53.2874 83.5567 53.2725 83.8769 53.2559C83.8976 53.2548 83.9312 53.0993 83.9229 53.0193C83.8981 52.7828 83.8448 52.5493 83.8213 52.3127C83.6749 50.8356 83.4865 49.3605 83.4051 47.8797C83.3355 46.6148 83.3666 45.3422 83.4161 44.0755C83.4237 43.8813 83.7577 43.5661 83.9637 43.5463C84.2372 43.52 84.3947 43.7917 84.3647 44.1336C84.3273 44.5591 84.3238 44.9933 84.3615 45.4188C84.4893 46.8619 84.6394 52.8458 84.6894 53.2011C84.6944 53.2365 84.8674 53.2678 84.9624 53.2679C87.5891 53.2715 90.216 53.2921 92.8423 53.2611C94.0106 53.2473 95.1773 53.1228 96.3453 53.0581C97.1519 53.0134 97.9636 53.0251 98.7658 52.9414C101.004 52.7081 103.245 52.6211 105.495 52.6097C106.63 52.604 107.763 52.3974 108.9 52.3095C110.48 52.1873 112.061 52.0549 113.645 51.9934C115.576 51.9185 117.51 51.9061 119.443 51.8838C119.738 51.8804 119.873 51.8633 119.858 51.4992C119.797 50.0677 119.78 48.6344 119.739 47.202C119.711 46.216 119.673 45.2301 119.63 44.2446C119.618 43.9605 119.701 43.8269 120.015 43.8269C120.34 43.8269 120.382 43.9853 120.389 44.2568C120.411 45.2072 120.348 46.1765 120.516 47.1026C120.767 48.4879 120.663 49.8697 120.706 51.2532C120.722 51.782 120.971 51.978 121.472 51.8787C121.705 51.8324 121.942 51.7745 122.178 51.7742C127.074 51.7682 131.97 51.7609 136.866 51.7746C138.495 51.7791 142.791 51.8357 144.419 51.8805C144.852 51.8923 145.284 51.9398 145.715 51.9864C146.17 52.0358 146.527 52.5059 146.531 53.0665C146.538 54.0313 146.533 54.9963 146.533 55.9611C146.533 56.0505 146.528 56.1401 146.534 56.2291C146.55 56.4933 146.675 56.9199 146.568 56.9891C146.304 57.1596 145.936 57.2156 145.606 57.23C143.6 57.3178 138.926 57.4024 136.918 57.4473C134.342 57.5049 131.766 57.5278 129.189 57.5589C125.917 57.5985 122.643 57.6254 119.371 57.67C118.045 57.6881 116.72 57.7358 115.395 57.7752C114.337 57.8066 113.28 57.8505 112.223 57.8804C110.79 57.9208 109.358 57.9566 107.925 57.9879C106.117 58.0273 104.309 58.0586 102.502 58.0965C100.908 58.1299 99.315 58.1675 97.7216 58.2032C96.1283 58.2389 94.5344 58.2594 92.9417 58.315C91.5053 58.365 90.0698 58.4444 88.6349 58.5281C87.6987 58.5826 86.7619 58.6466 85.8294 58.7448C84.6891 58.8649 83.5543 59.0372 82.4145 59.1642C81.5887 59.2562 80.7601 59.3362 79.9305 59.3775C78.1562 59.4659 76.3792 59.5031 74.6059 59.6057C73.5577 59.6663 67.1823 59.8284 66.1347 59.9091C65.7969 59.9352 65.4436 59.8758 65.111 59.7978C64.9758 59.766 64.7956 59.5933 64.775 59.4628C64.6734 58.8181 64.6094 58.167 64.5496 57.5165C64.5003 56.9786 64.4384 56.4376 64.4517 55.8997C64.4618 55.4928 64.5735 55.1033 64.4821 54.6743C64.4552 54.5481 64.9186 54.1928 65.1895 54.151C66.044 54.0189 72.2492 54.0054 73.1103 53.9092C74.1973 53.7877 75.2801 53.6288 76.3651 53.4894C76.4704 53.4759 76.5788 53.4893 76.6855 53.4848C78.3356 53.414 79.9853 53.3323 81.6359 53.2804C81.9199 53.2714 81.8928 53.1422 81.8915 52.9572C81.8866 52.2425 81.8756 51.5274 81.8935 50.8131C81.911 50.1129 81.961 49.4135 81.9967 48.6601C81.8578 47.6098 81.6925 46.6158 81.5901 45.6153C81.5306 45.033 81.5385 44.4375 81.5895 43.8543C81.6037 43.693 81.8615 43.4733 82.0437 43.4289C82.2255 43.3846 82.5247 43.4671 82.6384 43.6048ZM137.061 52.5265C131.93 52.5463 126.799 52.5861 121.668 52.6298C119.056 52.6521 116.443 52.6708 113.833 52.7468C112.571 52.7836 111.313 52.9578 110.053 53.0541C108.526 53.1708 106.997 53.2717 105.469 53.3776C104.912 53.4162 104.355 53.4487 103.798 53.4854C102.181 53.5922 100.565 53.7278 98.9463 53.799C97.3189 53.8706 95.6887 53.8784 93.9524 53.9142C93.5385 53.9499 93.1249 54.012 92.7105 54.0172C89.3128 54.0603 85.9146 54.0766 82.5172 54.1363C81.0809 54.1616 79.646 54.2703 78.2106 54.3437C77.582 54.3758 76.9526 54.4012 76.3255 54.4529C74.6867 54.5881 67.716 54.7403 66.0772 54.8762C65.6905 54.9083 65.4684 55.0045 65.5005 55.4807C65.5726 56.5533 65.6001 57.6299 65.6088 58.7053C65.6113 59.0209 65.6989 59.0906 65.9919 59.0657C66.9797 58.9819 73.3024 58.917 74.2913 58.8468C75.3158 58.7741 76.3399 58.6938 77.3651 58.6345C78.7643 58.5535 80.1647 58.4922 81.5641 58.4143C81.7651 58.4031 81.9624 58.3376 82.1633 58.3119C83.0297 58.2012 83.8954 58.0832 84.7639 57.9924C85.6081 57.9041 86.4544 57.8313 87.3014 57.7773C89.1324 57.6604 90.9635 57.5364 92.7964 57.4596C94.4419 57.3907 96.0899 57.382 97.7367 57.3451C99.2764 57.3106 100.816 57.2714 102.356 57.2388C104.181 57.2003 106.007 57.1621 107.832 57.1321C110.283 57.0918 112.734 57.0652 115.185 57.0213C116.403 56.9995 117.621 56.9543 118.839 56.9159C119.878 56.8831 120.917 56.8319 121.957 56.8119C124.265 56.7676 126.573 56.7352 128.881 56.7027C131.618 56.6642 134.355 56.6477 137.091 56.589C139.01 56.5478 143.594 56.4551 145.511 56.3705C145.605 56.3663 145.769 56.2199 145.771 56.1371C145.789 55.2262 145.782 54.3148 145.783 53.4036C145.783 53.0175 145.56 52.7994 145.212 52.7421C144.803 52.6747 144.386 52.6441 143.971 52.6309C142.557 52.5861 138.475 52.521 137.061 52.5265ZM122.213 43.0357C122.343 44.903 122.478 46.7701 122.644 48.6344C122.697 49.2368 122.834 49.8336 122.96 50.427C123.07 50.9401 122.767 51.3001 122.126 51.3139C121.992 50.9215 121.838 50.5622 121.787 50.1888C121.683 49.4206 121.599 48.6461 121.57 47.8718C121.51 46.2651 121.491 44.6568 121.457 43.0491C121.451 42.804 121.403 42.5534 121.798 42.5395C122.193 42.5256 122.193 42.7385 122.213 43.0357Z" fill="#00160A"/>
<path fill-rule="evenodd" clip-rule="evenodd" d="M103.134 149.323C101.015 154.633 92.3954 148.163 91.3151 144.354C90.91 142.926 93.6853 140.001 95.0739 141.158C97.5458 143.218 97.3683 146.485 101.168 147.303C101.735 147.425 102.951 147.407 103.501 147.565C103.784 147.646 103.662 148.232 103.134 149.323Z" fill="#00B3C9"/>
<path fill-rule="evenodd" clip-rule="evenodd" d="M137.768 123.504C138.016 124.7 138.232 125.843 138.206 127.025C138.191 127.723 138.261 128.425 138.306 129.124C138.434 131.113 137.517 132.509 135.908 133.589C134.804 134.33 133.806 135.228 132.715 135.991C131.799 136.631 130.837 137.215 129.858 137.757C127.879 138.852 125.852 139.878 124.953 142.165C124.536 143.225 123.982 144.26 123.761 145.361C123.505 146.632 123.739 147.897 124.909 148.766C124.949 148.795 124.968 148.855 125.009 148.882C125.191 149.005 125.387 149.222 125.559 149.205C125.691 149.193 125.815 148.894 125.91 148.706C126.121 148.287 125.928 147.917 125.832 147.494C125.688 146.855 125.801 146.157 125.82 145.485C125.822 145.412 125.926 145.342 125.983 145.271C126.016 145.356 126.069 145.439 126.077 145.527C126.12 145.994 126.108 146.471 126.202 146.926C126.271 147.257 126.44 147.583 126.626 147.871C126.819 148.169 127.47 148.027 127.576 147.666C127.773 146.999 127.739 146.328 127.595 145.645C127.522 145.299 127.581 144.924 127.602 144.563C127.605 144.509 127.73 144.463 127.799 144.413C127.834 144.478 127.89 144.547 127.898 144.608C128.217 147.074 128.683 147.074 128.874 147.147C129.065 147.22 129.31 147.122 129.399 147.074C129.512 147.014 129.596 146.818 129.611 146.672C129.667 146.117 129.6 145.533 129.749 145.009C129.942 144.332 130.235 143.663 130.606 143.067C130.853 142.671 131.304 142.398 131.679 142.088C132.655 141.284 133.668 140.536 134.898 140.156C135.769 139.886 136.648 139.639 137.521 139.372C139.027 138.912 140.561 138.522 142.029 137.961C144.318 137.087 146.025 135.57 146.545 133.063C146.83 131.688 146.61 130.303 146.091 129.008C145.68 127.983 145.121 127.016 144.633 126.021C144.583 125.92 144.564 125.804 144.531 125.695C144.619 125.752 144.723 125.795 144.794 125.87C146.04 127.177 146.865 128.726 147.246 130.478C147.654 132.355 147.786 134.254 146.863 136.037C146.661 136.428 146.248 136.743 145.871 137.005C144.734 137.794 143.463 138.327 142.162 138.782C140.648 139.312 139.158 139.98 137.598 140.293C136.093 140.595 134.789 141.29 133.404 141.837C132.554 142.172 132.091 142.953 131.424 143.495C130.721 144.067 130.518 144.767 130.581 145.612C130.6 145.861 130.574 146.113 130.586 146.362C130.66 147.968 129.862 148.113 128.654 147.636C128.602 147.616 128.452 147.685 128.448 147.723C128.348 148.628 127.831 149.071 127.005 148.776C126.65 148.649 126.668 148.888 126.633 148.971C126.269 149.841 125.38 150.123 124.769 149.45C124.136 148.752 123.548 147.978 123.115 147.147C122.901 146.735 123 146.103 123.096 145.597C123.259 144.732 123.481 143.87 123.772 143.04C124.157 141.94 124.789 140.979 125.523 140.061C126.272 139.123 127.206 138.452 128.217 137.885C129.605 137.107 130.972 136.3 132.264 135.375C132.794 134.995 133.244 134.506 133.765 134.113C134.452 133.594 135.175 133.123 135.881 132.628C136.844 131.954 137.503 131.148 137.471 129.856C137.45 128.992 137.73 128.124 137.749 127.256C137.767 126.394 137.614 125.529 137.558 124.665C137.531 124.249 137.551 123.831 137.557 123.414C137.558 123.34 137.596 123.266 137.617 123.192C137.668 123.278 137.718 123.364 137.768 123.504Z" fill="#00160A"/>
<path fill-rule="evenodd" clip-rule="evenodd" d="M32.1506 65.3873C32.2011 65.277 32.2956 65.1702 32.296 65.1706C33.3984 66.1375 34.095 67.3413 34.5345 68.743C34.7237 69.3463 35.1409 69.8977 35.532 70.4141C36.2697 71.3881 37.0657 72.3178 37.8257 73.2753C37.8558 73.3132 37.7906 73.4905 37.7257 73.5295C37.2899 73.7913 36.511 73.6519 36.042 73.1784C35.6417 72.7743 35.2898 72.3196 34.939 71.8697C34.4125 71.1947 33.6752 70.9283 32.8829 70.7475C31.6229 70.4601 30.6846 69.686 29.9025 68.7089C28.5832 67.0607 28.0312 65.1097 27.7598 63.0613C27.6942 62.5657 27.5909 62.0393 27.6892 61.5652C27.8925 60.5859 28.7678 60.0504 29.8632 60.3718C31.829 60.9487 33.7848 61.5911 35.6806 62.3637C36.9129 62.8659 37.4045 64.0282 37.6344 65.3204C37.8285 66.4116 37.5869 67.3955 37.1558 68.3649C37.0066 68.7004 36.9803 68.688 36.7603 68.3735C36.3309 67.7594 36.222 67.0356 36.3548 66.3575C36.6466 64.8678 35.9742 63.6925 34.7886 63.2467C33.4124 62.7294 32.0401 62.1932 30.638 61.7554C29.2502 61.3221 29.2694 61.4157 29.5258 62.7612C29.8734 64.5856 30.5404 66.3637 31.2153 68.1054C31.5752 69.0342 32.3191 69.7319 33.3728 70.0141C33.7475 70.1145 33.696 69.9044 33.6427 69.7531C33.3901 69.0372 33.1214 68.326 32.8282 67.6259C32.5316 66.9177 32.1132 66.2513 32.1506 65.3873Z" fill="#FFB61D"/>
<path fill-rule="evenodd" clip-rule="evenodd" d="M140.958 121.815C139.585 121.391 138.295 121.582 137.009 122.09C136.706 122.209 136.284 122.141 135.959 122.032C135.809 121.981 136.279 121.178 136.656 121.034C137.104 120.864 137.564 120.677 138.033 120.622C139.463 120.455 140.788 120.837 142.047 121.504C142.601 121.798 143.185 122.034 143.735 122.333C143.971 122.461 144.166 122.673 144.357 122.868C144.41 122.922 144.422 123.117 144.386 123.139C144.298 123.193 144.153 123.229 144.063 123.194C143.496 122.969 142.936 122.728 142.378 122.482C141.911 122.276 141.449 122.056 140.958 121.815Z" fill="#00160A"/>
<path fill-rule="evenodd" clip-rule="evenodd" d="M98.6039 45.6309C97.6739 46.275 96.7932 46.9291 95.8613 47.4997C94.8442 48.1225 93.7865 48.6808 92.7284 49.2327C92.577 49.3117 92.208 49.2647 92.1443 49.1561C92.0332 48.9666 91.9924 48.7063 92.3489 48.5375C92.9777 48.2399 93.5764 47.8705 94.1618 47.4912C95.065 46.9059 95.9432 46.2823 96.8382 45.6841C97.3249 45.3588 97.8028 45.0069 98.3282 44.7596C98.5424 44.6588 99.0376 44.71 99.1181 44.8533C99.3587 45.2814 98.9842 45.4699 98.6039 45.6309Z" fill="#E7EAEE"/>
<path fill-rule="evenodd" clip-rule="evenodd" d="M105.252 112.862C105.565 112.584 105.847 112.329 106.139 112.086C106.224 112.015 106.337 111.977 106.437 111.923C106.48 112.016 106.548 112.105 106.561 112.202C106.653 112.841 106.665 113.52 107.259 113.945C107.511 114.126 107.806 114.314 108.101 114.354C109.199 114.503 110.497 114.39 111.247 113.213C111.551 112.737 111.457 112.252 111.506 111.761C111.518 111.632 111.606 111.424 111.696 111.403C112.057 111.317 111.929 111.624 111.919 111.773C111.878 112.364 112.029 112.947 111.629 113.532C111.145 114.238 110.507 114.689 109.735 114.785C108.979 114.879 108.181 114.934 107.412 114.617C106.723 114.333 106.392 113.834 106.243 113.154C106.223 113.064 106.185 112.977 106.156 112.888C106.086 112.934 106.016 112.981 105.945 113.026C105.198 113.503 104.489 114.077 103.537 114.055C103.401 114.052 103.269 113.881 103.134 113.787C103.256 113.738 103.379 113.691 103.5 113.639C104.075 113.389 104.65 113.139 105.252 112.862Z" fill="#00160A"/>
<path fill-rule="evenodd" clip-rule="evenodd" d="M127.984 45.9527C128.609 45.3987 129.195 44.8553 129.815 44.3552C129.982 44.2213 130.252 44.1854 130.479 44.172C130.58 44.1661 130.779 44.3253 130.78 44.4116C130.782 44.5761 130.72 44.7949 130.603 44.8966C130.325 45.1373 129.977 45.2959 129.697 45.535C128.785 46.316 127.901 47.1313 126.977 47.897C126.85 48.0019 126.495 47.9811 126.348 47.8755C126.152 47.7332 126.227 47.4719 126.42 47.3039C126.93 46.8596 127.444 46.4206 127.984 45.9527Z" fill="#E7EAEE"/>
<path fill-rule="evenodd" clip-rule="evenodd" d="M110.64 141.304C110.117 141.375 109.649 141.479 109.176 141.51C108.62 141.546 108.056 141.55 107.501 141.5C107.322 141.483 107.163 141.251 106.995 141.117C107.159 141.036 107.317 140.911 107.49 140.882C108.41 140.726 109.331 140.549 110.259 140.467C111.043 140.398 111.838 140.44 112.627 140.457C112.717 140.459 112.871 140.616 112.873 140.704C112.876 140.794 112.742 140.953 112.646 140.972C111.998 141.099 111.345 141.196 110.64 141.304Z" fill="#00160A"/>
<path fill-rule="evenodd" clip-rule="evenodd" d="M72.1726 45.5773C72.3895 45.4075 72.5613 45.2112 72.7753 45.1376C72.9638 45.0728 73.3531 45.0863 73.3846 45.1685C73.4679 45.3855 73.5073 45.6285 73.2056 45.8584C72.2872 46.5582 71.4232 47.3293 70.5353 48.0695C70.4462 48.1438 70.3426 48.2423 70.24 48.2497C70.0601 48.2627 69.7794 48.2751 69.7165 48.1762C69.6303 48.0405 69.6272 47.7091 69.7281 47.6202C70.5151 46.9267 71.3356 46.2713 72.1726 45.5773Z" fill="#E7EAEE"/>
<path fill-rule="evenodd" clip-rule="evenodd" d="M130.37 48.0168C131.093 47.3827 131.829 46.8168 132.533 46.2142C132.789 45.9951 133.052 45.8284 133.295 46.0905C133.511 46.3227 133.379 46.6046 133.133 46.8103C132.43 47.3994 131.744 48.0114 131.02 48.574C130.88 48.6827 130.598 48.6087 130.382 48.6189C130.378 48.4361 130.374 48.2532 130.37 48.0168Z" fill="#E7EAEE"/>
<path fill-rule="evenodd" clip-rule="evenodd" d="M106.056 115.113C106.244 115.355 106.54 115.573 106.535 115.784C106.527 116.137 106.423 116.506 106.015 116.731C105.412 117.062 104.901 116.931 104.407 116.567C103.977 116.249 103.999 115.678 104.433 115.075C104.613 114.824 105.314 114.723 105.628 114.897C105.757 114.969 105.895 115.024 106.056 115.113ZM105.922 115.408C105.775 115.333 105.635 115.237 105.48 115.185C105.12 115.065 104.835 115.151 104.64 115.506C104.45 115.854 104.618 116.103 104.875 116.271C105.046 116.383 105.303 116.444 105.501 116.409C105.716 116.371 105.983 116.239 106.085 116.065C106.163 115.931 106.02 115.668 105.922 115.408Z" fill="#00160A"/>
<path fill-rule="evenodd" clip-rule="evenodd" d="M99.6764 48.3116C100.132 48.0349 100.548 47.7585 100.997 47.5529C101.115 47.4988 101.481 47.6674 101.48 47.7283C101.475 47.9686 101.444 48.3057 101.286 48.4263C100.88 48.7346 100.417 48.9851 99.9437 49.1759C99.7686 49.2465 99.3701 49.1517 99.3013 49.0164C99.1576 48.7338 99.3017 48.4481 99.6764 48.3116Z" fill="#E7EAEE"/>
</svg>
