<svg width="154" height="154" viewBox="0 0 154 154" fill="none" xmlns="http://www.w3.org/2000/svg">
<path fill-rule="evenodd" clip-rule="evenodd" d="M130.268 0.000119266C131.206 -0.00816627 131.823 0.415157 132.044 1.30033C132.154 1.74136 132.096 2.22642 132.1 2.69167C132.108 3.88754 132.122 5.08364 132.107 6.27931C132.097 7.02409 132.038 7.76822 132.003 8.51271C131.996 8.65437 131.994 8.79638 131.994 8.93823C131.994 10.4991 132.006 12.0601 131.991 13.6208C131.965 16.3582 131.925 19.0954 131.886 21.8327C131.854 24.1053 131.815 26.3779 131.78 28.6506C131.744 30.959 131.708 33.2673 131.672 35.5757C131.637 37.8483 131.606 40.1211 131.563 42.3936C131.538 43.7371 131.484 45.0802 131.461 46.4238C131.445 47.3589 131.468 48.2946 131.456 49.2299C131.426 51.5384 131.392 53.8468 131.349 56.155C131.324 57.4807 131.27 58.8059 131.247 60.1316C131.23 61.0846 131.257 62.0383 131.24 62.9913C131.217 64.2991 131.162 65.6064 131.14 66.9143C131.123 67.9209 131.15 68.9282 131.133 69.9348C131.112 71.1355 131.054 72.3355 131.032 73.5361C131.015 74.507 131.039 75.4785 131.027 76.4495C130.997 78.8116 130.959 81.1735 130.921 83.5355C130.888 85.558 130.854 87.5804 130.813 89.6028C130.784 91.0714 130.733 92.5396 130.711 94.0082C130.694 95.14 130.721 96.2724 130.703 97.4041C130.685 98.569 130.622 99.7332 130.604 100.898C130.586 102.012 130.614 103.127 130.596 104.24C130.579 105.298 130.514 106.355 130.497 107.413C130.479 108.545 130.504 109.677 130.49 110.809C130.462 113.153 130.423 115.497 130.385 117.841C130.352 119.899 130.353 121.959 130.267 124.015C130.185 125.993 130.641 127.826 131.624 129.514C132.626 131.234 133.699 132.913 134.764 134.595C135.816 136.258 136.74 137.989 137.229 139.898C137.578 141.261 137.629 142.675 137.237 144.055C137.103 144.526 136.286 147.78 136.981 148.626C137.873 149.711 139.001 150.198 140.39 150.23C141.744 150.26 143.03 149.931 144.328 149.631C145.906 149.265 147.49 149.002 149.078 149.578C149.869 149.865 150.582 150.27 151.049 151.002C151.12 151.113 151.293 151.3 150.916 151.302C150.001 151.307 149.087 151.364 148.172 151.4C146.343 151.471 144.514 151.544 142.685 151.613C141.628 151.653 140.571 151.687 139.513 151.721C138.331 151.758 137.148 151.795 135.965 151.828C134.586 151.866 133.207 151.903 131.828 151.935C130.11 151.974 128.391 152.01 126.672 152.042C124.56 152.081 122.449 152.119 120.337 152.149C117.528 152.189 114.719 152.217 111.911 152.259C109.995 152.287 108.08 152.33 106.165 152.364C105.837 152.37 105.509 152.362 105.181 152.365C101.229 152.4 97.2765 152.436 93.324 152.471C92.9784 152.475 92.6327 152.469 92.287 152.472C88.2452 152.507 84.2033 152.544 80.1615 152.579L79.0709 152.579C75.0648 152.615 71.0587 152.651 67.0526 152.686C66.707 152.689 66.3613 152.684 66.0156 152.687C61.9738 152.722 57.9319 152.758 53.8901 152.793C53.5623 152.796 53.2345 152.791 52.9067 152.794C48.8649 152.829 44.8231 152.865 40.7812 152.9C40.4356 152.903 40.0899 152.898 39.7442 152.901C35.7024 152.936 31.6605 152.972 27.6187 153.008C27.3088 153.01 26.9988 153.006 26.6889 153.008C22.5756 153.044 18.4623 153.079 14.349 153.117C14.2833 153.118 14.218 153.151 14.1525 153.196C14.1525 153.222 14.0989 153.222 14.0721 153.222C13.9276 153.187 13.8102 153.121 13.6921 153.12C12.888 153.111 12.0838 153.117 11.2796 153.113C11.2028 153.112 11.1261 153.075 11.0494 153.055C11.1144 153.039 11.1798 153.025 11.2443 153.008C12.9641 152.543 14.6719 152.026 16.4082 151.635C17.3924 151.413 18.4218 151.378 19.434 151.299C20.2924 151.232 21.155 151.209 22.0162 151.191C22.3425 151.184 22.3155 151.111 22.2296 150.827C21.8685 149.633 21.4533 148.44 21.2619 147.214C21.103 146.196 21.1895 145.132 21.2428 144.092C21.281 143.346 21.3898 142.594 21.5653 141.869C21.7673 141.034 22.0338 140.208 22.3493 139.408C23.1818 137.298 24.6624 135.65 26.1929 134.023C27.1076 133.05 27.9375 131.982 28.6867 130.876C29.1397 130.207 29.3834 129.391 29.38 128.541C29.3747 127.201 29.3916 125.86 29.3755 124.52C29.3516 122.533 29.3098 120.547 29.2705 118.56C29.239 116.966 29.1899 115.373 29.1663 113.779C29.1229 110.846 29.1091 107.911 29.0503 104.978C29.019 103.417 28.8841 101.859 28.8614 100.298C28.8421 98.9722 28.9592 97.6443 28.9395 96.3185C28.9115 94.4339 28.8097 92.5504 28.7508 90.6661C28.7441 90.4513 28.8397 90.2339 28.8381 90.0181C28.8083 85.9046 28.7544 81.7913 28.7395 77.6778C28.7215 72.7036 28.7489 67.7293 28.7309 62.7551C28.7163 58.6952 28.6346 54.6355 28.6358 50.5757C28.6372 46.1228 28.7064 41.6699 28.7325 37.2169C28.7474 34.691 28.7217 32.1649 28.7396 29.6391C28.7534 27.6879 28.8092 25.7371 28.841 23.786C28.8506 23.1903 28.8363 22.5942 28.8435 21.9984C28.8769 19.2432 28.9197 16.4881 28.9473 13.7328C28.9611 12.3508 28.9358 10.9683 28.9537 9.5863C28.9705 8.29628 29.0215 7.00671 29.0565 5.71691C29.0607 5.56149 29.0589 5.4059 29.0599 5.25039C29.0946 5.42269 29.1409 5.59358 29.1623 5.76752C29.3088 6.95883 29.4542 8.15032 29.5909 9.34279C29.6402 9.7732 29.6694 10.2061 29.6993 10.6385C29.7737 11.7167 29.8424 12.7953 29.9149 13.8736C30.0214 15.4555 30.1363 17.0369 30.2342 18.6193C30.3164 19.9472 30.3897 21.2759 30.4483 22.605C30.5298 24.4514 30.5977 26.2985 30.6639 28.1455C30.707 29.3457 30.7602 30.5461 30.7686 31.7467C30.8127 38.0403 30.8455 44.334 30.8786 50.6277C30.8862 52.0634 30.8922 53.4994 30.8769 54.9351C30.8515 57.333 30.809 59.7307 30.7723 62.1284C30.7375 64.4011 30.7068 66.6739 30.6628 68.9464C30.6413 70.0578 30.5894 71.1685 30.5601 72.2797C30.5477 72.7502 30.5608 73.2213 30.5577 73.692C30.5226 78.9492 30.4703 84.2062 30.458 89.4634C30.4521 91.9505 30.5165 94.4378 30.5606 96.9248C30.5816 98.1076 30.6269 99.29 30.6661 100.472C30.6977 101.423 30.731 102.373 30.7739 103.323C30.8403 104.795 30.9096 106.267 30.9889 107.738C31.0509 108.888 31.1232 110.038 31.2031 111.187C31.3033 112.627 31.4076 114.066 31.5273 115.504C31.5727 116.048 31.6422 116.593 31.7508 117.128C31.7876 117.309 31.9441 117.514 32.1046 117.614C33.1181 118.245 34.1692 117.906 35.0096 117.278C35.9836 116.551 36.405 115.482 36.4472 114.294C36.5141 112.409 36.5572 110.523 36.558 108.637C36.5658 90.1879 36.5756 71.7389 36.5581 53.2899C36.5468 41.2775 36.4911 29.2652 36.4573 17.2528C36.4569 17.0801 36.484 16.9072 36.4983 16.7344C36.5555 16.9001 36.6165 17.0645 36.6694 17.2316C37.148 18.7454 37.4479 20.2918 37.6494 21.8694C37.9354 24.1085 37.9588 26.3516 37.9586 28.6005L37.9554 72.4559C37.9538 87.0743 37.9506 101.693 37.9431 116.311C37.9428 116.784 38.0881 116.971 38.5151 117.095C39.9166 117.5 41.3578 117.647 42.7872 117.495C45.4907 117.209 47.9378 116.259 50.0662 114.491C51.7664 113.079 52.9769 111.351 53.6963 109.295C53.9776 108.491 54.0418 107.603 54.1369 106.745C54.2239 105.961 54.3017 105.161 54.2366 104.38C54.1261 103.054 53.9135 101.735 53.7181 100.418C53.5592 99.3453 53.332 98.2826 53.19 97.2084C52.9831 95.642 52.7814 94.0725 52.6602 92.498C52.5585 91.1775 52.4618 89.8392 52.5632 88.5243C52.7702 85.8379 53.1897 83.1764 53.9311 80.5747C54.7235 77.7938 55.828 75.1396 57.2019 72.6015C58.224 70.7134 59.3949 68.9131 60.8027 67.2863C61.8939 66.0254 63.0279 64.8001 64.1782 63.5926C64.6682 63.0783 65.2583 62.6608 65.7854 62.1802C67.7891 60.3529 69.2565 58.1004 70.7707 55.8835C71.9524 54.1533 73.0772 52.3753 74.3751 50.7354C76.0842 48.5759 78.1815 46.8641 80.9062 46.1111C81.9083 45.8341 82.9393 45.6567 83.9627 45.4637C86.1357 45.0538 88.3382 45.0788 90.5298 45.1561C92.8071 45.2365 94.9713 45.8105 96.9159 47.0673C98.5183 48.103 99.6813 49.5554 100.672 51.1386C101.83 52.9893 102.925 54.8813 104.002 56.7813C105.386 59.2242 106.729 61.6902 108.081 64.1517C108.807 65.4754 109.523 66.8053 110.227 68.1414C111.106 69.8106 111.61 70.4622 112.32 72.2797C112.789 73.4807 113.618 75.7303 114.185 76.8402C115.316 79.0542 115.513 80.5142 116.339 82.5693C116.508 82.9902 117.398 83.5052 117.602 83.9738C117.983 84.8466 118.756 86.111 118.812 86.2082C118.863 86.0864 118.899 84.5638 118.907 84.4395C118.987 83.0579 119.056 81.6755 119.127 80.2933C119.199 78.8575 119.271 77.4217 119.341 75.9858C119.414 74.4786 119.487 72.9713 119.555 71.4639C119.629 69.8316 119.701 68.1993 119.769 66.5667C119.844 64.7736 119.914 62.9803 119.984 61.1871C120.022 60.2369 120.058 59.2867 120.091 58.3364C120.129 57.279 120.163 56.2215 120.199 55.164C120.235 54.1244 120.273 53.0849 120.306 52.0453C120.344 50.8092 120.378 49.573 120.413 48.3368C120.45 47.0649 120.488 45.793 120.52 44.521C120.559 43.0169 120.594 41.5127 120.627 40.0084C120.665 38.2897 120.704 36.5711 120.734 34.8523C120.774 32.5976 120.802 30.3426 120.844 28.0879C120.87 26.7265 120.933 25.3656 120.945 24.0041C120.963 21.9966 120.937 19.9887 120.954 17.9811C120.966 16.6911 121.023 15.4016 121.053 14.1117C121.056 13.9821 121.01 13.8514 120.987 13.7213C120.877 13.8009 120.751 13.8652 120.66 13.9626C119.962 14.7083 119.081 14.9745 118.089 15.0127C116.563 15.0715 115.123 14.6215 113.66 14.3099C112.258 14.0115 110.849 13.6775 109.412 13.8491C108.558 13.9511 107.712 14.2066 106.892 14.4834C105.571 14.9299 104.313 14.7945 103.061 14.2587C101.847 13.7389 100.644 13.1873 99.4063 12.729C98.2924 12.3165 97.1107 12.3206 96.0307 12.7916C95.5034 13.0216 94.9741 13.5148 94.7096 14.0255C94.0909 15.22 93.1567 15.7757 91.8738 15.9867C90.1812 16.2651 88.689 15.6961 87.1841 15.0784C85.9622 14.5768 84.7528 14.0119 83.4866 13.6585C81.7965 13.1868 80.2433 13.6986 78.8425 14.7066C77.9618 15.3404 77.1317 16.0695 76.1836 16.5782C74.9121 17.2605 73.0587 17.3587 72.0553 16.2327C71.8798 16.0357 71.7012 15.7995 71.6373 15.5522C71.3843 14.5728 70.7501 14.3619 69.8694 14.2602C68.6014 14.1138 67.6699 14.7958 66.7502 15.532C65.8988 16.2135 65.105 16.9716 63.9477 17.1848C63.029 17.3539 62.1656 17.2336 61.351 16.8835C59.9699 16.2899 58.6147 15.6318 57.2706 14.9571C56.0683 14.3537 54.7835 14.0533 53.4933 14.2996C52.6621 14.4583 51.8794 14.9753 51.128 15.421C50.2165 15.9615 49.402 16.6728 48.4717 17.173C46.8712 18.0336 45.1525 18.0697 43.3871 17.7171C41.5556 17.3513 40.0473 16.4576 38.7783 15.1243C38.4963 14.8279 38.2661 14.4818 38.0186 14.1536C37.9842 14.1079 37.9875 14.0337 37.9733 13.9727C38.0239 13.9986 38.0823 14.0154 38.1238 14.0517C39.4605 15.2189 40.9887 15.9414 42.7605 16.1969C45.3206 16.5662 47.6923 16.1379 49.8255 14.6494C50.4219 14.2332 50.9105 13.6654 51.4931 13.2262C52.4114 12.5341 53.4972 12.5668 54.559 12.6953C56.5512 12.9363 58.2806 13.973 60.1445 14.6037C61.7571 15.1495 63.4127 15.567 65.1186 14.9036C65.7186 14.6703 66.221 14.3426 66.5924 13.7933C67.2442 12.8295 68.656 12.4829 69.7287 12.5985C71.4584 12.7851 72.9564 13.645 74.5981 14.0641C75.7516 14.3586 76.9076 14.5576 78.086 14.1546C78.7224 13.937 79.1666 13.5017 79.5086 12.9603C80.0623 12.0841 80.9031 11.772 81.8698 11.6853C83.2384 11.5625 84.4701 11.9947 85.6773 12.5888C86.8362 13.1591 88.0105 13.7431 89.3029 13.9187C90.3493 14.0609 91.3851 13.8529 92.3552 13.415C93.8762 12.7285 95.3772 11.9962 96.9113 11.3411C98.3848 10.7119 99.8186 10.8358 101.197 11.7015C101.955 12.1774 102.741 12.6286 103.56 12.9833C104.541 13.4081 105.587 13.2729 106.585 13.0062C107.931 12.6467 109.237 12.1232 110.596 11.8335C111.539 11.6323 112.518 11.7092 113.286 12.5281C114.003 13.2923 114.951 13.4815 115.931 13.2025C117.461 12.7671 118.967 12.2499 120.485 11.7755C121.234 11.5417 121.983 11.3155 122.781 11.5743C123.856 11.9231 123.976 12.0993 123.845 13.2167C123.771 13.848 123.682 14.4785 123.635 15.1119C123.578 15.8819 123.567 16.655 123.522 17.426C123.419 19.169 123.31 20.9116 123.201 22.6541C123.133 23.7327 123.051 24.8105 122.989 25.8894C122.91 27.2712 122.847 28.6539 122.772 30.0359C122.704 31.2753 122.622 32.514 122.56 33.7537C122.481 35.3321 122.416 36.9112 122.343 38.4899C122.31 39.2079 122.268 39.9256 122.237 40.6437C122.163 42.3832 122.094 44.1229 122.022 45.8625C121.987 46.7055 121.947 47.5484 121.915 48.3915C121.842 50.3634 121.772 52.3354 121.7 54.3073C121.664 55.3112 121.627 56.315 121.593 57.3189C121.556 58.4477 121.521 59.5767 121.486 60.7057C121.45 61.8703 121.413 63.035 121.379 64.1997C121.342 65.4537 121.306 66.7078 121.272 67.9618C121.235 69.2873 121.199 70.6128 121.164 71.9384C121.128 73.3354 121.091 74.7323 121.057 76.1294C121.02 77.6515 120.985 79.1736 120.95 80.6957C120.914 82.2356 120.878 83.7756 120.843 85.3156C120.806 86.927 120.771 88.5385 120.735 90.15L120.665 93.4801C120.653 94.0352 120.64 94.5901 120.626 95.1451C120.602 96.042 120.557 96.9384 120.52 97.835C120.518 97.8842 120.498 97.9328 120.486 97.9816C120.462 97.9331 120.427 97.8871 120.415 97.8357C120.02 96.1583 119.583 94.4892 119.25 92.7994C119.025 91.6595 118.931 90.4922 118.812 89.3338C118.741 88.6491 118.735 87.9578 118.696 87.2697C118.693 87.2037 118.669 87.1388 118.654 87.0734C118.633 87.1299 118.596 87.1854 118.593 87.2429C118.467 89.3977 118.088 91.5005 117.33 93.5291C117.11 94.1178 116.924 94.7192 116.719 95.3136C116.692 95.3909 116.645 95.461 116.607 95.5344C116.596 95.4377 116.555 95.3317 116.581 95.2458C116.705 94.8337 116.821 94.4164 116.987 94.0204C117.746 92.2027 117.705 90.2862 117.602 88.3889C117.526 86.9687 117.17 85.5762 116.586 84.2611C116.551 84.1816 116.362 83.811 116.36 83.7127C116.36 83.6964 116.29 83.6815 116.252 83.6659C116.281 83.7978 116.31 83.9297 116.339 84.0616C116.41 85.4259 116.532 87.3232 116.54 88.6879C116.55 90.281 116.284 91.3173 115.852 92.8506C115.623 93.6624 115.328 94.4555 115.061 95.2566C115.043 95.3117 115.012 95.3624 114.986 95.4152C114.973 95.3494 114.928 95.2702 114.95 95.2198C115.656 93.584 115.578 91.8308 115.682 90.1131C115.78 88.5054 115.866 86.8857 115.779 85.281C115.658 83.0407 115.237 80.8402 114.3 78.7718C114.279 78.7263 114.223 78.697 114.202 78.6514C114.134 78.4988 114.074 78.3422 114.011 78.1872C113.969 78.3807 113.874 78.5809 113.896 78.7665C113.973 79.3884 114.135 80.0017 114.185 80.6246C114.287 81.8971 114.369 83.173 114.401 84.4489C114.437 85.8838 114.479 87.3246 114.389 88.7548C114.302 90.1519 114.054 91.5391 113.872 92.93C113.77 93.7084 113.659 94.4856 113.549 95.2627C113.542 95.3135 113.502 95.3596 113.478 95.4079C113.467 95.359 113.442 95.3089 113.446 95.2614C113.478 94.9006 113.516 94.5403 113.551 94.1797C113.587 93.8015 113.644 93.4237 113.655 93.0446C113.699 91.5049 113.757 89.9648 113.758 88.4249C113.758 86.9564 113.71 85.4873 113.653 84.0197C113.607 82.8331 113.534 81.6469 113.439 80.4631C113.315 78.8946 113.159 77.3286 113.014 75.7618C112.987 75.472 112.947 75.1832 112.905 74.8951C112.897 74.8383 112.852 74.7868 112.824 74.7329C112.78 74.7893 112.703 74.8429 112.699 74.9024C112.654 75.4587 112.614 76.0157 112.588 76.5732C112.546 77.4695 112.525 78.3669 112.477 79.2628C112.377 81.0952 112.269 82.9273 112.155 84.7588C112.095 85.7128 112.004 86.6648 111.945 87.6189C111.83 89.4862 111.733 91.3545 111.619 93.2219C111.559 94.2116 111.47 95.1995 111.408 96.1891C111.295 98.0208 111.201 99.8536 111.08 101.685C111.038 102.318 111.197 104.385 111.174 104.669C111.038 106.349 110.562 107.958 109.989 109.534C109.877 109.841 109.648 110.157 109.386 110.346C108.645 110.88 108.155 110.796 107.764 109.865C107.669 109.636 107.618 109.389 107.546 109.151C107.536 109.12 107.52 109.09 107.507 109.06C107.485 109.112 107.455 109.163 107.44 109.217C107.296 109.765 107.21 110.337 106.994 110.855C106.778 111.374 106.482 111.878 106.13 112.315C105.704 112.845 104.929 112.873 104.435 112.403C104.154 112.135 104.156 112.476 104.134 112.528C103.913 113.043 103.763 113.593 103.506 114.089C103.106 114.861 102.414 115.207 101.554 115.148C101.168 115.121 101.096 115.24 101.102 115.606C101.119 116.561 100.74 117.339 99.8858 117.814C99.6767 117.93 99.3847 117.955 99.1385 117.933C98.7885 117.903 98.7196 118.031 98.7476 118.344C98.7761 118.663 98.7583 118.987 98.753 119.308C98.7406 120.07 98.2165 120.604 97.4648 120.626C96.8933 120.642 96.7861 120.801 97.0123 121.297C97.2395 121.794 96.8823 122.273 96.2115 122.338C95.529 122.404 94.9599 122.251 94.4191 121.733C92.196 119.604 90.4927 117.115 89.2223 114.334C88.3984 112.53 87.7555 110.65 87.5022 108.669C87.323 107.267 87.1663 105.86 87.0776 104.451C86.9768 102.849 87.2291 101.272 87.5552 99.7041C88.1729 96.7334 89.3283 93.9419 90.3579 91.107C90.5957 90.4524 90.7647 89.7693 90.9208 89.0891C91.1912 87.9107 91.4489 86.7283 91.6649 85.5391C91.7403 85.1239 91.6916 84.6825 91.6626 84.2556C91.6577 84.1843 91.4518 84.0571 91.3578 84.0724C90.5418 84.2051 89.7263 84.3463 88.9181 84.52C87.5347 84.8172 86.211 85.2781 84.9308 85.897C84.457 86.1261 83.8628 86.1012 83.3268 86.2082C82.47 86.3791 81.6171 86.5697 80.7596 86.7372C80.5816 86.772 80.3908 86.7381 80.2061 86.7432C79.8894 86.7519 79.3679 86.66 79.2957 86.799C79.1023 87.1714 79.0442 87.6424 79.0338 88.0766C78.9779 90.4202 78.9234 92.7647 78.9291 95.1087C78.9321 96.3302 79.056 97.5516 79.1327 98.7726C79.1983 99.8156 79.2469 100.861 79.3537 101.9C79.4617 102.952 79.6406 103.997 79.7718 105.047C79.8594 105.748 79.9048 106.455 79.9924 107.156C80.1236 108.206 80.2803 109.253 80.4167 110.303C80.5315 111.186 80.6322 112.072 80.7401 112.957C80.8106 113.535 80.8808 114.113 80.9579 114.69C80.9648 114.742 81.0129 114.818 81.057 114.831C81.8611 115.066 82.0399 115.773 82.2339 116.438C82.537 117.477 82.8695 118.518 83.0445 119.582C83.1787 120.397 83.1766 121.26 83.0744 122.082C82.9705 122.918 82.6867 123.735 82.4516 124.552C82.0969 125.784 81.3936 126.823 80.5905 127.802C80.5382 127.866 80.513 127.952 80.4753 128.028C80.5533 128.027 80.6314 128.025 80.7095 128.024C80.8525 128.024 80.9954 128.024 81.1384 128.024H87.6254C89.2757 128.024 90.926 128.037 92.5761 128.021C95.2777 127.996 97.9792 127.952 100.681 127.918C100.955 127.914 101.229 127.921 101.503 127.917C103.847 127.882 106.192 127.845 108.536 127.81C108.774 127.807 109.013 127.816 109.251 127.809C111.227 127.75 113.204 127.686 115.18 127.632C115.375 127.627 115.571 127.701 115.766 127.699C118.128 127.669 120.49 127.635 122.852 127.594C124.463 127.566 126.074 127.521 127.686 127.49C128.133 127.482 128.373 127.384 128.366 126.823C128.35 125.284 128.422 123.743 128.454 122.203C128.464 121.715 128.477 121.225 128.451 120.738C128.4 119.776 127.681 119.395 126.853 119.353C125.209 119.269 123.56 119.246 121.913 119.236C119.047 119.22 116.182 119.226 113.316 119.237C112.795 119.238 112.274 119.304 111.752 119.337C111.684 119.342 111.615 119.325 111.547 119.318C111.588 119.255 111.626 119.189 111.671 119.129C112.116 118.53 112.784 118.35 113.459 118.28C114.332 118.189 115.22 118.235 116.093 118.149C117.057 118.053 118.013 117.872 118.973 117.733C119.078 117.717 119.187 117.733 119.294 117.73C122.106 117.659 124.918 117.591 127.729 117.506C127.856 117.503 128.052 117.384 128.093 117.273C128.426 116.379 128.614 115.487 128.525 114.492C128.431 113.432 128.611 112.348 128.669 111.275C128.675 111.168 128.67 111.06 128.67 110.953C128.67 110.024 128.662 109.094 128.672 108.165C128.703 105.213 128.737 102.262 128.779 99.3101C128.807 97.2875 128.849 95.2652 128.884 93.2427C128.921 91.1488 128.956 89.0549 128.992 86.9609C129.027 84.9145 129.063 82.868 129.099 80.8216L129.206 74.647C129.242 72.5827 129.278 70.5184 129.313 68.4541C129.349 66.3719 129.384 64.2897 129.421 62.2075C129.456 60.185 129.492 58.1626 129.528 56.1401C129.564 54.058 129.599 51.9758 129.635 49.8936C129.671 47.8175 129.706 45.7414 129.742 43.6654C129.778 41.6429 129.814 39.6205 129.849 37.5981C129.886 35.5041 129.921 33.4102 129.957 31.3163L130.064 25.1953C130.1 23.1193 130.135 21.0432 130.171 18.9671C130.206 16.9626 130.244 14.958 130.278 12.9534C130.315 10.8059 130.346 8.65825 130.387 6.51081C130.416 4.98248 130.45 3.45415 130.499 1.92637C130.509 1.6054 130.457 1.47793 130.086 1.48767C127.957 1.54357 125.827 1.56429 123.697 1.6064C122.347 1.63308 120.998 1.67741 119.648 1.7116C118.18 1.7488 116.712 1.78223 115.243 1.8195C113.9 1.8536 112.556 1.89175 111.213 1.92608C109.762 1.96315 108.312 1.99701 106.861 2.03386C105.5 2.06844 104.139 2.10619 102.778 2.14054C101.309 2.17759 99.8405 2.20919 98.3722 2.24907C97.2431 2.27973 96.1145 2.32592 94.9854 2.35379C93.3026 2.39531 91.6195 2.42402 89.9367 2.46338C88.5932 2.49481 87.25 2.53547 85.9066 2.56934C84.4203 2.60681 82.9339 2.63972 81.4476 2.67741C80.1221 2.71102 78.7967 2.74994 77.4711 2.78379C76.0027 2.82128 74.5341 2.8524 73.0658 2.89249C71.9546 2.92283 70.8438 2.96974 69.7326 2.99705C68.032 3.03885 66.331 3.06754 64.6303 3.10668C63.2511 3.13842 61.8721 3.17807 60.493 3.2129C59.0424 3.24952 57.5918 3.28355 56.1412 3.32062C54.7978 3.35495 53.4545 3.39328 52.1111 3.42715C50.6248 3.46462 49.1386 3.51165 47.6521 3.53217C44.4503 3.57637 41.2481 3.64153 38.0465 3.62528C36.6965 3.61842 35.3458 3.4442 33.9986 3.31354C33.2887 3.24469 32.5855 3.10644 31.8797 2.99738C31.8316 2.98996 31.7864 2.96445 31.7399 2.94736C31.7842 2.92871 31.8272 2.905 31.8733 2.89311C31.9068 2.88446 31.9444 2.89215 31.9801 2.89131C33.5022 2.85569 35.0246 2.83089 36.5462 2.78137C38.3756 2.72182 40.2043 2.64349 42.0331 2.56859C42.7334 2.53991 43.4329 2.4908 44.1333 2.46422C45.2441 2.42207 46.3554 2.39366 47.4663 2.35446C48.363 2.32281 49.2594 2.28165 50.1561 2.2485C52.128 2.1756 54.1 2.10736 56.0718 2.03245C56.8257 2.00381 57.5788 1.95361 58.3328 1.92829C59.6044 1.88559 60.8766 1.85846 62.1483 1.81797C63.0809 1.78828 64.0129 1.74504 64.9454 1.71261C66.0563 1.67398 67.1676 1.64349 68.2785 1.60372C69.1395 1.57289 70 1.5256 70.8611 1.49922C72.24 1.45698 73.6194 1.42898 74.9984 1.38929C76.0738 1.35834 77.1489 1.31715 78.2243 1.28345C79.4247 1.24584 80.6251 1.21154 81.8255 1.1758C83.0259 1.14006 84.2263 1.10349 85.4267 1.0688C86.6986 1.03205 87.9705 0.997608 89.2423 0.961197C90.4668 0.926144 91.6911 0.888112 92.9156 0.854584C94.2946 0.816824 95.6738 0.782817 97.0529 0.746843C98.4141 0.711335 99.7753 0.674679 101.137 0.639868C102.569 0.603231 104.002 0.568531 105.435 0.532343C106.832 0.497056 108.229 0.473476 109.625 0.421149C110.691 0.381207 111.756 0.300279 112.821 0.248487C112.979 0.24082 113.14 0.316674 113.299 0.314469C115.5 0.283933 117.701 0.249888 119.902 0.209652C121.55 0.179541 123.197 0.137923 124.844 0.103902C126.652 0.0665597 128.46 0.0197584 130.268 0.000119266ZM95.5701 140.364C94.4551 140.393 93.342 140.496 92.2282 140.57C91.1856 140.639 90.1428 140.706 89.101 140.786C87.8048 140.886 86.5095 140.998 85.214 141.106C83.9361 141.213 82.659 141.328 81.3805 141.425C79.8532 141.542 78.3263 141.688 76.7965 141.738C74.472 141.815 72.1452 141.822 69.8194 141.855C69.3013 141.863 68.7801 141.893 68.2655 141.85C66.7865 141.726 65.3103 141.569 63.8327 141.428C63.0408 141.353 62.2472 141.294 61.4562 141.211C60.1745 141.076 58.8973 140.873 57.6125 140.8C56.3597 140.728 55.0995 140.771 53.8429 140.789C52.8569 140.803 51.8703 140.838 50.8858 140.896C49.3213 140.987 47.7581 141.103 46.1947 141.214C44.7201 141.318 43.2459 141.427 41.7717 141.535C40.8185 141.605 39.8655 141.678 38.9124 141.749C37.4738 141.857 36.0352 141.964 34.5966 142.071C33.6435 142.142 32.6906 142.216 31.7373 142.285C30.2452 142.394 28.7533 142.505 27.2607 142.605C26.0759 142.685 24.8897 142.745 23.7048 142.824C23.0349 142.868 22.8258 143.097 22.8425 143.782C22.8518 144.161 22.9114 144.539 22.9446 144.917C23.0885 146.556 23.2198 148.195 23.381 149.831C23.4272 150.301 23.4767 150.828 23.9709 151.066C24.2647 151.208 24.6207 151.282 24.9482 151.281C25.952 151.277 26.9554 151.198 27.9592 151.19C29.9306 151.174 31.9023 151.197 33.8738 151.182C37.4147 151.156 40.9554 151.113 44.4962 151.078C44.8239 151.075 45.1518 151.083 45.4794 151.077C47.305 151.043 49.1304 150.994 50.9561 150.973C54.8899 150.929 58.8238 150.894 62.7578 150.866C64.6935 150.852 66.6294 150.876 68.5651 150.861C72.0346 150.834 75.5038 150.792 78.9732 150.757C79.3187 150.753 79.6645 150.762 80.01 150.755C81.8356 150.722 83.6609 150.672 85.4866 150.652C89.4204 150.607 93.3544 150.572 97.2883 150.544C99.2061 150.531 101.124 150.554 103.042 150.539C106.529 150.513 110.017 150.47 113.504 150.435C113.849 150.432 114.195 150.439 114.541 150.434C116.723 150.4 118.906 150.354 121.089 150.33C122.59 150.314 124.091 150.339 125.592 150.325C128.507 150.298 131.423 150.257 134.338 150.219C134.978 150.211 135.463 149.754 135.53 149.076C135.681 147.546 135.818 146.014 135.961 144.376C135.997 143.819 136.054 143.263 136.064 142.706C136.078 141.858 135.652 141.533 134.812 141.636C133.191 141.835 131.569 142.109 129.942 142.152C127.529 142.216 125.112 142.123 122.697 142.063C121.565 142.035 120.433 141.939 119.302 141.853C118.059 141.759 116.817 141.647 115.576 141.533C114.476 141.433 113.378 141.319 112.278 141.214L110.009 140.995C109.253 140.923 108.496 140.852 107.739 140.787C106.337 140.666 104.935 140.547 103.53 140.469C102.278 140.401 101.023 140.376 99.7692 140.359C98.3696 140.341 96.969 140.328 95.5701 140.364ZM58.973 130.115C57.905 130.169 56.8372 130.227 55.769 130.275C54.8012 130.317 53.8329 130.347 52.8649 130.383C51.9147 130.419 50.9646 130.456 50.0144 130.49C48.0068 130.563 45.9992 130.632 43.9917 130.705C43.0771 130.739 42.163 130.782 41.2483 130.811C39.923 130.852 38.5973 130.878 37.2721 130.922C36.6966 130.941 36.1186 130.963 35.5483 131.035C34.9983 131.104 34.4608 131.29 33.9104 131.336C33.2216 131.394 32.5126 131.41 32.0496 130.717C32.0161 130.667 31.7544 130.691 31.7505 130.711C31.503 131.966 30.6824 132.86 29.8347 133.724C29.1414 134.43 28.395 135.085 27.6876 135.778C26.7964 136.651 25.8928 137.515 25.0476 138.431C24.4196 139.112 23.8744 139.87 23.297 140.597C23.2397 140.669 23.2155 140.768 23.1759 140.854C23.278 140.867 23.3805 140.892 23.4821 140.889C24.5575 140.857 25.6328 140.823 26.7079 140.783C27.5332 140.753 28.358 140.707 29.1833 140.678C30.3477 140.637 31.5133 140.622 32.6768 140.564C33.5599 140.52 34.44 140.419 35.3225 140.357C36.9396 140.244 38.5576 140.145 40.1747 140.032C41.075 139.969 41.9762 139.91 42.8732 139.814C44.0135 139.692 45.1487 139.523 46.2884 139.394C47.0787 139.304 47.8737 139.256 48.665 139.174C49.9647 139.038 51.2604 138.853 52.5628 138.76C53.4756 138.694 54.3972 138.733 55.3143 138.751C56.2113 138.768 57.1113 138.779 58.0031 138.864C59.0382 138.963 60.0649 139.147 61.0969 139.281C61.9983 139.398 62.9042 139.482 63.8042 139.609C64.9654 139.772 66.122 139.967 67.2823 140.137C67.5798 140.181 67.8835 140.183 68.1843 140.205C67.9384 139.952 67.7171 139.668 67.4422 139.452C66.0676 138.371 64.9462 137.043 63.9273 135.653C63.0017 134.389 62.2559 132.993 61.441 131.65C60.8855 130.734 60.2318 129.983 58.973 130.115ZM127.82 129.41C126.963 129.492 126.099 129.497 125.238 129.524C123.913 129.566 122.587 129.6 121.262 129.632C119.651 129.671 118.04 129.714 116.428 129.738C113.494 129.781 110.561 129.812 107.627 129.846C107.228 129.851 106.828 129.841 106.429 129.848C104.532 129.882 102.635 129.919 100.63 129.954H89.6576C86.316 129.954 82.9743 129.94 79.6329 129.969C79.0993 129.973 78.5646 130.172 78.3035 130.731C77.8421 131.719 77.4308 132.733 76.9293 133.7C75.7454 135.982 74.0705 137.888 72.1841 139.605C71.7871 139.967 72.0576 140.084 72.279 140.121C72.6845 140.19 73.1118 140.167 73.5267 140.136C74.8056 140.042 76.083 139.928 77.3608 139.819C78.5853 139.714 79.8092 139.602 81.0339 139.498C82.3472 139.387 83.6614 139.286 84.9747 139.175C86.1994 139.072 87.4223 138.945 88.648 138.858C90.3895 138.735 92.1321 138.623 93.8757 138.539C94.7198 138.499 95.5684 138.506 96.4131 138.539C97.6532 138.586 98.8921 138.668 100.131 138.749C101.659 138.848 103.187 138.961 104.715 139.069C105.74 139.14 106.764 139.211 107.789 139.283C109.299 139.39 110.81 139.497 112.32 139.605C113.309 139.675 114.298 139.749 115.287 139.819C116.329 139.892 117.372 139.961 118.414 140.034C119.403 140.104 120.392 140.185 121.381 140.246C122.674 140.326 123.967 140.453 125.259 140.447C126.928 140.439 128.599 140.364 130.262 140.235C131.766 140.118 133.261 139.896 134.759 139.71C135.536 139.613 135.826 139.038 135.423 138.382C133.927 135.944 132.408 133.521 130.927 131.075C130.208 129.889 129.242 129.274 127.82 129.41ZM68.4648 70.6606C68.389 70.8778 68.3369 71.1073 68.2331 71.3101C67.8779 72.004 67.4998 72.686 67.1392 73.3771C66.3129 74.9607 65.4933 76.5227 63.9887 77.6334C63.0084 78.3572 61.8598 78.8989 61.16 79.9809C60.9536 80.3 60.5907 80.5165 60.3765 80.8323C59.9932 81.3971 59.6872 82.0138 59.3158 82.5874C57.876 84.8109 56.5601 87.0928 55.7918 89.6522C55.1967 91.6344 54.7736 93.6439 54.7955 95.7238C54.8068 96.7992 54.8319 97.8764 54.908 98.9487C54.9709 99.8357 55.1118 100.718 55.229 101.6C55.3997 102.886 55.6107 104.168 55.7414 105.457C55.7951 105.987 55.6267 106.538 55.6619 107.072C55.7226 107.996 55.8116 108.924 55.9818 109.832C56.3063 111.566 56.6758 113.291 57.0647 115.011C57.4626 116.771 57.9171 118.519 58.3271 120.276C58.9546 122.966 59.8715 125.554 61.0808 128.034C62.3004 130.535 63.7546 132.902 65.407 135.138C66.196 136.206 67.0175 137.269 67.9561 138.202C69.0004 139.239 70.3628 139.443 71.4596 138.206C72.134 137.445 72.774 136.651 73.3941 135.845C74.7468 134.087 76.0773 132.312 77.4143 130.543C77.4619 130.48 77.483 130.397 77.5164 130.323C77.4335 130.307 77.351 130.289 77.2677 130.276C76.6294 130.178 75.975 130.139 75.3555 129.971C73.3184 129.419 71.6811 128.145 70.0335 126.908C68.4753 125.738 66.9434 124.533 65.3925 123.353C65.1451 123.164 64.9136 123.16 64.7272 123.495C64.2171 124.411 63.6842 125.316 63.1514 126.219C63.0628 126.37 62.9297 126.494 62.8171 126.63C62.6795 126.462 62.5141 126.31 62.4092 126.124C62.0148 125.423 62.4136 124.774 62.6079 124.136C63.0181 122.788 63.3221 121.433 63.2649 120.012C63.2152 118.777 63.1502 117.54 63.1688 116.304C63.1816 115.465 63.4892 114.64 64.2133 114.202C64.7646 113.868 64.6842 113.479 64.6309 113.049C64.44 111.507 64.1242 109.974 64.0368 108.427C63.9241 106.434 63.9745 104.43 64.3343 102.344C64.37 102.109 64.393 101.871 64.4437 101.64C64.6805 100.559 64.8703 99.4648 65.1801 98.4055C65.6071 96.9449 66.1012 95.5022 66.6168 94.0699C66.9126 93.2484 68.2911 90.4614 68.1923 91.2972C68.1509 91.7573 67.574 93.9919 67.2369 95.0634C66.7138 96.7258 66.1939 98.3917 65.757 100.078C65.229 102.116 64.8334 104.184 64.873 106.306C64.8944 107.453 64.926 108.6 64.9825 109.746C65.0304 110.718 65.1193 111.688 65.1928 112.659C65.2178 112.988 65.4564 113.232 65.6381 113.118C65.9794 112.904 66.3168 112.684 66.6531 112.462C68.3493 111.344 69.8479 109.994 71.2346 108.517C71.5 108.234 71.8301 107.933 71.9249 107.584C72.2024 106.565 72.4015 105.521 72.5828 104.478C72.7292 103.636 72.8049 102.782 72.9124 101.933C73.091 100.524 73.3394 99.1185 73.4211 97.7038C73.4665 96.9172 73.2144 96.1166 73.1324 95.3186C73.0518 94.5338 73.058 93.7387 72.9518 92.9583C72.7944 91.801 72.6212 90.6412 72.3593 89.5045C72.1748 88.7036 71.9568 87.8621 71.5332 87.1748C70.6735 85.7798 69.6074 84.5128 68.735 83.1248C68.057 82.046 67.4687 80.8674 67.3603 79.5783C67.2523 78.2947 67.2922 76.9923 67.367 75.704C67.3864 75.3692 67.7143 74.8999 68.0169 74.7757C68.3367 74.6444 68.6044 75.0451 68.7346 75.4087C68.9292 75.9526 69.1505 76.487 69.3613 77.0251C69.3833 77.0812 69.4114 77.1351 69.4367 77.19C69.4515 77.1246 69.4823 77.058 69.4771 76.9943C69.4706 76.9132 69.4314 76.8353 69.4125 76.7545C69.1374 75.5786 68.8132 74.4159 68.8244 73.1863C68.83 72.5733 68.7018 71.9581 68.6198 71.3459C68.5888 71.1147 68.5176 70.8889 68.4648 70.6606ZM55.7344 118.367C55.1619 118.425 54.5859 118.45 54.0109 118.48C53.2222 118.521 52.4331 118.556 51.6439 118.588C49.8158 118.661 47.9876 118.731 46.0522 118.803C44.5456 118.874 43.0395 118.964 41.5321 119.013C39.8149 119.069 38.0965 119.11 36.3785 119.113C35.7461 119.114 35.1126 118.994 34.4811 118.917C33.6327 118.814 32.7887 118.649 31.9377 118.601C30.9569 118.546 30.6774 118.866 30.6645 119.849C30.6397 121.741 30.6096 123.635 31.2042 125.467C31.444 126.206 31.6115 126.994 31.995 127.654C32.5692 128.641 33.5968 129.075 34.6923 129.076C36.7169 129.077 38.7416 128.954 40.7662 128.882C41.6982 128.848 42.6301 128.81 43.5621 128.775C45.4974 128.703 47.4327 128.633 49.368 128.56C50.2286 128.527 51.0887 128.478 51.9495 128.456C53.6494 128.412 55.3496 128.384 57.0496 128.345L57.1736 128.342C58.0418 128.32 58.9017 128.3 59.4128 129.245C59.4581 129.329 59.7174 129.296 59.8773 129.318C59.8882 129.181 59.9499 129.023 59.9021 128.911C59.4866 127.94 59.0549 126.975 58.6216 126.012C57.5644 123.661 56.7955 121.214 56.1852 118.715C56.1275 118.478 56.0247 118.338 55.7344 118.367ZM70.6042 112.064C69.336 112.718 68.0675 113.378 66.85 114.119C66.3076 114.449 65.8201 114.929 65.4338 115.436C65.1354 115.829 65.0299 116.369 64.8448 116.846C64.3598 118.095 64.7501 119.236 65.4306 120.247C66.4924 121.824 67.6885 123.307 69.1607 124.535C70.0669 125.29 76.6667 129.848 79.1059 127.779C79.4444 127.492 79.5876 127.053 79.785 126.667C80.5918 125.091 81.8946 123.758 82.166 121.923C82.2745 121.19 82.3709 120.433 82.3091 119.701C82.2375 118.853 81.9818 118.022 81.8136 117.182C81.7031 116.63 81.6717 116.044 81.1211 115.701C81.0512 115.657 80.9744 115.624 80.9008 115.586C80.8829 115.668 80.838 115.754 80.8512 115.831C81.0166 116.789 81.1144 117.741 81.4463 118.688C81.8458 119.828 81.6395 121.056 81.172 122.203C80.9642 122.712 80.2456 122.955 79.7549 122.896C78.3867 122.731 77.2495 122.06 76.2587 121.129C74.8594 119.813 73.9874 118.171 73.2877 116.337C73.1268 115.867 72.9724 115.396 72.8037 114.929C72.5231 114.153 72.2693 113.364 71.9359 112.61C71.6731 112.016 71.1267 111.795 70.6042 112.064ZM94.6011 61.0298C94.6449 61.1644 94.6635 61.315 94.7367 61.4311C95.1752 62.1268 95.7002 62.2452 96.0583 62.979C96.8839 64.6706 97.499 65.9048 98.2235 67.6419C98.5038 68.3138 98.5323 69.1905 98.7655 70.3006C98.7742 70.3419 98.8969 70.4581 98.9855 70.51C99.4447 70.7793 99.9428 70.9943 100.366 71.3101C101.578 72.2143 101.966 73.2118 101.598 74.4989C100.949 76.769 100.178 75.6344 100.64 74.2795C100.828 73.7286 100.688 73.166 100.254 72.765C100.109 72.6311 99.4598 72.3044 98.6585 71.9319C98.5821 71.8964 98.6377 72.1432 98.3142 72.7962C98.2176 72.9913 97.8426 73.5553 97.7358 73.269C97.5534 72.78 97.8915 71.5818 97.7358 71.5123L97.5695 71.4384C96.2935 70.8726 95.0158 70.3451 94.8593 70.3256C94.382 70.2664 93.9396 70.4999 93.9352 71.3519C93.9243 73.438 93.0972 75.1233 91.5114 76.4519C90.1012 77.6332 88.5293 78.2506 86.6443 77.9606C85.2637 77.7483 84.0856 77.1704 83.0634 76.2482C82.1624 75.4353 81.4792 74.4739 81.1721 73.281C81.0984 72.9945 81.0187 73.0133 80.8215 73.196C79.8377 74.1068 79.1874 75.2157 78.8189 76.4963C78.7751 76.6487 78.7657 76.8111 78.7404 76.9688C78.9086 76.9541 79.0834 76.9637 79.2438 76.9201C79.708 76.7942 80.1662 76.6464 80.6271 76.5084C80.687 76.4904 80.749 76.4793 80.81 76.465C80.7866 76.5165 80.7581 76.5664 80.7407 76.6199C80.5259 77.2805 80.0501 77.6956 79.4228 77.9161C78.7223 78.1623 77.6595 77.4813 77.8586 76.7782C78.0012 76.2748 78.2518 75.7974 78.4908 75.3269C78.9039 74.5137 79.3453 73.7149 79.8285 72.9101C79.8742 72.7771 79.92 72.6442 79.9658 72.5112C79.8664 72.6084 79.767 72.7056 79.614 72.8028C79.5382 72.9144 79.4827 73.0502 79.3834 73.134C78.0059 74.2951 76.4689 74.9278 74.613 74.7516C73.5538 74.651 72.6321 74.2797 71.7598 73.7334C71.023 73.272 70.2304 73.5506 70.1462 74.4084C70.0874 75.0066 70.149 75.6463 70.3007 76.2302C70.792 78.1218 71.3181 79.9947 72.1252 81.7988C72.7191 83.1264 73.5472 84.0453 74.8976 84.4823C75.9093 84.8097 76.9317 85.134 77.9738 85.3298C79.225 85.5649 80.4945 85.556 81.7545 85.2545C82.6711 85.0351 83.6097 84.9093 84.5286 84.6982C85.4207 84.4932 86.3519 84.3471 87.1746 83.9738C89.175 83.0661 92.7353 80.0875 94.3431 78.6061C94.4191 78.5361 94.4947 78.4656 94.5705 78.3952C94.5856 78.4962 94.6196 78.5984 94.613 78.6979C94.5512 79.6292 92.2063 81.8527 91.3683 82.2574C91.2078 82.3349 91.1637 82.6534 91.0659 82.8608C91.2447 82.9394 91.4215 83.0751 91.6028 83.0814C91.8087 83.0887 92.0167 82.97 92.2281 82.9286C92.2865 82.9171 92.4127 82.9777 92.4193 83.0192C92.47 83.3416 92.5249 83.6669 92.5299 83.9921C92.5439 84.9093 92.5526 85.8274 92.5249 86.744C92.5155 87.0557 92.4253 87.3766 92.3149 87.6719C91.5747 89.6521 90.7745 91.611 90.0817 93.6073C89.4515 95.4232 88.8613 97.2596 88.3886 99.1212C88.0474 100.465 87.7997 101.859 87.7406 103.241C87.6586 105.16 87.6259 107.087 88.0108 109.007C88.4368 111.131 89.2453 113.077 90.3977 114.882C91.6473 116.839 92.9481 118.764 94.2679 120.675C94.5941 121.147 94.9352 121.654 95.5109 121.898C95.658 121.96 96.043 121.886 96.2529 121.76C96.4846 121.621 96.5605 121.379 96.4058 121.057C95.877 119.956 95.3916 118.833 94.8943 117.717C94.1688 116.088 93.4402 114.46 92.7257 112.826C91.4925 110.006 91.0165 107.017 90.9527 103.975C90.9155 102.2 91.1253 100.418 91.254 98.6419C91.3286 97.6118 91.4238 96.5802 91.5785 95.5597C91.8321 93.8864 92.1677 92.2255 92.4205 90.5521C92.6943 88.7395 93.154 86.9879 94.0624 85.3886C94.7442 84.1882 95.6344 83.1462 96.9256 82.5693C98.4855 81.8723 99.9552 81.097 101.044 79.7025C102.058 78.4036 102.674 76.9562 102.812 75.3433C102.994 73.2287 102.497 71.2614 101.216 69.5261C100.139 68.0676 99.1166 66.5787 98.3142 64.9398C97.5025 63.2817 96.5767 62.221 94.9352 61.2089C94.8278 61.1427 94.7126 61.0892 94.6011 61.0298ZM67.9384 75.71C67.8808 75.8747 67.7812 76.037 67.7721 76.2043C67.6882 77.7464 67.9143 79.2619 68.4296 80.7015C68.8714 81.9353 69.4024 83.163 70.2924 84.16C70.9959 84.948 71.4617 85.938 72.3512 86.568C72.4302 86.624 72.4495 86.7736 72.4821 86.884C72.7683 87.8528 73.0807 88.8152 73.3266 89.7941L73.392 90.0567C73.5971 90.8893 73.7722 91.7319 73.6651 92.6051C73.6499 92.7283 73.6508 92.8564 73.6648 92.9799C73.8407 94.5324 74.0152 96.0851 74.2007 97.6365C74.3518 98.9001 73.8983 100.09 73.7659 101.319C73.6818 102.099 73.5664 102.876 73.4456 103.651C73.3154 104.488 73.1747 105.323 73.0163 106.154C72.8527 107.012 72.7375 107.891 72.4536 108.71C72.2978 109.159 72.3499 109.485 72.5034 109.875C72.8301 110.705 73.1189 111.55 73.4517 112.377C74.228 114.307 74.969 116.254 75.8245 118.149C76.4749 119.589 77.611 120.573 79.1586 121.028C79.9087 121.249 80.5834 120.986 80.7106 120.371C80.7718 120.076 80.7372 119.742 80.6684 119.443C80.5997 119.145 80.3554 118.877 80.3261 118.582C80.2463 117.779 80.2391 116.969 80.2042 116.162C80.1981 116.021 80.2071 115.878 80.1925 115.737C80.0915 114.762 79.9795 113.787 79.884 112.81C79.7976 111.926 79.7488 111.037 79.6447 110.155C79.5329 109.208 79.3617 108.268 79.2443 107.322C79.1778 106.786 79.1938 106.241 79.1257 105.705C79.0033 104.743 78.8079 103.79 78.7115 102.826C78.5698 101.408 78.4759 99.9854 78.3844 98.5634C78.2967 97.2001 78.2013 95.8357 78.1754 94.4706C78.1398 92.5948 78.1358 90.7172 78.1836 88.842C78.1997 88.2117 78.3926 87.5806 78.5503 86.9616C78.6171 86.6998 78.5955 86.66 78.3226 86.6243C77.4488 86.5102 76.5695 86.398 75.7137 86.1951C74.2881 85.857 73.1264 85.0922 72.3809 83.8008C71.5917 82.4334 70.8393 81.0447 70.0173 79.6117C69.8402 79.3632 69.6498 79.123 69.4891 78.8643C69.1913 78.3853 68.8688 77.9145 68.6371 77.4037C68.4607 77.0149 68.4307 76.5621 68.2911 76.1529C68.2337 75.9847 68.0595 75.8565 67.9384 75.71ZM92.9202 59.0757C92.8703 59.0811 92.8214 59.0956 92.7721 59.1058C92.8074 59.1564 92.832 59.2226 92.8796 59.2551C93.4781 59.6626 94.085 60.0578 94.6798 60.4705C95.9919 61.381 97.1191 61.9497 97.9991 63.2838C99.089 64.9363 100.158 66.603 101.217 68.2752C102.229 69.872 103.181 71.4743 103.392 73.4389C103.532 74.7369 103.462 75.9865 103.077 77.2017C102.212 79.9356 100.378 81.8583 97.757 82.934C95.9112 83.6915 94.8334 85.0641 94.1623 86.8133C93.7649 87.849 93.5208 88.9492 93.2739 90.0354C92.957 91.4298 92.6786 92.8346 92.4365 94.244C92.2486 95.3384 92.1212 96.4446 92.0036 97.5494C91.8409 99.0782 91.6134 100.61 91.5973 102.142C91.5806 103.722 91.7258 105.311 91.9104 106.884C92.0512 108.083 92.2926 109.283 92.6143 110.448C93.503 113.666 95.1572 116.547 96.7197 119.465C96.9769 119.945 97.5058 120.059 97.8146 119.652C97.9981 119.41 98.1051 118.974 98.0227 118.69C97.6029 117.244 97.071 115.83 96.6518 114.384C95.9989 112.131 95.4053 109.861 94.7865 107.49C94.7508 107.452 94.6898 107.417 94.683 107.374C94.5352 106.433 94.3792 105.494 94.254 104.55C94.0962 103.36 93.8605 102.169 93.8458 100.976C93.8238 99.1842 93.881 97.382 94.063 95.6005C94.2025 94.2357 94.5165 92.8767 94.8781 91.5492C95.5205 89.1911 96.5514 86.9964 98.0107 85.0258C98.586 84.2488 99.2241 83.5151 99.87 82.7944C100.657 81.9161 101.598 81.1527 102.268 80.1961C103.545 78.371 104.095 76.2477 104.2 74.0437C104.256 72.8823 104.204 71.6849 103.977 70.5486C103.672 69.022 103.222 67.5134 102.705 66.0428C101.885 63.7139 100.634 61.6562 98.5991 60.1487C96.902 58.8915 95.0293 58.8467 92.9202 59.0757ZM93.5325 56.0984C92.6516 56.0729 91.7632 56.8206 90.8802 56.9408C90.8449 56.9456 90.7853 57.1198 90.8126 57.1821C91.0663 57.7618 91.5849 58.0709 92.142 58.1997C93.1795 58.4397 94.2405 58.0465 95.2932 58.2191C97.7819 58.6271 99.644 60.0873 101.193 61.9313C102.487 63.4707 103.35 65.2983 103.852 67.2515C104.228 68.7164 104.602 70.2067 104.721 71.706C104.85 73.3325 104.828 74.9784 104.459 76.6137C104.014 78.5844 103.186 80.3183 101.82 81.7957C101.111 82.5622 100.364 83.2938 99.6656 84.0692C98.665 85.1798 97.8548 86.4266 97.1448 87.7402C96.3552 89.2011 95.7261 90.7243 95.2587 92.3205C94.7348 94.1095 94.4108 95.9383 94.3837 97.79C94.3619 99.2804 94.5361 100.778 94.6908 102.265C94.812 103.43 94.9876 104.595 95.2262 105.741C95.6526 107.79 96.1075 109.835 96.6213 111.864C97.0235 113.452 97.5134 115.024 98.3184 116.463C98.5103 116.806 98.8988 117.214 99.2404 117.259C99.789 117.33 100.617 115.972 100.466 115.422C100.254 114.652 100.041 113.883 99.8259 113.114C99.1218 110.59 98.7996 107.996 98.6814 105.399C98.5831 103.238 98.7422 101.061 98.8787 98.8967C98.9623 97.571 99.1589 96.2445 99.4131 94.9395C99.7002 93.4652 100.117 92.0166 100.462 90.5534C100.882 88.7767 101.85 87.2324 102.552 85.5753C103.324 83.7507 104.159 81.9518 104.885 80.1094C105.488 78.5797 105.838 76.9777 106.066 75.3391C106.258 73.9645 106.356 72.587 106.124 71.2394C105.865 69.7326 105.432 68.2504 104.995 66.7808C104.408 64.801 103.724 62.8477 103.794 60.6327C103.835 59.7065 103.271 59.1324 102.595 58.6539C101.484 57.8674 100.183 57.4929 98.9188 57.0511C97.1776 56.4425 95.3655 56.1516 93.5325 56.0984ZM54.4755 110.497C53.9088 111.508 53.3615 112.53 52.7539 113.602C52.6784 113.749 52.6024 113.896 52.5274 114.043C52.1711 114.743 51.5777 115.379 52.075 116.277C52.1814 116.47 52.2088 116.569 52.4394 116.556C53.2618 116.508 54.0911 116.525 54.9052 116.42C55.2068 116.381 55.6299 116.126 55.7179 115.873C55.8365 115.531 55.706 115.092 55.6439 114.701C55.5569 114.154 55.4259 113.614 55.3308 113.068C55.2805 112.78 55.249 112.485 55.2396 112.192C55.2211 111.613 55.2784 111.045 54.8603 110.526C54.663 110.281 54.5805 110.31 54.4755 110.497ZM104.546 61.6902C104.613 62.4114 104.595 63.1568 104.78 63.8471C105.214 65.4637 105.772 67.0465 106.232 68.6569C106.61 69.9824 106.926 71.3283 106.899 72.7222C106.886 73.4048 106.83 74.0865 106.796 74.7687C106.719 76.3149 106.308 77.7924 105.858 79.2592C104.944 82.2421 103.468 84.9883 102.238 87.8385C101.702 89.0802 101.265 90.3773 100.918 91.685C100.544 93.0978 100.289 94.5461 100.052 95.9905C99.8528 97.2087 99.6481 98.4422 99.6338 99.6712C99.6038 102.251 99.4835 104.837 99.8231 107.41C99.949 108.364 100.041 109.322 100.148 110.386C100.327 111.563 100.471 112.747 100.707 113.912C100.769 114.214 101.08 114.641 101.341 114.695C102.2 114.87 102.896 114.461 103.25 113.648C103.79 112.41 104.188 111.178 103.823 109.754C103.471 108.377 103.33 106.942 103.16 105.524C102.975 103.992 102.811 102.453 102.735 100.912C102.651 99.2003 102.666 97.4766 103.054 95.7948C103.341 94.5482 103.669 93.3036 104.087 92.0959C104.84 89.9268 105.757 87.8125 106.454 85.627C107.377 82.7314 107.842 79.7298 108.067 76.7021C108.159 75.4698 108.067 74.2246 108.086 72.9857C108.114 71.1892 107.971 69.408 107.651 67.6419C107.452 66.5483 107.287 65.4429 106.994 64.374C106.66 63.1586 105.953 62.1798 104.821 61.5315C104.518 61.3579 104.526 61.4656 104.546 61.6902ZM107.693 64.0245C107.716 64.1627 107.738 64.301 107.761 64.4928C108.011 65.9079 108.328 67.3153 108.494 68.7403C108.679 70.3305 108.785 71.9357 108.814 73.5364C108.837 74.7915 108.729 76.0534 108.608 77.3054C108.475 78.683 108.338 80.0683 108.064 81.4221C107.686 83.2865 107.255 85.1479 106.702 86.9669C106.204 88.6068 105.529 90.1943 104.903 91.7934C103.781 94.6583 103.241 97.6185 103.362 100.697C103.382 101.214 103.323 101.737 103.373 102.25C103.49 103.462 103.634 104.672 103.799 105.878C103.907 106.665 104.097 107.44 104.2 108.228C104.31 109.067 104.499 109.933 104.389 110.752C104.313 111.308 104.567 111.639 104.729 112.049C104.773 112.16 105.01 112.24 105.164 112.253C105.588 112.288 106.256 111.674 106.477 111.119C107.033 109.72 107.173 108.242 107.202 106.766C107.219 105.884 106.991 104.999 106.908 104.112C106.789 102.839 106.588 101.559 106.63 100.288C106.68 98.7475 106.882 97.2035 107.136 95.6804C107.369 94.2798 107.638 92.8639 108.101 91.5272C109.212 88.3193 109.874 85.0399 110.007 81.6541C110.075 79.9193 110.096 78.1823 110.113 76.446C110.119 75.8716 110.043 75.2968 110.014 74.7216C109.973 73.897 109.992 73.0658 109.894 72.2483C109.719 70.7781 109.586 69.2887 109.229 67.8587C108.926 66.6455 108.333 65.5048 107.868 64.2784C107.81 64.1937 107.751 64.1091 107.693 64.0245ZM110.371 69.6032C110.323 69.6727 110.251 69.7365 110.233 69.813C110.209 69.9146 110.219 70.0268 110.228 70.1331C110.334 71.2857 110.472 72.4363 110.541 73.591C110.613 74.8066 110.616 76.0262 110.66 77.2437C110.668 77.4621 110.727 77.6787 110.763 78.0033C110.727 78.9353 110.719 79.8694 110.65 80.799C110.528 82.4384 110.466 84.0907 110.2 85.7085C109.933 87.3359 109.541 88.9569 109.04 90.5288C108.205 93.1536 107.515 95.8054 107.354 98.5557C107.266 100.07 107.376 101.599 107.447 103.118C107.52 104.707 107.643 106.294 107.767 107.88C107.805 108.369 107.857 108.873 108.019 109.329C108.138 109.663 108.449 109.929 108.674 110.225C108.973 109.925 109.376 109.676 109.548 109.316C109.866 108.649 110.111 107.932 110.274 107.21C110.464 106.365 110.612 105.494 110.631 104.631C110.647 103.946 110.377 103.259 110.348 102.567C110.298 101.349 110.293 100.124 110.345 98.9058C110.405 97.5369 110.522 96.1689 110.663 94.8057C110.808 93.4114 111.023 92.0245 111.19 90.6323L111.353 89.2728C111.488 88.1398 111.618 87.0061 111.719 85.87C111.834 84.5816 111.92 83.2866 111.931 81.9938C111.944 80.2762 111.889 78.5574 111.829 76.8402C111.791 75.7254 111.718 74.6103 111.614 73.4997C111.492 72.1907 111.109 70.951 110.484 69.79C110.45 69.726 110.409 69.6654 110.371 69.6032ZM135.934 100.703C136.899 100.926 137.867 101.135 138.84 101.319C139.393 101.424 139.959 101.468 140.572 101.539C141.939 101.647 143.25 101.812 144.566 101.849C147.042 101.917 149.454 101.513 151.788 100.668C151.818 100.657 151.839 100.598 151.865 100.598C152.091 100.591 152.318 100.593 152.546 100.592C152.394 100.729 152.26 100.896 152.088 100.999C150.802 101.761 149.432 102.259 147.947 102.525C146.295 102.822 144.637 102.778 142.997 102.685C141.19 102.583 139.388 102.324 137.609 101.889C136.101 101.519 134.649 101.027 133.216 100.453C133.126 100.417 133.046 100.354 132.962 100.303C133.044 100.286 133.127 100.272 133.209 100.252C134.181 100.022 135.034 100.495 135.934 100.703ZM136.772 87.0707C137.361 87.2858 137.945 87.5133 138.524 87.7546C138.874 87.9007 139.211 88.0794 139.58 88.2702C141.241 89.0156 142.921 89.5527 144.69 89.8752C146.377 90.183 148.065 90.2252 149.755 90.151C150.816 90.1044 151.867 89.8364 152.923 89.6745C153.052 89.6547 153.187 89.6763 153.32 89.6788C153.24 89.8029 153.188 89.9767 153.075 90.0434C151.953 90.6994 150.764 91.1433 149.45 91.2517C146.303 91.5114 143.353 90.7245 140.516 89.4951C139.182 88.917 137.951 88.099 136.679 87.3808C136.571 87.3199 136.5 87.192 136.413 87.0951C136.533 87.0847 136.669 87.0331 136.772 87.0707ZM53.6542 87.075C53.5665 87.2699 53.4901 87.471 53.3887 87.6585C53.1817 88.0412 52.8444 88.3886 52.9731 88.8711C53.1692 89.6055 53.3952 90.332 53.6176 91.0591C53.6287 91.0955 53.7735 91.1297 53.7761 91.1244C53.8353 91.0074 53.8833 90.8848 53.9334 90.656C54.0338 90.4841 54.1023 90.2776 54.2423 90.1487C54.4337 89.9726 54.4589 89.8361 54.3731 89.5845C54.1544 88.9433 53.9894 88.2838 53.8042 87.6312C53.7518 87.4465 53.7041 87.2604 53.6542 87.075ZM54.8504 84.2817C54.7949 84.3438 54.7207 84.3973 54.687 84.4696C54.4858 84.9015 54.2358 85.3217 54.1108 85.7758C53.8406 86.7576 54.3067 87.6699 54.4695 88.6109C54.541 88.5779 54.6489 88.5644 54.6783 88.509C54.988 87.9272 55.3109 87.3499 55.5717 86.746C55.664 86.5322 55.6591 86.2291 55.5866 86.0027C55.4825 85.6779 55.2758 85.3861 55.1129 84.973C55.0771 84.8278 55.0516 84.679 55.002 84.5387C54.9695 84.4466 54.9022 84.3669 54.8504 84.2817ZM56.0965 79.2364C56.0546 79.3476 55.9741 79.4598 55.9768 79.5699C55.9964 80.3656 55.7762 81.096 55.4902 81.8325C55.3105 82.2953 55.2088 82.7819 55.2878 83.3413C55.372 83.9382 55.7593 84.2672 56.0301 84.7027C56.1524 84.8994 56.3287 85.0626 56.4805 85.2411C56.6144 85.0624 56.7482 84.8837 56.9357 84.6513C57.1499 84.2584 57.374 83.8705 57.5763 83.4715C58.0256 82.5857 58.0209 82.5837 57.3101 81.8078C57.2524 81.7448 57.2003 81.676 57.1506 81.6064C56.7066 80.9851 56.4601 80.2862 56.3194 79.5407C56.2983 79.4293 56.1734 79.3374 56.0965 79.2364ZM57.6206 75.71C57.5702 75.7961 57.5152 75.8799 57.4703 75.9687C57.2546 76.3962 57.084 76.8538 56.8179 77.2468C56.4063 77.8549 56.694 78.4219 56.8313 79.0008C57.0789 80.0444 57.4132 81.0522 58.1345 81.8834C58.3012 82.0755 58.2993 82.0771 58.4905 81.7026C58.8432 81.2069 59.1837 80.7019 59.554 80.2197C59.7273 79.9941 59.8825 79.8524 59.5947 79.568C59.2719 79.2489 58.962 78.8774 58.7736 78.4699C58.394 77.6491 58.1021 76.7878 57.7694 75.9451C57.736 75.8604 57.671 75.7881 57.6206 75.71ZM73.0357 79.1487C73.4125 79.3228 73.7788 79.552 74.0918 79.8252C74.9608 80.5835 75.9514 80.9278 77.1001 80.8512C77.2607 80.8405 80.6764 80.6683 80.4209 81.1072C80.2466 81.4067 77.6674 81.903 77.372 81.9069C76.1836 81.9228 74.7577 81.3549 74.1609 81.1072C73.9198 81.0071 72.1436 79.9375 72.4772 79.3103C72.6063 79.0675 72.9028 79.0872 73.0357 79.1487ZM59.3027 73.0629C59.1213 73.342 58.8618 73.5998 58.7785 73.9056C58.6762 74.2809 58.3121 74.5751 58.4356 75.0183C58.69 75.9318 58.8862 76.8656 59.206 77.7553C59.4075 78.3156 59.7886 78.8117 60.0978 79.3313C60.1047 79.3428 60.245 79.311 60.276 79.2666C60.6961 78.6652 61.2602 78.2474 61.9753 77.8961C62.1558 77.771 62.3258 77.6259 62.5193 77.526C62.7462 77.4088 62.7186 77.3819 62.5157 77.2445C61.2285 76.3732 60.336 75.1599 59.6193 73.8049C59.494 73.568 59.4072 73.3108 59.3027 73.0629ZM0.0274617 62.6411C0.0653617 62.6983 0.0995172 62.7583 0.141711 62.8121C1.18968 64.1472 2.23882 65.4814 3.28662 66.8167C3.39168 66.9506 3.48951 67.0902 3.61751 67.2539C4.66773 68.3399 5.64378 69.4506 6.72672 70.4449C8.03969 71.6505 9.43768 72.764 10.8089 73.9053C11.7962 74.727 12.782 75.5726 14.0068 76.0165C14.7868 76.2993 15.6042 76.5715 16.422 76.6386C18.2443 76.7881 20.0792 76.7774 21.905 76.8947C22.4589 76.9302 23.0019 77.1633 23.5437 77.3263C23.624 77.3505 23.8534 77.4789 23.5016 77.5308C22.4815 77.6813 21.473 77.9164 20.4506 78.0427C19.8286 78.1196 19.1892 78.0647 18.5578 78.0554C16.9326 78.0316 15.3979 77.6154 13.9003 77.0068C11.9925 76.2313 10.284 75.1431 8.75405 73.7766C7.70308 72.8379 6.60656 71.9318 5.67281 70.8843C4.00559 69.0138 2.41689 67.0705 0.85823 65.1078C0.356376 64.4759 0.0348162 63.6931 0.000249192 62.8435C-0.0024765 62.7766 0.0178496 62.7086 0.0274617 62.6411ZM60.8721 70.3235C60.3978 70.9215 59.79 71.484 59.9504 72.3432C60.0655 72.9596 60.2836 73.5584 60.4766 74.1584C60.8948 75.4585 61.9676 76.1903 62.9702 76.9764C63.0237 77.0183 63.2081 76.9755 63.2701 76.9121C64.1095 76.0532 64.938 75.1835 65.7693 74.3166C65.9286 74.1505 66.1532 74.0068 65.6756 73.9681C65.3542 73.942 65.0453 73.7754 64.728 73.6807C64.3302 73.562 63.9295 73.4525 63.4229 73.339C63.0484 73.0002 62.7061 72.614 62.2922 72.3333C61.5883 71.8559 61.1525 71.2356 61.005 70.4025C60.9988 70.3677 60.8772 70.3171 60.8721 70.3235ZM86.8074 66.6943L86.4409 66.8166C85.5042 67.13 84.5751 67.4634 83.8236 68.1613C82.961 68.9625 82.5191 69.9923 82.2484 71.0995C82.1936 71.3232 82.1555 71.5454 82.1351 71.7651C82.1543 71.6831 82.1792 71.6032 82.2058 71.5303C82.278 71.3327 82.4594 71.1703 82.6077 71.0061L82.6678 70.9405C82.9594 70.6279 83.2728 70.3894 83.7431 70.6957C84.2613 71.0332 84.0325 71.4534 83.8877 71.8643C83.8388 72.0029 83.765 72.1328 83.6758 72.2935C83.4344 72.6927 83.1043 72.9097 82.6926 72.7842C82.4692 72.7161 82.2203 72.4903 82.1361 72.2755C82.1294 72.2586 82.1238 72.2411 82.119 72.2231C82.1362 72.9769 82.3799 73.6909 82.8972 74.3228C83.3497 74.8753 83.9017 75.3578 84.458 75.8116C85.805 76.9102 87.3172 77.1032 88.8486 76.3058C90.7999 75.2899 91.7711 73.4491 92.642 71.4625C92.6966 71.0167 92.8203 70.5664 92.7911 70.1261C92.734 69.2622 92.1772 68.6509 91.551 68.1293C90.1779 66.9855 88.721 66.0521 86.8074 66.6943ZM62.8845 66.3715C62.7601 66.5162 62.6272 66.6546 62.5151 66.8082C62.4587 66.8853 62.4331 66.9879 62.4053 67.0824C62.1533 67.9413 61.8503 68.79 61.6732 69.6642C61.562 70.2125 61.7054 70.782 62.0826 71.3553C62.5095 71.6591 62.9357 71.9641 63.3637 72.2665C64.2269 72.8762 65.2459 73.0719 66.2398 73.3258C66.3208 73.3465 66.5155 73.1998 66.5461 73.0975C66.8237 72.1701 67.0774 71.2355 67.3303 70.3009C67.3353 70.2824 67.2481 70.2157 67.1989 70.2092C66.3236 70.0932 65.4577 70.0432 64.7167 69.4071C63.9065 68.7117 63.4091 67.856 63.0488 66.8875C62.9859 66.7185 62.9389 66.5437 62.8845 66.3715ZM72.9968 62.6112C71.9596 62.7843 71.2774 63.543 70.6814 64.3636C69.952 65.3678 69.5402 66.5035 69.5002 67.7268C69.4669 68.7414 69.756 69.7178 70.2269 70.6339L70.3016 70.7796C70.5875 71.3363 70.8779 71.8673 71.4953 72.1654C73.025 72.9037 74.6284 73.15 76.2959 72.8961C76.7947 72.8202 77.3785 72.703 77.7337 72.3896C79.0949 71.1889 79.8482 69.6425 80.0429 67.7632C80.025 67.3566 80.0312 66.9472 79.9848 66.5438C79.8464 65.3397 79.2138 64.4235 78.2798 63.6876C77.4585 63.0405 76.4979 62.6697 75.494 62.5366C74.6771 62.4283 73.8134 62.475 72.9968 62.6112ZM75.5947 54.9507C75.0389 56.6262 74.4861 58.3027 73.9423 59.9821C74.0633 59.9577 74.1917 59.9098 74.2922 59.9439C74.8968 60.1489 75.4781 60.3944 75.9506 60.8571C76.2164 61.1174 76.5417 61.3171 76.8669 61.5709C76.9359 61.6296 77.0039 61.6848 77.0704 61.7384C77.1104 61.7487 77.1503 61.7599 77.1902 61.7712C78.4072 62.1158 79.4572 62.7593 80.2044 63.8234C81.2034 65.246 81.4463 66.9064 81.7047 68.5626C81.7179 68.6469 81.7279 68.7318 81.7394 68.8163C81.8257 68.7786 81.926 68.7575 81.9953 68.6995C82.1317 68.5852 82.2523 68.4517 82.3771 68.3238C83.3519 67.324 84.4455 66.4671 85.705 65.8733C87.0436 65.2421 88.4215 65.0859 89.8704 65.6623C90.9585 66.0952 91.832 66.7904 92.6819 67.5422C93.0524 67.87 94.7945 68.7006 97.9083 70.0339C97.3993 67.8834 96.8747 66.3383 96.3346 65.3985C95.6544 64.215 94.8873 63.3108 93.931 62.4264C92.2605 60.8814 90.5131 59.4618 88.5736 58.2626C86.533 57.0008 84.328 56.1634 82.0315 55.5477C80.4176 55.115 78.782 54.7636 77.1581 54.3679C76.4487 54.1951 75.7663 54.4334 75.5947 54.9507ZM64.9958 64.339C64.1428 64.9172 63.4624 65.9034 63.8497 67.1176C64.279 68.4637 65.7971 69.6269 67.2376 69.6786C67.3741 69.6835 67.5837 69.5118 67.6458 69.3718C67.8193 68.9804 67.9423 68.5652 68.0626 68.1528C68.0856 68.0741 68.0069 67.8832 67.972 67.8824C67.0582 67.8623 66.4741 67.2773 65.8355 66.6373C65.4232 65.9625 65.1412 65.2504 65.1833 64.4388C65.185 64.4066 65.0251 64.3192 64.9958 64.339ZM20.2582 65.7834C20.732 66.0192 21.2039 66.2624 21.6573 66.5348C22.6006 67.1017 23.5123 67.7243 24.4759 68.2531C24.9896 68.5351 25.5865 68.6637 26.1411 68.8742C26.2634 68.9206 26.3652 69.021 26.4764 69.0965C26.3618 69.1525 26.2271 69.1861 26.1356 69.268C25.4692 69.8647 24.8423 69.3129 24.22 69.1842C22.9346 68.9183 22.0363 68.0367 21.149 67.093C20.7589 66.7388 20.3898 66.4174 20.0368 66.0793C19.9521 65.9982 19.9208 65.8613 19.865 65.75C19.9972 65.7589 20.1487 65.7289 20.2582 65.7834ZM71.2459 66.7662C71.6974 66.9574 71.6579 67.3204 71.6335 67.6718C71.5932 68.2545 70.7999 69.0158 70.2923 68.922C70.1112 68.8885 69.8389 68.6135 69.8431 68.455C69.8541 68.0439 69.9955 67.6362 70.1117 67.2003C70.189 67.123 70.2401 67.0732 70.2898 67.0219C70.5571 66.7461 70.8314 66.5906 71.2459 66.7662ZM66.5324 62.7236C66.3716 62.9598 66.1506 63.1751 66.0601 63.4357C65.6168 64.713 66.4267 66.7053 68.1145 67.1902C68.1951 67.2134 68.3749 67.1405 68.3989 67.0732C68.6649 66.3274 68.9107 65.5744 69.1561 64.8214C69.1717 64.7736 69.1391 64.6608 69.1279 64.6606C67.8719 64.6433 67.2616 63.8705 66.8967 62.7885C66.8742 62.7217 66.6933 62.7083 66.5324 62.7236ZM88.5899 65.0412C88.6966 65.0979 88.785 65.1893 88.8819 65.2645C88.7768 65.2396 88.6727 65.2082 88.5664 65.1908C87.4677 65.0104 86.3678 64.8367 85.2704 64.6487C85.1173 64.6225 84.9755 64.5295 84.8285 64.4674C84.9893 64.4222 85.1502 64.3771 85.3646 64.332C86.5333 64.3097 87.5983 64.515 88.5899 65.0412ZM69.2066 59.406C69.0837 59.5869 68.9588 59.7666 68.84 59.9503C68.8238 59.9754 68.8507 60.027 68.8359 60.0548C68.4952 60.6988 68.1676 61.3504 67.8021 61.9801C67.5977 62.3324 67.5861 63.0227 67.8912 63.2091C68.3266 63.4749 68.8001 63.6791 69.2613 63.9016C69.5674 64.0493 69.7525 63.8621 69.907 63.636C70.201 63.206 70.4706 62.7581 70.7834 62.3425C71.0278 62.0178 70.7864 62.0853 70.5534 62.0266C69.4415 61.7486 69.3137 60.8186 69.1655 59.9114C69.139 59.7495 69.1909 59.5748 69.2066 59.406ZM71.026 56.8361C70.8685 56.9638 70.6522 57.0597 70.5632 57.2244C70.07 58.1375 69.8861 59.1364 69.9206 60.1605C69.9475 60.9622 70.4401 61.509 71.216 61.7146C71.3233 61.7431 71.4758 61.6998 71.5757 61.6383C71.8341 61.4793 72.0749 61.2915 72.3763 61.0616C72.4835 60.8743 72.6201 60.6974 72.6909 60.4972C72.7903 60.2159 72.8549 59.9197 72.9048 59.6248C72.9223 59.5216 72.8892 59.3539 72.8166 59.3001C72.0981 58.767 71.5637 58.0918 71.1979 57.2797C71.1329 57.1353 71.0829 56.9841 71.026 56.8361ZM73.9284 60.0274L73.7078 60.7083C73.6834 60.784 73.7882 60.9794 73.8621 60.9971C74.5165 61.1542 75.1774 61.2877 75.8343 61.4345C75.473 61.1681 75.112 60.9009 74.7494 60.6359C74.5605 60.4979 74.3504 60.3892 74.1601 60.253C74.0734 60.1909 74.003 60.1063 73.9284 60.0274ZM74.2754 52.1999C73.9012 52.5159 73.5443 52.8523 73.1268 53.2341C72.423 53.7751 72.1343 54.5505 71.9586 55.3732C71.7249 56.4679 71.8406 57.4836 72.7199 58.3007C73.0178 58.5776 73.2136 58.46 73.3369 58.1572C73.7163 57.2254 74.077 56.286 74.443 55.3487C74.8272 54.3648 75.0434 53.3846 74.6484 52.3288C74.5272 52.0048 74.4385 52.062 74.2754 52.1999ZM87.6669 53.1992C87.1999 53.3041 86.6687 54.0204 86.4796 54.5756C86.3965 54.8197 86.2744 55.0083 86.7481 55.138C87.7864 55.4223 88.7775 55.8758 89.6933 56.6089C89.8993 56.6173 90.1122 56.6632 90.3103 56.6274C91.0543 56.4927 91.7904 55.6947 92.5354 55.672C93.5386 55.6414 94.5551 55.7348 95.5514 55.8763C96.5797 56.0224 97.617 56.2081 98.6027 56.5247C99.9044 56.9428 101.159 57.5057 102.435 58.0046C102.52 58.0378 102.611 58.0563 102.699 58.0816C102.676 58.008 102.641 57.9358 102.632 57.8605C102.572 57.3643 102.24 57.0537 101.85 56.8334C100.738 56.2052 99.6278 55.5668 98.4782 55.0132C96.5545 54.087 94.5676 53.3655 92.4273 53.0499C90.8141 52.8121 89.2369 52.8465 87.6669 53.1992ZM86.5311 50.3938C84.9481 50.46 83.6189 51.0591 82.625 52.3182C82.1439 52.9276 82.252 53.8176 82.9842 54.0317C83.8939 54.2977 84.8116 54.5359 85.8331 54.7861C86.0479 54.4644 86.1972 53.5208 86.4898 53.3046C87.3068 52.701 88.2778 52.4552 89.283 52.4401C90.1604 52.4269 91.0465 52.4427 91.9152 52.5523C92.9498 52.6829 93.9903 52.8548 94.9922 53.137C97.1985 53.7586 99.2502 54.7621 101.256 55.8601C101.377 55.9268 101.507 55.9791 101.633 56.0381C101.631 55.8468 101.652 55.6512 101.617 55.4663C101.601 55.3792 101.487 55.2965 101.399 55.2396C100.61 54.7303 99.8535 54.1577 99.0202 53.7366C97.2806 52.8575 95.5056 52.0573 93.6181 51.5167C91.2973 50.852 88.9684 50.2918 86.5311 50.3938ZM83.2436 46.7341C81.4844 46.9273 79.95 47.5159 78.7668 48.8795C78.0813 49.6695 77.6717 50.5706 77.6303 51.7329C77.6303 51.8939 77.5978 52.5971 77.6386 52.747C77.6896 52.9349 77.7709 53.2349 77.891 53.2627C78.4214 53.3855 78.9694 53.4393 79.5137 53.4867C79.5932 53.4937 79.751 53.3403 79.764 53.2462C79.8228 52.817 79.7787 51.832 79.8883 51.4194C80.3128 49.8223 81.4586 48.9051 82.9423 48.3598C84.1889 47.9018 85.4855 47.8929 86.8024 47.9072C88.7569 47.9283 90.6661 48.2107 92.5452 48.6932C93.3064 48.8887 94.0236 49.2596 94.7544 49.5658C94.8489 49.6054 94.9053 49.736 94.9793 49.8245C94.8699 49.8079 94.7548 49.8078 94.652 49.7723C92.1667 48.9142 89.5958 48.512 86.9827 48.3615C85.7011 48.2877 84.416 48.4201 83.2 48.8048C81.856 49.2301 80.7267 49.992 80.2684 51.4515C80.0211 52.2393 80.3768 53.4692 81.1454 53.7532C81.5941 53.919 81.755 53.7108 81.9297 53.3455C82.1519 52.8808 82.3865 51.8625 82.7256 51.4848C83.7944 50.2944 85.2393 49.9 86.7619 49.8794C87.7702 49.8657 88.7936 50.0064 89.7886 50.1932C91.2852 50.4742 92.7882 50.7731 94.2428 51.2146C96.419 51.8752 98.4988 52.7888 100.419 54.0336C100.556 54.1228 100.736 54.1473 100.896 54.2019C100.847 54.0442 100.817 53.8775 100.747 53.73C99.8733 51.8973 98.8076 50.1978 97.2596 48.85C96.3519 48.0598 95.3176 47.4719 94.1456 47.1855C93.2958 46.9779 92.4388 46.9262 91.5433 47.0383C90.7001 47.1438 89.8251 47.0029 88.9647 46.9588C88.5499 46.9376 88.1331 46.9118 87.7229 46.8502C86.2337 46.6265 84.7491 46.5688 83.2436 46.7341ZM77.1436 50.0709C77.0831 50.097 77.0147 50.1125 76.9636 50.151C76.6503 50.3867 76.3697 50.6874 76.0238 50.8531C75.4638 51.1214 75.5645 51.5471 75.6402 51.9929C75.6511 52.0573 75.6938 52.1178 75.6979 52.1816C75.7194 52.5129 75.7332 52.8447 75.7497 53.1763C75.8245 53.6409 76.3959 53.6409 76.7725 53.553C76.844 53.2798 76.945 53.0104 76.981 52.7326C77.0649 52.0851 77.1189 50.9004 77.1803 50.2502C77.1857 50.1921 77.1566 50.1308 77.1436 50.0709ZM56.5051 20.1391C56.6042 20.2592 56.529 20.5347 56.5074 20.7391C56.4936 20.8691 56.3972 20.9972 56.4056 21.1215C56.5034 22.5608 56.6511 23.9978 56.7102 25.4384C56.7628 26.7228 56.7191 28.011 56.7239 29.2975C56.7245 29.4668 56.7436 29.7777 56.7838 29.7827C57.0999 29.8218 57.4234 29.8069 57.7436 29.7903C57.7643 29.7892 57.7979 29.6336 57.7896 29.5537C57.7648 29.3172 57.7115 29.0836 57.688 28.8471C57.5416 27.3699 57.3532 25.8949 57.2718 24.414C57.2022 23.1492 57.2333 21.8766 57.2828 20.6098C57.2904 20.4156 57.6244 20.1005 57.8304 20.0807C58.1039 20.0544 58.2614 20.3261 58.2314 20.6679C58.194 21.0935 58.1905 21.5277 58.2282 21.9532C58.356 23.3962 58.5061 29.3801 58.5561 29.7355C58.5611 29.7708 58.7341 29.8022 58.8291 29.8023C61.4558 29.8059 64.0827 29.8265 66.709 29.7954C67.8773 29.7816 69.044 29.6572 70.212 29.5924C71.0186 29.5477 71.8303 29.5594 72.6325 29.4758C74.8704 29.2425 77.1115 29.1555 79.3614 29.1441C80.4969 29.1384 81.6301 28.9318 82.7665 28.8439C84.347 28.7217 85.9281 28.5892 87.5114 28.5278C89.4428 28.4528 91.3767 28.4404 93.3097 28.4182C93.6047 28.4148 93.7402 28.3977 93.7246 28.0335C93.6636 26.6021 93.6469 25.1688 93.6056 23.7364C93.5772 22.7503 93.54 21.7645 93.497 20.779C93.4847 20.4948 93.5679 20.3613 93.8813 20.3613C94.2062 20.3613 94.2492 20.5197 94.2556 20.7912C94.2779 21.7416 94.215 22.7108 94.3827 23.637C94.6336 25.0222 94.5296 26.404 94.5727 27.7875C94.5891 28.3163 94.8375 28.5124 95.3387 28.413C95.572 28.3668 95.809 28.3088 96.0444 28.3086C100.94 28.3025 105.836 28.2953 110.732 28.3089C112.361 28.3135 116.657 28.3701 118.286 28.4148C118.719 28.4267 119.151 28.4741 119.582 28.5208C120.037 28.5702 120.394 29.0403 120.398 29.6008C120.404 30.5657 120.4 31.5306 120.4 32.4955C120.4 32.5849 120.395 32.6745 120.4 32.7635C120.417 33.0277 120.542 33.4543 120.435 33.5235C120.171 33.6939 119.803 33.75 119.473 33.7644C117.466 33.8522 112.792 33.9367 110.784 33.9817C108.209 34.0393 105.632 34.0621 103.056 34.0933C99.7832 34.1328 96.5101 34.1597 93.2373 34.2044C91.9117 34.2224 90.5865 34.2702 89.2613 34.3095C88.2038 34.341 87.1468 34.3849 86.0893 34.4147C84.6569 34.4551 83.2243 34.4909 81.7917 34.5222C79.984 34.5617 78.1761 34.593 76.3684 34.6308C74.775 34.6642 73.1817 34.7018 71.5883 34.7376C69.995 34.7733 68.4011 34.7938 66.8084 34.8493C65.372 34.8994 63.9365 34.9788 62.5016 35.0624C61.5653 35.117 60.6286 35.1809 59.6961 35.2791C58.5558 35.3993 57.421 35.5716 56.2812 35.6986C55.4554 35.7906 54.6268 35.8706 53.7972 35.9119C52.0229 36.0002 50.2459 36.0375 48.4726 36.14C47.4244 36.2006 41.049 36.3628 40.0014 36.4435C39.6636 36.4695 39.3103 36.4101 38.9777 36.3321C38.8425 36.3004 38.6623 36.1277 38.6417 35.9971C38.5401 35.3525 38.4761 34.7013 38.4163 34.0509C38.367 33.513 38.3051 32.972 38.3184 32.4341C38.3285 32.0272 38.4402 31.6377 38.3488 31.2087C38.3219 31.0825 38.7853 30.7272 39.0562 30.6853C39.9107 30.5532 46.1159 30.5398 46.977 30.4435C48.064 30.322 49.1468 30.1632 50.2318 30.0238C50.3371 30.0102 50.4455 30.0237 50.5522 30.0191C52.2023 29.9484 53.852 29.8667 55.5026 29.8147C55.7866 29.8058 55.7595 29.6766 55.7582 29.4916C55.7533 28.7769 55.7423 28.0618 55.7602 27.3475C55.7777 26.6473 55.8277 25.9478 55.8634 25.1944C55.7245 24.1441 55.5592 23.1501 55.4568 22.1497C55.3973 21.5674 55.4052 20.9718 55.4562 20.3887C55.4704 20.2274 55.7282 20.0077 55.9104 19.9633C56.0922 19.919 56.3914 20.0015 56.5051 20.1391ZM110.927 29.0609C105.796 29.0807 100.665 29.1204 95.5343 29.1642C92.9226 29.1864 90.3102 29.2051 87.6996 29.2812C86.4377 29.318 85.1802 29.4922 83.9194 29.5885C82.3922 29.7051 80.8639 29.806 79.3359 29.9119C78.7791 29.9505 78.2219 29.983 77.6651 30.0198C76.0478 30.1266 74.4318 30.2622 72.813 30.3334C71.1856 30.405 69.5554 30.4128 67.8191 30.4485C67.4052 30.4843 66.9916 30.5463 66.5772 30.5516C63.1795 30.5947 59.7813 30.611 56.3839 30.6707C54.9476 30.6959 53.5127 30.8046 52.0773 30.878C51.4487 30.9102 50.8193 30.9355 50.1922 30.9873C48.5534 31.1225 41.5827 31.2746 39.9439 31.4106C39.5572 31.4427 39.3351 31.5389 39.3672 32.015C39.4393 33.0877 39.4668 34.1643 39.4755 35.2396C39.478 35.5553 39.5656 35.625 39.8586 35.6001C40.8464 35.5162 47.1691 35.4514 48.158 35.3812C49.1825 35.3085 50.2066 35.2282 51.2318 35.1689C52.631 35.0878 54.0314 35.0266 55.4308 34.9486C55.6318 34.9374 55.8291 34.8719 56.03 34.8463C56.8964 34.7356 57.7621 34.6176 58.6306 34.5268C59.4748 34.4385 60.3211 34.3657 61.1681 34.3116C62.9991 34.1948 64.8302 34.0707 66.6631 33.994C68.3086 33.9251 69.9566 33.9164 71.6034 33.8795C73.1431 33.845 74.6826 33.8057 76.2224 33.7732C78.0478 33.7346 79.8733 33.6965 81.6989 33.6664C84.1497 33.6261 86.6008 33.5995 89.0515 33.5557C90.2698 33.5338 91.4877 33.4886 92.7056 33.4502C93.7451 33.4175 94.7841 33.3663 95.8238 33.3463C98.1316 33.302 100.44 33.2696 102.748 33.2371C105.484 33.1985 108.221 33.1821 110.958 33.1233C112.876 33.0821 117.46 32.9895 119.378 32.9048C119.471 32.9007 119.636 32.7543 119.637 32.6714C119.656 31.7606 119.648 30.8492 119.649 29.938C119.65 29.5518 119.427 29.3338 119.078 29.2764C118.67 29.2091 118.252 29.1784 117.838 29.1653C116.423 29.1205 112.342 29.0554 110.927 29.0609ZM96.0801 19.5701C96.2095 21.4374 96.3447 23.3045 96.5105 25.1688C96.5641 25.7711 96.7006 26.368 96.8271 26.9614C96.9364 27.4745 96.634 27.8344 95.9928 27.8483C95.8588 27.4558 95.7047 27.0965 95.6541 26.7232C95.5501 25.9549 95.4661 25.1804 95.4372 24.4062C95.3772 22.7994 95.3578 21.1912 95.3233 19.5835C95.3181 19.3384 95.2697 19.0878 95.6644 19.0739C96.06 19.06 96.0595 19.2729 96.0801 19.5701Z" fill="#00160A"/>
<path fill-rule="evenodd" clip-rule="evenodd" d="M77.0011 125.857C74.8816 131.168 66.2621 124.697 65.1818 120.889C64.7767 119.461 67.552 116.535 68.9406 117.692C71.4125 119.753 71.235 123.019 75.0352 123.837C75.6013 123.959 76.8176 123.941 77.3676 124.099C77.6506 124.181 77.5284 124.767 77.0011 125.857Z" fill="#00B3C9"/>
<path fill-rule="evenodd" clip-rule="evenodd" d="M111.635 100.038C111.883 101.235 112.099 102.378 112.073 103.559C112.058 104.258 112.127 104.959 112.173 105.658C112.301 107.647 111.384 109.043 109.774 110.123C108.67 110.864 107.673 111.763 106.582 112.525C105.665 113.166 104.704 113.749 103.725 114.291C101.746 115.387 99.7189 116.412 98.8194 118.699C98.4025 119.759 97.8487 120.794 97.6274 121.895C97.3719 123.167 97.6054 124.431 98.7754 125.3C98.8157 125.33 98.835 125.389 98.8762 125.417C99.0578 125.539 99.2534 125.756 99.4253 125.74C99.5579 125.727 99.6814 125.429 99.7762 125.241C99.9879 124.821 99.7942 124.451 99.6991 124.029C99.5551 123.39 99.6679 122.692 99.687 122.019C99.6891 121.946 99.7931 121.876 99.8498 121.805C99.8823 121.89 99.9356 121.974 99.9437 122.061C99.9869 122.528 99.975 123.005 100.069 123.461C100.137 123.792 100.306 124.117 100.493 124.405C100.686 124.704 101.336 124.561 101.443 124.201C101.64 123.533 101.606 122.862 101.462 122.18C101.389 121.834 101.448 121.458 101.469 121.097C101.472 121.044 101.597 120.997 101.666 120.947C101.701 121.012 101.757 121.081 101.765 121.142C102.083 123.609 102.549 123.609 102.741 123.681C102.932 123.754 103.177 123.656 103.266 123.609C103.379 123.549 103.463 123.352 103.477 123.206C103.534 122.651 103.466 122.067 103.616 121.543C103.808 120.867 104.101 120.197 104.473 119.601C104.72 119.205 105.171 118.932 105.546 118.623C106.522 117.818 107.535 117.07 108.764 116.69C109.636 116.42 110.515 116.173 111.388 115.907C112.894 115.446 114.428 115.056 115.896 114.496C118.185 113.622 119.891 112.105 120.411 109.598C120.696 108.223 120.477 106.837 119.958 105.543C119.547 104.517 118.988 103.551 118.5 102.556C118.45 102.455 118.431 102.338 118.397 102.229C118.486 102.287 118.59 102.33 118.66 102.404C119.907 103.711 120.731 105.261 121.113 107.012C121.521 108.889 121.653 110.788 120.73 112.572C120.527 112.963 120.115 113.277 119.738 113.539C118.6 114.329 117.329 114.861 116.028 115.317C114.514 115.847 113.024 116.514 111.465 116.827C109.96 117.129 108.655 117.825 107.271 118.371C106.42 118.707 105.957 119.487 105.291 120.029C104.587 120.601 104.385 121.302 104.448 122.147C104.466 122.395 104.441 122.647 104.452 122.897C104.527 124.502 103.729 124.647 102.52 124.171C102.468 124.15 102.319 124.219 102.315 124.257C102.215 125.162 101.698 125.606 100.872 125.31C100.517 125.183 100.534 125.422 100.499 125.506C100.136 126.376 99.2463 126.657 98.636 125.984C98.0029 125.286 97.415 124.513 96.9822 123.681C96.7675 123.269 96.8666 122.638 96.9623 122.131C97.126 121.267 97.3475 120.404 97.6385 119.574C98.0236 118.475 98.6553 117.513 99.3892 116.595C100.138 115.658 101.072 114.986 102.083 114.419C103.471 113.641 104.839 112.834 106.131 111.909C106.661 111.53 107.11 111.04 107.631 110.647C108.319 110.129 109.042 109.657 109.748 109.163C110.711 108.489 111.37 107.682 111.338 106.39C111.316 105.526 111.597 104.659 111.615 103.79C111.633 102.928 111.481 102.064 111.425 101.199C111.398 100.784 111.417 100.365 111.423 99.9483C111.424 99.8741 111.463 99.8005 111.484 99.7266C111.534 99.8126 111.585 99.8987 111.635 100.038Z" fill="#00160A"/>
<path fill-rule="evenodd" clip-rule="evenodd" d="M6.01734 41.9217C6.06785 41.8113 6.16226 41.7046 6.16268 41.7049C7.2651 42.6718 7.96167 43.8757 8.40118 45.2773C8.59038 45.8807 9.00764 46.4321 9.39873 46.9484C10.1364 47.9224 10.9324 48.8522 11.6924 49.8097C11.7225 49.8475 11.6573 50.0249 11.5924 50.0639C11.1566 50.3257 10.3777 50.1863 9.90867 49.7127C9.50838 49.3087 9.15654 48.8539 8.80571 48.4041C8.27921 47.7291 7.54192 47.4626 6.74959 47.2819C5.4896 46.9945 4.5513 46.2203 3.76922 45.2433C2.4499 43.595 1.89791 41.6441 1.62651 39.5957C1.56085 39.1001 1.45755 38.5736 1.55595 38.0996C1.75924 37.1203 2.63447 36.5847 3.72989 36.9062C5.6957 37.483 7.65153 38.1255 9.54733 38.8981C10.7796 39.4003 11.2712 40.5626 11.5011 41.8548C11.6952 42.946 11.4536 43.9299 11.0225 44.8992C10.8733 45.2348 10.847 45.2224 10.627 44.9078C10.1976 44.2937 10.0887 43.57 10.2215 42.8919C10.5133 41.4022 9.84087 40.2268 8.65526 39.7811C7.27906 39.2637 5.90681 38.7276 4.50468 38.2898C3.11693 37.8565 3.13613 37.9501 3.3925 39.2956C3.74011 41.12 4.40707 42.898 5.08197 44.6398C5.44185 45.5686 6.18578 46.2663 7.23952 46.5485C7.61421 46.6488 7.56275 46.4388 7.50935 46.2874C7.25679 45.5716 6.98811 44.8604 6.69487 44.1602C6.39827 43.452 5.97988 42.7857 6.01734 41.9217Z" fill="#FFB61D"/>
<path fill-rule="evenodd" clip-rule="evenodd" d="M114.825 98.3495C113.452 97.9256 112.162 98.1162 110.875 98.6243C110.573 98.7436 110.15 98.675 109.825 98.5661C109.676 98.5158 110.146 97.7119 110.523 97.5686C110.97 97.3984 111.43 97.2113 111.9 97.1565C113.33 96.9897 114.655 97.371 115.914 98.0389C116.467 98.3325 117.051 98.5685 117.602 98.8674C117.837 98.9954 118.033 99.207 118.224 99.4024C118.277 99.4568 118.289 99.6516 118.253 99.6734C118.164 99.7275 118.02 99.7638 117.929 99.7279C117.363 99.5034 116.803 99.2624 116.245 99.0165C115.777 98.8104 115.316 98.5903 114.825 98.3495Z" fill="#00160A"/>
<path fill-rule="evenodd" clip-rule="evenodd" d="M72.4706 22.1652C71.5406 22.8093 70.6599 23.4634 69.728 24.034C68.7109 24.6568 67.6532 25.2152 66.5951 25.7671C66.4437 25.846 66.0747 25.7991 66.011 25.6905C65.8999 25.5009 65.8591 25.2407 66.2156 25.0719C66.8444 24.7743 67.4431 24.4049 68.0285 24.0255C68.9317 23.4402 69.8099 22.8166 70.7049 22.2184C71.1916 21.8931 71.6695 21.5413 72.1949 21.294C72.4091 21.1931 72.9043 21.2444 72.9848 21.3877C73.2254 21.8158 72.8509 22.0043 72.4706 22.1652Z" fill="#E7EAEE"/>
<path fill-rule="evenodd" clip-rule="evenodd" d="M79.1187 89.396C79.4314 89.1187 79.7137 88.8639 80.0056 88.6205C80.0908 88.5494 80.2034 88.5111 80.3034 88.4578C80.3463 88.5504 80.4143 88.6393 80.4282 88.7361C80.5201 89.3758 80.5317 90.0547 81.1255 90.4796C81.3777 90.66 81.6729 90.8482 81.9681 90.8882C83.0659 91.0369 84.3639 90.9239 85.1138 89.7477C85.4177 89.271 85.3241 88.7861 85.3724 88.2956C85.3852 88.1661 85.4731 87.9583 85.5623 87.9371C85.9234 87.8512 85.7962 88.1587 85.7859 88.3071C85.7452 88.898 85.8961 89.4813 85.4956 90.0661C85.0116 90.7728 84.3739 91.2237 83.6021 91.3196C82.8458 91.4135 82.0481 91.4684 81.2785 91.1515C80.5893 90.8678 80.2586 90.3688 80.1092 89.6884C80.0894 89.5979 80.0521 89.5113 80.0229 89.4228C79.9526 89.4687 79.8827 89.5152 79.812 89.5604C79.0652 90.037 78.3553 90.6109 77.404 90.5898C77.2677 90.5867 77.1352 90.415 77.001 90.3214C77.1229 90.2721 77.2458 90.2252 77.3665 90.173C77.9419 89.9237 78.5168 89.673 79.1187 89.396Z" fill="#00160A"/>
<path fill-rule="evenodd" clip-rule="evenodd" d="M101.851 22.4871C102.476 21.9331 103.062 21.3897 103.682 20.8896C103.848 20.7556 104.119 20.7197 104.345 20.7064C104.447 20.7004 104.645 20.8597 104.647 20.946C104.649 21.1104 104.587 21.3293 104.469 21.431C104.192 21.6716 103.843 21.8303 103.564 22.0694C102.652 22.8504 101.768 23.6656 100.843 24.4314C100.717 24.5363 100.361 24.5155 100.215 24.4098C100.018 24.2676 100.094 24.0063 100.287 23.8383C100.797 23.394 101.311 22.955 101.851 22.4871Z" fill="#E7EAEE"/>
<path fill-rule="evenodd" clip-rule="evenodd" d="M84.507 117.838C83.9835 117.909 83.5157 118.013 83.0432 118.044C82.4864 118.08 81.9227 118.084 81.3681 118.034C81.1891 118.018 81.0297 117.785 80.8613 117.651C81.0261 117.57 81.1833 117.446 81.3568 117.416C82.2771 117.26 83.1975 117.083 84.1256 117.001C84.9097 116.932 85.7045 116.974 86.4941 116.991C86.5841 116.993 86.7372 117.15 86.7402 117.239C86.7431 117.329 86.6085 117.487 86.5126 117.506C85.8651 117.633 85.2119 117.731 84.507 117.838Z" fill="#00160A"/>
<path fill-rule="evenodd" clip-rule="evenodd" d="M46.0393 22.1117C46.2562 21.9419 46.428 21.7455 46.642 21.672C46.8305 21.6072 47.2198 21.6207 47.2513 21.7029C47.3346 21.9199 47.374 22.1629 47.0723 22.3928C46.1539 23.0926 45.2899 23.8637 44.402 24.6039C44.3129 24.6782 44.2093 24.7766 44.1067 24.7841C43.9268 24.7971 43.6461 24.8095 43.5832 24.7105C43.497 24.5749 43.4939 24.2435 43.5948 24.1545C44.3818 23.4611 45.2023 22.8056 46.0393 22.1117Z" fill="#E7EAEE"/>
<path fill-rule="evenodd" clip-rule="evenodd" d="M104.236 24.5511C104.96 23.9171 105.696 23.3512 106.4 22.7485C106.656 22.5294 106.918 22.3627 107.162 22.6248C107.378 22.857 107.246 23.1389 107 23.3447C106.296 23.9337 105.611 24.5457 104.887 25.1084C104.747 25.2171 104.465 25.143 104.249 25.1533C104.245 24.9704 104.24 24.7876 104.236 24.5511Z" fill="#E7EAEE"/>
<path fill-rule="evenodd" clip-rule="evenodd" d="M79.9231 91.6478C80.1108 91.8893 80.4069 92.1071 80.4021 92.3181C80.394 92.6717 80.2898 93.0403 79.8813 93.265C79.2792 93.5961 78.7679 93.4655 78.2741 93.101C77.8434 92.7831 77.8658 92.2123 78.2996 91.6092C78.4802 91.3582 79.1807 91.2578 79.4948 91.4316C79.624 91.5031 79.7622 91.5583 79.9231 91.6478ZM79.7891 91.9426C79.642 91.867 79.5015 91.7718 79.3465 91.7198C78.9867 91.5992 78.7012 91.6855 78.5066 92.0407C78.3163 92.388 78.4848 92.6375 78.742 92.8057C78.9125 92.9172 79.1699 92.9788 79.3673 92.9437C79.5828 92.9053 79.8497 92.7738 79.9512 92.5995C80.0296 92.4652 79.887 92.2021 79.7891 91.9426Z" fill="#00160A"/>
<path fill-rule="evenodd" clip-rule="evenodd" d="M73.5431 24.846C73.9986 24.5693 74.4151 24.2928 74.8641 24.0872C74.9821 24.0332 75.3482 24.2018 75.3469 24.2627C75.3417 24.503 75.3109 24.8401 75.1523 24.9607C74.747 25.269 74.2838 25.5195 73.8104 25.7103C73.6353 25.7809 73.2368 25.686 73.168 25.5508C73.0243 25.2682 73.1684 24.9825 73.5431 24.846Z" fill="#E7EAEE"/>
</svg>
